<?xml version="1.0" encoding="UTF-8" standalone="no"?>
<!-- Created with Inkscape (http://www.inkscape.org/) -->

<svg
   width="300mm"
   height="140mm"
   viewBox="0 0 300 140"
   version="1.1"
   id="svg1"
   sodipodi:docname="GasolineExample.svg"
   inkscape:version="1.3.2 (091e20e, 2023-11-25)"
   xmlns:inkscape="http://www.inkscape.org/namespaces/inkscape"
   xmlns:sodipodi="http://sodipodi.sourceforge.net/DTD/sodipodi-0.dtd"
   xmlns="http://www.w3.org/2000/svg"
   xmlns:svg="http://www.w3.org/2000/svg"
   xmlns:ns20="http://www.iki.fi/pav/software/textext/">
  <sodipodi:namedview
     id="namedview1"
     pagecolor="#ffffff"
     bordercolor="#000000"
     borderopacity="0.25"
     inkscape:showpageshadow="2"
     inkscape:pageopacity="0.0"
     inkscape:pagecheckerboard="0"
     inkscape:deskcolor="#d1d1d1"
     inkscape:document-units="mm"
     inkscape:zoom="0.99002955"
     inkscape:cx="609.57776"
     inkscape:cy="289.3853"
     inkscape:window-width="1920"
     inkscape:window-height="1080"
     inkscape:window-x="0"
     inkscape:window-y="0"
     inkscape:window-maximized="0"
     inkscape:current-layer="g62" />
  <defs
     id="defs1">
    <clipPath
       id="cpNTkuMDR8MTEyMS43Nnw1OS4wNHw1MDIuNTY=">
      <rect
         x="59.040001"
         y="59.040001"
         width="1062.72"
         height="443.51999"
         id="rect3" />
    </clipPath>
    <clipPath
       id="cpMC4wMHwxMTUyLjAwfDAuMDB8NTc2LjAw">
      <rect
         x="0"
         y="0"
         width="1152"
         height="576"
         id="rect2" />
    </clipPath>
  </defs>
  <g
     inkscape:label="Capa 1"
     inkscape:groupmode="layer"
     id="layer1">
    <g
       id="g1"
       transform="matrix(1.24862 0 0 1.24862 -34.1751 -67.0537)">
      <path
         style="fill:none;stroke:#ff0000;stroke-width:0.15;stroke-dasharray:none;stroke-opacity:1"
         d="m 41.482381,147.00617 220.482719,-0.006"
         id="path1" />
      <g
         clip-path="url(#cpNTkuMDR8MTEyMS43Nnw1OS4wNHw1MDIuNTY=)"
         id="g62"
         transform="matrix(0.206794 0 0 0.206794 30.0326 46.4738)">
        <circle
           cx="98.400002"
           cy="75.970001"
           r="5.4000001"
           style="fill:#add8e6;stroke:#add8e6;stroke-width:0.75;stroke-linecap:round;stroke-linejoin:round;stroke-miterlimit:10"
           id="circle3" />
        <circle
           cx="115.08"
           cy="75.470001"
           r="5.4000001"
           style="fill:#add8e6;stroke:#add8e6;stroke-width:0.75;stroke-linecap:round;stroke-linejoin:round;stroke-miterlimit:10"
           id="circle4" />
        <circle
           cx="131.75999"
           cy="76.440002"
           r="5.4000001"
           style="fill:#add8e6;stroke:#add8e6;stroke-width:0.75;stroke-linecap:round;stroke-linejoin:round;stroke-miterlimit:10"
           id="circle5" />
        <circle
           cx="148.42999"
           cy="77.440002"
           r="5.4000001"
           style="fill:#add8e6;stroke:#add8e6;stroke-width:0.75;stroke-linecap:round;stroke-linejoin:round;stroke-miterlimit:10"
           id="circle6" />
        <circle
           cx="165.11"
           cy="76.489998"
           r="5.4000001"
           style="fill:#add8e6;stroke:#add8e6;stroke-width:0.75;stroke-linecap:round;stroke-linejoin:round;stroke-miterlimit:10"
           id="circle7" />
        <circle
           cx="181.78999"
           cy="77.669998"
           r="5.4000001"
           style="fill:#add8e6;stroke:#add8e6;stroke-width:0.75;stroke-linecap:round;stroke-linejoin:round;stroke-miterlimit:10"
           id="circle8" />
        <circle
           cx="198.47"
           cy="486.13"
           r="5.4000001"
           style="fill:#add8e6;stroke:#add8e6;stroke-width:0.75;stroke-linecap:round;stroke-linejoin:round;stroke-miterlimit:10"
           id="circle9" />
        <circle
           cx="215.14999"
           cy="486.13"
           r="5.4000001"
           style="fill:#add8e6;stroke:#add8e6;stroke-width:0.75;stroke-linecap:round;stroke-linejoin:round;stroke-miterlimit:10"
           id="circle10" />
        <circle
           cx="231.82001"
           cy="486.13"
           r="5.4000001"
           style="fill:#add8e6;stroke:#add8e6;stroke-width:0.75;stroke-linecap:round;stroke-linejoin:round;stroke-miterlimit:10"
           id="circle11" />
        <circle
           cx="248.5"
           cy="486.13"
           r="5.4000001"
           style="fill:#add8e6;stroke:#add8e6;stroke-width:0.75;stroke-linecap:round;stroke-linejoin:round;stroke-miterlimit:10"
           id="circle12" />
        <circle
           cx="265.17999"
           cy="486.13"
           r="5.4000001"
           style="fill:#add8e6;stroke:#add8e6;stroke-width:0.75;stroke-linecap:round;stroke-linejoin:round;stroke-miterlimit:10"
           id="circle13" />
        <circle
           cx="281.85999"
           cy="486.13"
           r="5.4000001"
           style="fill:#add8e6;stroke:#add8e6;stroke-width:0.75;stroke-linecap:round;stroke-linejoin:round;stroke-miterlimit:10"
           id="circle14" />
        <circle
           cx="298.54001"
           cy="486.13"
           r="5.4000001"
           style="fill:#add8e6;stroke:#add8e6;stroke-width:0.75;stroke-linecap:round;stroke-linejoin:round;stroke-miterlimit:10"
           id="circle15" />
        <circle
           cx="315.20999"
           cy="486.13"
           r="5.4000001"
           style="fill:#add8e6;stroke:#add8e6;stroke-width:0.75;stroke-linecap:round;stroke-linejoin:round;stroke-miterlimit:10"
           id="circle16" />
        <circle
           cx="331.89001"
           cy="486.12"
           r="5.4000001"
           style="fill:#add8e6;stroke:#add8e6;stroke-width:0.75;stroke-linecap:round;stroke-linejoin:round;stroke-miterlimit:10"
           id="circle17" />
        <circle
           cx="348.57001"
           cy="486.13"
           r="5.4000001"
           style="fill:#add8e6;stroke:#add8e6;stroke-width:0.75;stroke-linecap:round;stroke-linejoin:round;stroke-miterlimit:10"
           id="circle18" />
        <circle
           cx="365.25"
           cy="486.13"
           r="5.4000001"
           style="fill:#add8e6;stroke:#add8e6;stroke-width:0.75;stroke-linecap:round;stroke-linejoin:round;stroke-miterlimit:10"
           id="circle19" />
        <circle
           cx="381.92999"
           cy="486.13"
           r="5.4000001"
           style="fill:#add8e6;stroke:#add8e6;stroke-width:0.75;stroke-linecap:round;stroke-linejoin:round;stroke-miterlimit:10"
           id="circle20" />
        <circle
           cx="398.60001"
           cy="486.13"
           r="5.4000001"
           style="fill:#add8e6;stroke:#add8e6;stroke-width:0.75;stroke-linecap:round;stroke-linejoin:round;stroke-miterlimit:10"
           id="circle21" />
        <circle
           cx="415.28"
           cy="486.13"
           r="5.4000001"
           style="fill:#add8e6;stroke:#add8e6;stroke-width:0.75;stroke-linecap:round;stroke-linejoin:round;stroke-miterlimit:10"
           id="circle22" />
        <circle
           cx="431.95999"
           cy="486.13"
           r="5.4000001"
           style="fill:#add8e6;stroke:#add8e6;stroke-width:0.75;stroke-linecap:round;stroke-linejoin:round;stroke-miterlimit:10"
           id="circle23" />
        <circle
           cx="448.64001"
           cy="486.12"
           r="5.4000001"
           style="fill:#add8e6;stroke:#add8e6;stroke-width:0.75;stroke-linecap:round;stroke-linejoin:round;stroke-miterlimit:10"
           id="circle24" />
        <circle
           cx="465.32001"
           cy="486.13"
           r="5.4000001"
           style="fill:#add8e6;stroke:#add8e6;stroke-width:0.75;stroke-linecap:round;stroke-linejoin:round;stroke-miterlimit:10"
           id="circle25" />
        <circle
           cx="481.98999"
           cy="486.13"
           r="5.4000001"
           style="fill:#add8e6;stroke:#add8e6;stroke-width:0.75;stroke-linecap:round;stroke-linejoin:round;stroke-miterlimit:10"
           id="circle26" />
        <circle
           cx="498.67001"
           cy="486.13"
           r="5.4000001"
           style="fill:#add8e6;stroke:#add8e6;stroke-width:0.75;stroke-linecap:round;stroke-linejoin:round;stroke-miterlimit:10"
           id="circle27" />
        <circle
           cx="515.34998"
           cy="486.13"
           r="5.4000001"
           style="fill:#add8e6;stroke:#add8e6;stroke-width:0.75;stroke-linecap:round;stroke-linejoin:round;stroke-miterlimit:10"
           id="circle28" />
        <circle
           cx="532.03003"
           cy="486.13"
           r="5.4000001"
           style="fill:#add8e6;stroke:#add8e6;stroke-width:0.75;stroke-linecap:round;stroke-linejoin:round;stroke-miterlimit:10"
           id="circle29" />
        <circle
           cx="548.71002"
           cy="486.13"
           r="5.4000001"
           style="fill:#add8e6;stroke:#add8e6;stroke-width:0.75;stroke-linecap:round;stroke-linejoin:round;stroke-miterlimit:10"
           id="circle30" />
        <circle
           cx="565.38"
           cy="486.13"
           r="5.4000001"
           style="fill:#add8e6;stroke:#add8e6;stroke-width:0.75;stroke-linecap:round;stroke-linejoin:round;stroke-miterlimit:10"
           id="circle31" />
        <circle
           cx="582.06"
           cy="486.13"
           r="5.4000001"
           style="fill:#add8e6;stroke:#add8e6;stroke-width:0.75;stroke-linecap:round;stroke-linejoin:round;stroke-miterlimit:10"
           id="circle32" />
        <circle
           cx="598.73999"
           cy="486.13"
           r="5.4000001"
           style="fill:#add8e6;stroke:#add8e6;stroke-width:0.75;stroke-linecap:round;stroke-linejoin:round;stroke-miterlimit:10"
           id="circle33" />
        <circle
           cx="615.41998"
           cy="486.13"
           r="5.4000001"
           style="fill:#add8e6;stroke:#add8e6;stroke-width:0.75;stroke-linecap:round;stroke-linejoin:round;stroke-miterlimit:10"
           id="circle34" />
        <circle
           cx="632.09003"
           cy="486.13"
           r="5.4000001"
           style="fill:#add8e6;stroke:#add8e6;stroke-width:0.75;stroke-linecap:round;stroke-linejoin:round;stroke-miterlimit:10"
           id="circle35" />
        <circle
           cx="648.77002"
           cy="486.13"
           r="5.4000001"
           style="fill:#add8e6;stroke:#add8e6;stroke-width:0.75;stroke-linecap:round;stroke-linejoin:round;stroke-miterlimit:10"
           id="circle36" />
        <circle
           cx="665.45001"
           cy="486.13"
           r="5.4000001"
           style="fill:#add8e6;stroke:#add8e6;stroke-width:0.75;stroke-linecap:round;stroke-linejoin:round;stroke-miterlimit:10"
           id="circle37" />
        <circle
           cx="682.13"
           cy="486.13"
           r="5.4000001"
           style="fill:#add8e6;stroke:#add8e6;stroke-width:0.75;stroke-linecap:round;stroke-linejoin:round;stroke-miterlimit:10"
           id="circle38" />
        <circle
           cx="698.81"
           cy="486.13"
           r="5.4000001"
           style="fill:#add8e6;stroke:#add8e6;stroke-width:0.75;stroke-linecap:round;stroke-linejoin:round;stroke-miterlimit:10"
           id="circle39" />
        <circle
           cx="715.47998"
           cy="486.13"
           r="5.4000001"
           style="fill:#add8e6;stroke:#add8e6;stroke-width:0.75;stroke-linecap:round;stroke-linejoin:round;stroke-miterlimit:10"
           id="circle40" />
        <circle
           cx="732.15997"
           cy="486.13"
           r="5.4000001"
           style="fill:#add8e6;stroke:#add8e6;stroke-width:0.75;stroke-linecap:round;stroke-linejoin:round;stroke-miterlimit:10"
           id="circle41" />
        <circle
           cx="748.84003"
           cy="486.13"
           r="5.4000001"
           style="fill:#add8e6;stroke:#add8e6;stroke-width:0.75;stroke-linecap:round;stroke-linejoin:round;stroke-miterlimit:10"
           id="circle42" />
        <circle
           cx="765.52002"
           cy="486.13"
           r="5.4000001"
           style="fill:#add8e6;stroke:#add8e6;stroke-width:0.75;stroke-linecap:round;stroke-linejoin:round;stroke-miterlimit:10"
           id="circle43" />
        <circle
           cx="782.20001"
           cy="486.13"
           r="5.4000001"
           style="fill:#add8e6;stroke:#add8e6;stroke-width:0.75;stroke-linecap:round;stroke-linejoin:round;stroke-miterlimit:10"
           id="circle44" />
        <circle
           cx="798.87"
           cy="486.13"
           r="5.4000001"
           style="fill:#add8e6;stroke:#add8e6;stroke-width:0.75;stroke-linecap:round;stroke-linejoin:round;stroke-miterlimit:10"
           id="circle45" />
        <circle
           cx="815.54999"
           cy="486.13"
           r="5.4000001"
           style="fill:#add8e6;stroke:#add8e6;stroke-width:0.75;stroke-linecap:round;stroke-linejoin:round;stroke-miterlimit:10"
           id="circle46" />
        <circle
           cx="832.22998"
           cy="486.13"
           r="5.4000001"
           style="fill:#add8e6;stroke:#add8e6;stroke-width:0.75;stroke-linecap:round;stroke-linejoin:round;stroke-miterlimit:10"
           id="circle47" />
        <circle
           cx="848.90997"
           cy="486.13"
           r="5.4000001"
           style="fill:#add8e6;stroke:#add8e6;stroke-width:0.75;stroke-linecap:round;stroke-linejoin:round;stroke-miterlimit:10"
           id="circle48" />
        <circle
           cx="865.59003"
           cy="486.13"
           r="5.4000001"
           style="fill:#add8e6;stroke:#add8e6;stroke-width:0.75;stroke-linecap:round;stroke-linejoin:round;stroke-miterlimit:10"
           id="circle49" />
        <circle
           cx="882.26001"
           cy="486.13"
           r="5.4000001"
           style="fill:#add8e6;stroke:#add8e6;stroke-width:0.75;stroke-linecap:round;stroke-linejoin:round;stroke-miterlimit:10"
           id="circle50" />
        <circle
           cx="898.94"
           cy="486.13"
           r="5.4000001"
           style="fill:#add8e6;stroke:#add8e6;stroke-width:0.75;stroke-linecap:round;stroke-linejoin:round;stroke-miterlimit:10"
           id="circle51" />
        <circle
           cx="915.62"
           cy="486.13"
           r="5.4000001"
           style="fill:#add8e6;stroke:#add8e6;stroke-width:0.75;stroke-linecap:round;stroke-linejoin:round;stroke-miterlimit:10"
           id="circle52" />
        <circle
           cx="932.29999"
           cy="486.13"
           r="5.4000001"
           style="fill:#add8e6;stroke:#add8e6;stroke-width:0.75;stroke-linecap:round;stroke-linejoin:round;stroke-miterlimit:10"
           id="circle53" />
        <circle
           cx="948.97998"
           cy="486.13"
           r="5.4000001"
           style="fill:#add8e6;stroke:#add8e6;stroke-width:0.75;stroke-linecap:round;stroke-linejoin:round;stroke-miterlimit:10"
           id="circle54" />
        <circle
           cx="965.65002"
           cy="486.13"
           r="5.4000001"
           style="fill:#add8e6;stroke:#add8e6;stroke-width:0.75;stroke-linecap:round;stroke-linejoin:round;stroke-miterlimit:10"
           id="circle55" />
        <circle
           cx="982.33002"
           cy="486.12"
           r="5.4000001"
           style="fill:#add8e6;stroke:#add8e6;stroke-width:0.75;stroke-linecap:round;stroke-linejoin:round;stroke-miterlimit:10"
           id="circle56" />
        <circle
           cx="999.01001"
           cy="486.13"
           r="5.4000001"
           style="fill:#add8e6;stroke:#add8e6;stroke-width:0.75;stroke-linecap:round;stroke-linejoin:round;stroke-miterlimit:10"
           id="circle57" />
        <circle
           cx="1015.69"
           cy="486.13"
           r="5.4000001"
           style="fill:#add8e6;stroke:#add8e6;stroke-width:0.75;stroke-linecap:round;stroke-linejoin:round;stroke-miterlimit:10"
           id="circle58" />
        <circle
           cx="1032.37"
           cy="486.12"
           r="5.4000001"
           style="fill:#add8e6;stroke:#add8e6;stroke-width:0.75;stroke-linecap:round;stroke-linejoin:round;stroke-miterlimit:10"
           id="circle59" />
        <circle
           cx="1049.04"
           cy="486.13"
           r="5.4000001"
           style="fill:#add8e6;stroke:#add8e6;stroke-width:0.75;stroke-linecap:round;stroke-linejoin:round;stroke-miterlimit:10"
           id="circle60" />
        <circle
           cx="1065.72"
           cy="486.13"
           r="5.4000001"
           style="fill:#add8e6;stroke:#add8e6;stroke-width:0.75;stroke-linecap:round;stroke-linejoin:round;stroke-miterlimit:10"
           id="circle61" />
        <circle
           cx="1082.4"
           cy="486.13"
           r="5.4000001"
           style="fill:#add8e6;stroke:#add8e6;stroke-width:0.75;stroke-linecap:round;stroke-linejoin:round;stroke-miterlimit:10"
           id="circle62" />
        <path
           style="fill:none;stroke:#000000;stroke-width:0.773523;stroke-dasharray:0.773523, 0.773523;stroke-dashoffset:0;stroke-opacity:1"
           d="M 962.3417,58.618689 V 115.04509"
           id="path2" />
        <path
           style="fill:none;stroke:#000000;stroke-width:0.77457196;stroke-dasharray:0.77457196,0.77457196;stroke-dashoffset:0;stroke-opacity:1"
           d="m 962.16839,114.67115 160.58611,-0.009"
           id="path3" />
        <g
           transform="matrix(1.36626,0,0,1.36626,1027.5478,79.443098)"
           ns20:version="1.10.2"
           ns20:texconverter="pdflatex"
           ns20:pdfconverter="inkscape"
           ns20:text="$UCL = 0.049$"
           ns20:preamble="/Users/kevin.pineda/Library/Application Support/org.inkscape.Inkscape/config/inkscape/extensions/textext/default_packages.tex"
           ns20:scale="1.0"
           ns20:alignment="middle center"
           ns20:stroke-to-path="0"
           ns20:inkscapeversion="1.3.2"
           id="g8545"
           ns20:jacobian_sqrt="1.36626">
          <defs
             id="id-04404ece-40d7-4590-b10f-bf6e703fba75">
            <g
               id="id-b78bcaa8-cb88-48e2-8b76-9695cc4872f9">
              <g
                 id="id-544c27d2-a098-4e53-8a5f-d0de0ecf0cc9">
                <path
                   d="M 6.328125,-5.765625 C 6.4375,-6.171875 6.609375,-6.46875 7.40625,-6.5 c 0.046875,0 0.171875,-0.015625 0.171875,-0.203125 0,0 0,-0.109375 -0.125,-0.109375 -0.328125,0 -0.6875,0.03125 -1.015625,0.03125 -0.34375,0 -0.71875,-0.03125 -1.046875,-0.03125 -0.0625,0 -0.171875,0 -0.171875,0.203125 C 5.21875,-6.5 5.3125,-6.5 5.390625,-6.5 c 0.578125,0.015625 0.6875,0.21875 0.6875,0.4375 0,0.03125 -0.03125,0.1875 -0.03125,0.203125 l -0.90625,3.5625 C 4.8125,-0.953125 3.65625,-0.09375 2.65625,-0.09375 c -0.671875,0 -1.203125,-0.4375 -1.203125,-1.296875 0,-0.015625 0,-0.328125 0.109375,-0.765625 L 2.515625,-6.046875 C 2.609375,-6.40625 2.625,-6.5 3.359375,-6.5 c 0.265625,0 0.34375,0 0.34375,-0.203125 0,-0.109375 -0.109375,-0.109375 -0.140625,-0.109375 -0.28125,0 -1,0.03125 -1.28125,0.03125 -0.28125,0 -1,-0.03125 -1.28125,-0.03125 -0.078125,0 -0.1875,0 -0.1875,0.203125 C 0.8125,-6.5 0.890625,-6.5 1.09375,-6.5 c 0.015625,0 0.203125,0 0.375,0.015625 0.171875,0.03125 0.265625,0.03125 0.265625,0.171875 0,0.046875 -0.109375,0.46875 -0.171875,0.703125 l -0.21875,0.875 C 1.25,-4.34375 0.78125,-2.46875 0.734375,-2.265625 0.671875,-2 0.671875,-1.84375 0.671875,-1.6875 c 0,1.203125 0.90625,1.90625 1.953125,1.90625 1.25,0 2.484375,-1.125 2.8125,-2.4375 z m 0,0"
                   id="id-1516d967-5967-4a10-9ce9-10d37ce7d526" />
              </g>
              <g
                 id="id-4685dd35-17d7-4aa0-8570-fdc6011d16e2">
                <path
                   d="m 7.578125,-6.921875 c 0,-0.03125 -0.015625,-0.109375 -0.109375,-0.109375 -0.03125,0 -0.046875,0.015625 -0.15625,0.125 L 6.625,-6.140625 C 6.53125,-6.28125 6.078125,-7.03125 4.96875,-7.03125 2.734375,-7.03125 0.5,-4.828125 0.5,-2.515625 0.5,-0.875 1.671875,0.21875 3.203125,0.21875 c 0.859375,0 1.625,-0.390625 2.15625,-0.859375 0.921875,-0.8125 1.09375,-1.71875 1.09375,-1.75 C 6.453125,-2.5 6.34375,-2.5 6.328125,-2.5 c -0.0625,0 -0.109375,0.03125 -0.125,0.109375 -0.09375,0.28125 -0.328125,1 -1.015625,1.578125 -0.6875,0.546875 -1.3125,0.71875 -1.828125,0.71875 -0.890625,0 -1.953125,-0.515625 -1.953125,-2.0625 0,-0.578125 0.203125,-2.1875 1.203125,-3.359375 0.609375,-0.703125 1.546875,-1.203125 2.4375,-1.203125 1.015625,0 1.609375,0.765625 1.609375,1.921875 0,0.40625 -0.03125,0.40625 -0.03125,0.515625 0,0.09375 0.109375,0.09375 0.140625,0.09375 0.125,0 0.125,-0.015625 0.1875,-0.203125 z m 0,0"
                   id="id-e5ec03dd-d53d-464c-adb7-c2cae079661b" />
              </g>
              <g
                 id="id-8f741c56-a4de-41f0-a1e0-69bd334e32a3">
                <path
                   d="M 3.734375,-6.03125 C 3.8125,-6.390625 3.84375,-6.5 4.78125,-6.5 c 0.296875,0 0.375,0 0.375,-0.1875 0,-0.125 -0.109375,-0.125 -0.15625,-0.125 -0.328125,0 -1.140625,0.03125 -1.46875,0.03125 -0.296875,0 -1.03125,-0.03125 -1.328125,-0.03125 -0.0625,0 -0.1875,0 -0.1875,0.203125 0,0.109375 0.09375,0.109375 0.28125,0.109375 0.015625,0 0.203125,0 0.375,0.015625 0.171875,0.03125 0.265625,0.03125 0.265625,0.171875 0,0.03125 0,0.0625 -0.03125,0.1875 L 1.5625,-0.78125 c -0.09375,0.390625 -0.109375,0.46875 -0.90625,0.46875 -0.171875,0 -0.265625,0 -0.265625,0.203125 C 0.390625,0 0.484375,0 0.65625,0 h 4.625 C 5.515625,0 5.515625,0 5.578125,-0.171875 L 6.375,-2.328125 c 0.03125,-0.109375 0.03125,-0.125 0.03125,-0.140625 0,-0.03125 -0.03125,-0.109375 -0.109375,-0.109375 -0.09375,0 -0.109375,0.0625 -0.171875,0.21875 -0.34375,0.90625 -0.78125,2.046875 -2.5,2.046875 H 2.6875 c -0.140625,0 -0.171875,0 -0.21875,0 -0.109375,-0.015625 -0.140625,-0.03125 -0.140625,-0.109375 0,-0.03125 0,-0.046875 0.046875,-0.21875 z m 0,0"
                   id="id-880680be-33ef-4a56-a75b-a9415b464545" />
              </g>
              <g
                 id="id-cbdc1fda-e3fb-4f7f-8ea6-1e1c46a7075b">
                <path
                   d="m 1.90625,-0.53125 c 0,-0.28125 -0.234375,-0.53125 -0.515625,-0.53125 -0.296875,0 -0.53125,0.25 -0.53125,0.53125 C 0.859375,-0.234375 1.09375,0 1.390625,0 1.671875,0 1.90625,-0.234375 1.90625,-0.53125 Z m 0,0"
                   id="id-ffa53943-6511-44cd-be0f-e6f8a7199e0b" />
              </g>
              <g
                 id="id-a01d8b52-2486-4a05-9511-77249376968d">
                <path
                   d="m 6.84375,-3.265625 c 0.15625,0 0.34375,0 0.34375,-0.1875 C 7.1875,-3.65625 7,-3.65625 6.859375,-3.65625 h -5.96875 c -0.140625,0 -0.328125,0 -0.328125,0.203125 0,0.1875 0.1875,0.1875 0.328125,0.1875 z m 0.015625,1.9375 c 0.140625,0 0.328125,0 0.328125,-0.203125 0,-0.1875 -0.1875,-0.1875 -0.34375,-0.1875 H 0.890625 c -0.140625,0 -0.328125,0 -0.328125,0.1875 0,0.203125 0.1875,0.203125 0.328125,0.203125 z m 0,0"
                   id="id-b319fb48-261b-4f82-bbc2-aaf6ad6ba9a7" />
              </g>
              <g
                 id="id-56a91735-d42a-4e88-88a8-204774d81361">
                <path
                   d="m 4.578125,-3.1875 c 0,-0.796875 -0.046875,-1.59375 -0.390625,-2.328125 -0.453125,-0.96875 -1.28125,-1.125 -1.6875,-1.125 -0.609375,0 -1.328125,0.265625 -1.75,1.1875 -0.3125,0.6875 -0.359375,1.46875 -0.359375,2.265625 0,0.75 0.03125,1.640625 0.453125,2.40625 0.421875,0.796875 1.15625,1 1.640625,1 0.53125,0 1.296875,-0.203125 1.734375,-1.15625 0.3125,-0.6875 0.359375,-1.46875 0.359375,-2.25 z M 2.484375,0 C 2.09375,0 1.5,-0.25 1.328125,-1.203125 1.21875,-1.796875 1.21875,-2.71875 1.21875,-3.3125 c 0,-0.640625 0,-1.296875 0.078125,-1.828125 0.1875,-1.1875 0.9375,-1.28125 1.1875,-1.28125 0.328125,0 0.984375,0.1875 1.171875,1.171875 0.109375,0.5625 0.109375,1.3125 0.109375,1.9375 0,0.75 0,1.421875 -0.109375,2.0625 C 3.5,-0.296875 2.9375,0 2.484375,0 Z m 0,0"
                   id="id-7a3b47eb-1fb6-4fd7-88c8-ecc59e14078d" />
              </g>
              <g
                 id="id-ac084206-dbe1-46e1-babd-16c51c12c927">
                <path
                   d="m 2.9375,-1.640625 v 0.859375 c 0,0.359375 -0.03125,0.46875 -0.765625,0.46875 H 1.96875 V 0 C 2.375,-0.03125 2.890625,-0.03125 3.3125,-0.03125 c 0.421875,0 0.9375,0 1.359375,0.03125 v -0.3125 h -0.21875 c -0.734375,0 -0.75,-0.109375 -0.75,-0.46875 V -1.640625 H 4.6875 v -0.3125 H 3.703125 v -4.53125 c 0,-0.203125 0,-0.265625 -0.171875,-0.265625 -0.078125,0 -0.109375,0 -0.1875,0.125 l -3.0625,4.671875 v 0.3125 z m 0.046875,-0.3125 H 0.5625 l 2.421875,-3.71875 z m 0,0"
                   id="id-3d429078-b21f-4e14-964b-6432418e279e" />
              </g>
              <g
                 id="id-07048e17-c011-481f-88b1-0375c836d99d">
                <path
                   d="m 3.65625,-3.171875 v 0.328125 c 0,2.328125 -1.03125,2.78125 -1.609375,2.78125 -0.171875,0 -0.71875,-0.015625 -0.984375,-0.359375 0.4375,0 0.515625,-0.28125 0.515625,-0.453125 0,-0.3125 -0.234375,-0.453125 -0.453125,-0.453125 -0.15625,0 -0.453125,0.078125 -0.453125,0.46875 0,0.671875 0.53125,1.078125 1.375,1.078125 1.296875,0 2.515625,-1.359375 2.515625,-3.5 0,-2.6875 -1.15625,-3.359375 -2.046875,-3.359375 -0.546875,0 -1.03125,0.1875 -1.453125,0.625 -0.421875,0.453125 -0.640625,0.875 -0.640625,1.625 0,1.234375 0.875,2.21875 1.984375,2.21875 0.609375,0 1.015625,-0.421875 1.25,-1 z M 2.421875,-2.40625 c -0.15625,0 -0.625,0 -0.921875,-0.625 -0.1875,-0.375 -0.1875,-0.859375 -0.1875,-1.359375 0,-0.53125 0,-1 0.21875,-1.375 0.265625,-0.5 0.640625,-0.625 0.984375,-0.625 0.46875,0 0.796875,0.34375 0.96875,0.78125 0.109375,0.328125 0.15625,0.953125 0.15625,1.40625 0,0.828125 -0.34375,1.796875 -1.21875,1.796875 z m 0,0"
                   id="id-380a843e-3ce3-4eef-bd38-8a350cabab6a" />
              </g>
            </g>
          </defs>
          <g
             fill="#000000"
             fill-opacity="1"
             id="id-0a7f8345-ba6d-4df3-a442-03a8fe4e5a50"
             transform="translate(-149.384,-127.734)">
            <g
               transform="translate(148.712,134.765)"
               id="g5742">
              <path
                 d="M 6.328125,-5.765625 C 6.4375,-6.171875 6.609375,-6.46875 7.40625,-6.5 c 0.046875,0 0.171875,-0.015625 0.171875,-0.203125 0,0 0,-0.109375 -0.125,-0.109375 -0.328125,0 -0.6875,0.03125 -1.015625,0.03125 -0.34375,0 -0.71875,-0.03125 -1.046875,-0.03125 -0.0625,0 -0.171875,0 -0.171875,0.203125 C 5.21875,-6.5 5.3125,-6.5 5.390625,-6.5 c 0.578125,0.015625 0.6875,0.21875 0.6875,0.4375 0,0.03125 -0.03125,0.1875 -0.03125,0.203125 l -0.90625,3.5625 C 4.8125,-0.953125 3.65625,-0.09375 2.65625,-0.09375 c -0.671875,0 -1.203125,-0.4375 -1.203125,-1.296875 0,-0.015625 0,-0.328125 0.109375,-0.765625 L 2.515625,-6.046875 C 2.609375,-6.40625 2.625,-6.5 3.359375,-6.5 c 0.265625,0 0.34375,0 0.34375,-0.203125 0,-0.109375 -0.109375,-0.109375 -0.140625,-0.109375 -0.28125,0 -1,0.03125 -1.28125,0.03125 -0.28125,0 -1,-0.03125 -1.28125,-0.03125 -0.078125,0 -0.1875,0 -0.1875,0.203125 C 0.8125,-6.5 0.890625,-6.5 1.09375,-6.5 c 0.015625,0 0.203125,0 0.375,0.015625 0.171875,0.03125 0.265625,0.03125 0.265625,0.171875 0,0.046875 -0.109375,0.46875 -0.171875,0.703125 l -0.21875,0.875 C 1.25,-4.34375 0.78125,-2.46875 0.734375,-2.265625 0.671875,-2 0.671875,-1.84375 0.671875,-1.6875 c 0,1.203125 0.90625,1.90625 1.953125,1.90625 1.25,0 2.484375,-1.125 2.8125,-2.4375 z m 0,0"
                 id="id-c02272be-2351-4593-a84f-c2d935c1ed12" />
            </g>
          </g>
          <g
             fill="#000000"
             fill-opacity="1"
             id="id-293f9258-f8dd-4ab2-bb68-399d038b1468"
             transform="translate(-149.384,-127.734)">
            <g
               transform="translate(156.6,134.765)"
               id="g7525">
              <path
                 d="m 7.578125,-6.921875 c 0,-0.03125 -0.015625,-0.109375 -0.109375,-0.109375 -0.03125,0 -0.046875,0.015625 -0.15625,0.125 L 6.625,-6.140625 C 6.53125,-6.28125 6.078125,-7.03125 4.96875,-7.03125 2.734375,-7.03125 0.5,-4.828125 0.5,-2.515625 0.5,-0.875 1.671875,0.21875 3.203125,0.21875 c 0.859375,0 1.625,-0.390625 2.15625,-0.859375 0.921875,-0.8125 1.09375,-1.71875 1.09375,-1.75 C 6.453125,-2.5 6.34375,-2.5 6.328125,-2.5 c -0.0625,0 -0.109375,0.03125 -0.125,0.109375 -0.09375,0.28125 -0.328125,1 -1.015625,1.578125 -0.6875,0.546875 -1.3125,0.71875 -1.828125,0.71875 -0.890625,0 -1.953125,-0.515625 -1.953125,-2.0625 0,-0.578125 0.203125,-2.1875 1.203125,-3.359375 0.609375,-0.703125 1.546875,-1.203125 2.4375,-1.203125 1.015625,0 1.609375,0.765625 1.609375,1.921875 0,0.40625 -0.03125,0.40625 -0.03125,0.515625 0,0.09375 0.109375,0.09375 0.140625,0.09375 0.125,0 0.125,-0.015625 0.1875,-0.203125 z m 0,0"
                 id="id-b53a3717-0ac4-4e42-9fb9-af8de37ca106" />
            </g>
          </g>
          <g
             fill="#000000"
             fill-opacity="1"
             id="id-3e6dbb98-39e1-414a-a47f-744adf254937"
             transform="translate(-149.384,-127.734)">
            <g
               transform="translate(164.438,134.765)"
               id="g4635">
              <path
                 d="M 3.734375,-6.03125 C 3.8125,-6.390625 3.84375,-6.5 4.78125,-6.5 c 0.296875,0 0.375,0 0.375,-0.1875 0,-0.125 -0.109375,-0.125 -0.15625,-0.125 -0.328125,0 -1.140625,0.03125 -1.46875,0.03125 -0.296875,0 -1.03125,-0.03125 -1.328125,-0.03125 -0.0625,0 -0.1875,0 -0.1875,0.203125 0,0.109375 0.09375,0.109375 0.28125,0.109375 0.015625,0 0.203125,0 0.375,0.015625 0.171875,0.03125 0.265625,0.03125 0.265625,0.171875 0,0.03125 0,0.0625 -0.03125,0.1875 L 1.5625,-0.78125 c -0.09375,0.390625 -0.109375,0.46875 -0.90625,0.46875 -0.171875,0 -0.265625,0 -0.265625,0.203125 C 0.390625,0 0.484375,0 0.65625,0 h 4.625 C 5.515625,0 5.515625,0 5.578125,-0.171875 L 6.375,-2.328125 c 0.03125,-0.109375 0.03125,-0.125 0.03125,-0.140625 0,-0.03125 -0.03125,-0.109375 -0.109375,-0.109375 -0.09375,0 -0.109375,0.0625 -0.171875,0.21875 -0.34375,0.90625 -0.78125,2.046875 -2.5,2.046875 H 2.6875 c -0.140625,0 -0.171875,0 -0.21875,0 -0.109375,-0.015625 -0.140625,-0.03125 -0.140625,-0.109375 0,-0.03125 0,-0.046875 0.046875,-0.21875 z m 0,0"
                 id="id-73a5d88d-f8fd-4c42-b547-da911050c2c1" />
            </g>
          </g>
          <g
             fill="#000000"
             fill-opacity="1"
             id="id-62489966-3920-4485-9ccb-d6aba067061c"
             transform="translate(-149.384,-127.734)">
            <g
               transform="translate(173.981,134.765)"
               id="g9950">
              <path
                 d="m 6.84375,-3.265625 c 0.15625,0 0.34375,0 0.34375,-0.1875 C 7.1875,-3.65625 7,-3.65625 6.859375,-3.65625 h -5.96875 c -0.140625,0 -0.328125,0 -0.328125,0.203125 0,0.1875 0.1875,0.1875 0.328125,0.1875 z m 0.015625,1.9375 c 0.140625,0 0.328125,0 0.328125,-0.203125 0,-0.1875 -0.1875,-0.1875 -0.34375,-0.1875 H 0.890625 c -0.140625,0 -0.328125,0 -0.328125,0.1875 0,0.203125 0.1875,0.203125 0.328125,0.203125 z m 0,0"
                 id="id-f728c341-9f0f-4096-a257-3a8e3854fade" />
            </g>
          </g>
          <g
             fill="#000000"
             fill-opacity="1"
             id="id-38e235d3-068f-4aae-b18b-24a0f36b3957"
             transform="translate(-149.384,-127.734)">
            <g
               transform="translate(184.5,134.765)"
               id="g9710">
              <path
                 d="m 4.578125,-3.1875 c 0,-0.796875 -0.046875,-1.59375 -0.390625,-2.328125 -0.453125,-0.96875 -1.28125,-1.125 -1.6875,-1.125 -0.609375,0 -1.328125,0.265625 -1.75,1.1875 -0.3125,0.6875 -0.359375,1.46875 -0.359375,2.265625 0,0.75 0.03125,1.640625 0.453125,2.40625 0.421875,0.796875 1.15625,1 1.640625,1 0.53125,0 1.296875,-0.203125 1.734375,-1.15625 0.3125,-0.6875 0.359375,-1.46875 0.359375,-2.25 z M 2.484375,0 C 2.09375,0 1.5,-0.25 1.328125,-1.203125 1.21875,-1.796875 1.21875,-2.71875 1.21875,-3.3125 c 0,-0.640625 0,-1.296875 0.078125,-1.828125 0.1875,-1.1875 0.9375,-1.28125 1.1875,-1.28125 0.328125,0 0.984375,0.1875 1.171875,1.171875 0.109375,0.5625 0.109375,1.3125 0.109375,1.9375 0,0.75 0,1.421875 -0.109375,2.0625 C 3.5,-0.296875 2.9375,0 2.484375,0 Z m 0,0"
                 id="id-faae55dc-9337-4dbf-98ca-1c0c05a4a881" />
            </g>
          </g>
          <g
             fill="#000000"
             fill-opacity="1"
             id="id-86fc56c6-a7f9-4a9a-96e3-780037f09e44"
             transform="translate(-149.384,-127.734)">
            <g
               transform="translate(189.479,134.765)"
               id="g1297">
              <path
                 d="m 1.90625,-0.53125 c 0,-0.28125 -0.234375,-0.53125 -0.515625,-0.53125 -0.296875,0 -0.53125,0.25 -0.53125,0.53125 C 0.859375,-0.234375 1.09375,0 1.390625,0 1.671875,0 1.90625,-0.234375 1.90625,-0.53125 Z m 0,0"
                 id="id-11bfcc36-2315-467f-be68-c0962df8d140" />
            </g>
          </g>
          <g
             fill="#000000"
             fill-opacity="1"
             id="id-3b8c7c79-2714-44e2-ba56-ae3f3b74dbb1"
             transform="translate(-149.384,-127.734)">
            <g
               transform="translate(192.246,134.765)"
               id="g5870">
              <path
                 d="m 4.578125,-3.1875 c 0,-0.796875 -0.046875,-1.59375 -0.390625,-2.328125 -0.453125,-0.96875 -1.28125,-1.125 -1.6875,-1.125 -0.609375,0 -1.328125,0.265625 -1.75,1.1875 -0.3125,0.6875 -0.359375,1.46875 -0.359375,2.265625 0,0.75 0.03125,1.640625 0.453125,2.40625 0.421875,0.796875 1.15625,1 1.640625,1 0.53125,0 1.296875,-0.203125 1.734375,-1.15625 0.3125,-0.6875 0.359375,-1.46875 0.359375,-2.25 z M 2.484375,0 C 2.09375,0 1.5,-0.25 1.328125,-1.203125 1.21875,-1.796875 1.21875,-2.71875 1.21875,-3.3125 c 0,-0.640625 0,-1.296875 0.078125,-1.828125 0.1875,-1.1875 0.9375,-1.28125 1.1875,-1.28125 0.328125,0 0.984375,0.1875 1.171875,1.171875 0.109375,0.5625 0.109375,1.3125 0.109375,1.9375 0,0.75 0,1.421875 -0.109375,2.0625 C 3.5,-0.296875 2.9375,0 2.484375,0 Z m 0,0"
                 id="id-562dfa68-0b9e-48a3-9966-dc008282300e" />
            </g>
            <g
               transform="translate(197.227,134.765)"
               id="g776">
              <path
                 d="m 2.9375,-1.640625 v 0.859375 c 0,0.359375 -0.03125,0.46875 -0.765625,0.46875 H 1.96875 V 0 C 2.375,-0.03125 2.890625,-0.03125 3.3125,-0.03125 c 0.421875,0 0.9375,0 1.359375,0.03125 v -0.3125 h -0.21875 c -0.734375,0 -0.75,-0.109375 -0.75,-0.46875 V -1.640625 H 4.6875 v -0.3125 H 3.703125 v -4.53125 c 0,-0.203125 0,-0.265625 -0.171875,-0.265625 -0.078125,0 -0.109375,0 -0.1875,0.125 l -3.0625,4.671875 v 0.3125 z m 0.046875,-0.3125 H 0.5625 l 2.421875,-3.71875 z m 0,0"
                 id="id-8a5d051d-6e36-4eef-a383-de21575b8ed7" />
            </g>
            <g
               transform="translate(202.209,134.765)"
               id="g9047">
              <path
                 d="m 3.65625,-3.171875 v 0.328125 c 0,2.328125 -1.03125,2.78125 -1.609375,2.78125 -0.171875,0 -0.71875,-0.015625 -0.984375,-0.359375 0.4375,0 0.515625,-0.28125 0.515625,-0.453125 0,-0.3125 -0.234375,-0.453125 -0.453125,-0.453125 -0.15625,0 -0.453125,0.078125 -0.453125,0.46875 0,0.671875 0.53125,1.078125 1.375,1.078125 1.296875,0 2.515625,-1.359375 2.515625,-3.5 0,-2.6875 -1.15625,-3.359375 -2.046875,-3.359375 -0.546875,0 -1.03125,0.1875 -1.453125,0.625 -0.421875,0.453125 -0.640625,0.875 -0.640625,1.625 0,1.234375 0.875,2.21875 1.984375,2.21875 0.609375,0 1.015625,-0.421875 1.25,-1 z M 2.421875,-2.40625 c -0.15625,0 -0.625,0 -0.921875,-0.625 -0.1875,-0.375 -0.1875,-0.859375 -0.1875,-1.359375 0,-0.53125 0,-1 0.21875,-1.375 0.265625,-0.5 0.640625,-0.625 0.984375,-0.625 0.46875,0 0.796875,0.34375 0.96875,0.78125 0.109375,0.328125 0.15625,0.953125 0.15625,1.40625 0,0.828125 -0.34375,1.796875 -1.21875,1.796875 z m 0,0"
                 id="id-28471b3f-9d62-42a5-b437-c601d163114b" />
            </g>
          </g>
        </g>
        <path
           style="fill:none;stroke:#ff0000;stroke-width:0.774572;stroke-dasharray:none;stroke-dashoffset:0;stroke-opacity:1"
           d="m 978.21354,84.561445 39.08336,-0.177347"
           id="path4" />
      </g>
      <g
         id="g145"
         transform="matrix(0.17015535,0,0,0.17015535,66.310675,64.445645)">
        <text
           x="1082.4"
           y="489.89001"
           text-anchor="middle"
           style="font-weight:bold;font-size:10.8px;font-family:Arial;white-space:pre"
           textLength="12.01"
           lengthAdjust="spacingAndGlyphs"
           id="text144"
           transform="translate(20.052856,-1.0746826)">60</text>
      </g>
      <g
         clip-path="url(#cpMC4wMHwxMTUyLjAwfDAuMDB8NTc2LjAw)"
         id="g84"
         transform="matrix(0.206794 0 0 0.206794 30.0326 46.4738)">
        <line
           x1="81.720001"
           y1="502.56"
           x2="1082.4"
           y2="502.56"
           style="fill:none;stroke:#000000;stroke-width:0.75;stroke-linecap:round;stroke-linejoin:round;stroke-miterlimit:10"
           id="line62" />
        <line
           x1="81.720001"
           y1="502.56"
           x2="81.720001"
           y2="509.76001"
           style="fill:none;stroke:#000000;stroke-width:0.75;stroke-linecap:round;stroke-linejoin:round;stroke-miterlimit:10"
           id="line63" />
        <line
           x1="248.5"
           y1="502.56"
           x2="248.5"
           y2="509.76001"
           style="fill:none;stroke:#000000;stroke-width:0.75;stroke-linecap:round;stroke-linejoin:round;stroke-miterlimit:10"
           id="line64" />
        <line
           x1="415.28"
           y1="502.56"
           x2="415.28"
           y2="509.76001"
           style="fill:none;stroke:#000000;stroke-width:0.75;stroke-linecap:round;stroke-linejoin:round;stroke-miterlimit:10"
           id="line65" />
        <line
           x1="582.06"
           y1="502.56"
           x2="582.06"
           y2="509.76001"
           style="fill:none;stroke:#000000;stroke-width:0.75;stroke-linecap:round;stroke-linejoin:round;stroke-miterlimit:10"
           id="line66" />
        <line
           x1="748.84003"
           y1="502.56"
           x2="748.84003"
           y2="509.76001"
           style="fill:none;stroke:#000000;stroke-width:0.75;stroke-linecap:round;stroke-linejoin:round;stroke-miterlimit:10"
           id="line67" />
        <line
           x1="915.62"
           y1="502.56"
           x2="915.62"
           y2="509.76001"
           style="fill:none;stroke:#000000;stroke-width:0.75;stroke-linecap:round;stroke-linejoin:round;stroke-miterlimit:10"
           id="line68" />
        <line
           x1="1082.4"
           y1="502.56"
           x2="1082.4"
           y2="509.76001"
           style="fill:none;stroke:#000000;stroke-width:0.75;stroke-linecap:round;stroke-linejoin:round;stroke-miterlimit:10"
           id="line69" />
        <text
           x="81.720001"
           y="528.47998"
           text-anchor="middle"
           style="font-size:12px;font-family:Arial;white-space:pre"
           textLength="6.6700001"
           lengthAdjust="spacingAndGlyphs"
           id="text69">0</text>
        <text
           x="248.5"
           y="528.47998"
           text-anchor="middle"
           style="font-size:12px;font-family:Arial;white-space:pre"
           textLength="13.35"
           lengthAdjust="spacingAndGlyphs"
           id="text70">10</text>
        <text
           x="415.28"
           y="528.47998"
           text-anchor="middle"
           style="font-size:12px;font-family:Arial;white-space:pre"
           textLength="13.35"
           lengthAdjust="spacingAndGlyphs"
           id="text71">20</text>
        <text
           x="582.06"
           y="528.47998"
           text-anchor="middle"
           style="font-size:12px;font-family:Arial;white-space:pre"
           textLength="13.35"
           lengthAdjust="spacingAndGlyphs"
           id="text72">30</text>
        <text
           x="748.84003"
           y="528.47998"
           text-anchor="middle"
           style="font-size:12px;font-family:Arial;white-space:pre"
           textLength="13.35"
           lengthAdjust="spacingAndGlyphs"
           id="text73">40</text>
        <text
           x="915.62"
           y="528.47998"
           text-anchor="middle"
           style="font-size:12px;font-family:Arial;white-space:pre"
           textLength="13.35"
           lengthAdjust="spacingAndGlyphs"
           id="text74">50</text>
        <text
           x="1082.4"
           y="528.47998"
           text-anchor="middle"
           style="font-size:12px;font-family:Arial;white-space:pre"
           textLength="13.35"
           lengthAdjust="spacingAndGlyphs"
           id="text75">60</text>
        <line
           x1="59.040001"
           y1="486.13"
           x2="59.040001"
           y2="155.50999"
           style="fill:none;stroke:#000000;stroke-width:0.75;stroke-linecap:round;stroke-linejoin:round;stroke-miterlimit:10"
           id="line75" />
        <line
           x1="59.040001"
           y1="486.13"
           x2="51.84"
           y2="486.13"
           style="fill:none;stroke:#000000;stroke-width:0.75;stroke-linecap:round;stroke-linejoin:round;stroke-miterlimit:10"
           id="line76" />
        <line
           x1="59.040001"
           y1="375.92999"
           x2="51.84"
           y2="375.92999"
           style="fill:none;stroke:#000000;stroke-width:0.75;stroke-linecap:round;stroke-linejoin:round;stroke-miterlimit:10"
           id="line77" />
        <line
           x1="59.040001"
           y1="265.72"
           x2="51.84"
           y2="265.72"
           style="fill:none;stroke:#000000;stroke-width:0.75;stroke-linecap:round;stroke-linejoin:round;stroke-miterlimit:10"
           id="line78" />
        <line
           x1="59.040001"
           y1="155.50999"
           x2="51.84"
           y2="155.50999"
           style="fill:none;stroke:#000000;stroke-width:0.75;stroke-linecap:round;stroke-linejoin:round;stroke-miterlimit:10"
           id="line79" />
        <text
           transform="rotate(-90,263.945,222.185)"
           text-anchor="middle"
           style="font-size:12px;font-family:Arial;white-space:pre"
           textLength="6.6700001"
           lengthAdjust="spacingAndGlyphs"
           id="text79">0</text>
        <text
           transform="rotate(-90,208.845,167.085)"
           text-anchor="middle"
           style="font-size:12px;font-family:Arial;white-space:pre"
           textLength="40.049999"
           lengthAdjust="spacingAndGlyphs"
           id="text80">500000</text>
        <text
           transform="rotate(-90,153.74,111.98)"
           text-anchor="middle"
           style="font-size:12px;font-family:Arial;white-space:pre"
           textLength="46.720001"
           lengthAdjust="spacingAndGlyphs"
           id="text81">1000000</text>
        <text
           transform="rotate(-90,98.635,56.875)"
           text-anchor="middle"
           style="font-size:12px;font-family:Arial;white-space:pre"
           textLength="46.720001"
           lengthAdjust="spacingAndGlyphs"
           id="text82">1500000</text>
        <polygon
           points="59.04,59.04 59.04,502.56 1121.76,502.56 1121.76,59.04 "
           style="fill:none;stroke:#000000;stroke-width:0.75;stroke-linecap:round;stroke-linejoin:round;stroke-miterlimit:10"
           id="polygon82" />
        <g
           transform="matrix(1.36626 0 0 1.36626 314.786 283.649)"
           ns20:version="1.10.2"
           ns20:texconverter="pdflatex"
           ns20:pdfconverter="inkscape"
           ns20:text="$T^{2}$ Values\nObservations"
           ns20:preamble="/Users/kevin.pineda/Library/Application Support/org.inkscape.Inkscape/config/inkscape/extensions/textext/default_packages.tex"
           ns20:scale="1.0"
           ns20:alignment="middle center"
           ns20:stroke-to-path="0"
           ns20:inkscapeversion="1.3.2"
           id="g1458"
           ns20:jacobian_sqrt="1.36626">
          <defs
             id="id-0d944973-6476-4233-8297-d461376fd210">
            <g
               id="id-cc31c757-8b35-4efc-8695-204171987e51">
              <g
                 id="id-dc2b4b34-5756-4fbb-b129-feed0ae954f0">
                <path
                   d="m 4.25,-6.046875 c 0.078125,-0.28125 0.109375,-0.34375 0.234375,-0.375 0.09375,-0.015625 0.421875,-0.015625 0.625,-0.015625 1.015625,0 1.453125,0.03125 1.453125,0.8125 0,0.15625 -0.03125,0.546875 -0.078125,0.796875 0,0.046875 -0.03125,0.15625 -0.03125,0.1875 0,0.0625 0.03125,0.140625 0.125,0.140625 0.109375,0 0.125,-0.078125 0.15625,-0.234375 L 7,-6.46875 C 7.015625,-6.515625 7.015625,-6.609375 7.015625,-6.640625 7.015625,-6.75 6.921875,-6.75 6.75,-6.75 H 1.21875 c -0.234375,0 -0.25,0.015625 -0.328125,0.203125 l -0.59375,1.75 c 0,0.015625 -0.0625,0.15625 -0.0625,0.1875 0,0.046875 0.0625,0.109375 0.125,0.109375 0.09375,0 0.109375,-0.0625 0.171875,-0.21875 C 1.0625,-6.265625 1.328125,-6.4375 2.796875,-6.4375 H 3.1875 c 0.28125,0 0.28125,0.03125 0.28125,0.125 0,0.046875 -0.03125,0.171875 -0.046875,0.203125 L 2.09375,-0.78125 C 2,-0.421875 1.96875,-0.3125 0.90625,-0.3125 c -0.359375,0 -0.421875,0 -0.421875,0.1875 C 0.484375,0 0.59375,0 0.65625,0 c 0.265625,0 0.546875,-0.015625 0.8125,-0.015625 0.28125,0 0.578125,-0.015625 0.859375,-0.015625 0.28125,0 0.546875,0.015625 0.828125,0.015625 C 3.4375,-0.015625 3.734375,0 4.015625,0 c 0.09375,0 0.21875,0 0.21875,-0.203125 0,-0.109375 -0.078125,-0.109375 -0.34375,-0.109375 -0.234375,0 -0.375,0 -0.625,-0.015625 -0.296875,-0.03125 -0.375,-0.0625 -0.375,-0.21875 0,-0.015625 0,-0.0625 0.046875,-0.203125 z m 0,0"
                   id="id-95ac8082-d3e1-4e62-a8e4-da9473ef15bf" />
              </g>
              <g
                 id="id-dfe74137-7033-4014-9b2d-fe47da4e3f91">
                <path
                   d="M 3.515625,-1.265625 H 3.28125 c -0.015625,0.15625 -0.09375,0.5625 -0.1875,0.625 C 3.046875,-0.59375 2.515625,-0.59375 2.40625,-0.59375 H 1.125 c 0.734375,-0.640625 0.984375,-0.84375 1.390625,-1.171875 0.515625,-0.40625 1,-0.84375 1,-1.5 0,-0.84375 -0.734375,-1.359375 -1.625,-1.359375 -0.859375,0 -1.453125,0.609375 -1.453125,1.25 0,0.34375 0.296875,0.390625 0.375,0.390625 0.15625,0 0.359375,-0.125 0.359375,-0.375 0,-0.125 -0.046875,-0.375 -0.40625,-0.375 C 0.984375,-4.21875 1.453125,-4.375 1.78125,-4.375 c 0.703125,0 1.0625,0.546875 1.0625,1.109375 0,0.609375 -0.4375,1.078125 -0.65625,1.328125 L 0.515625,-0.265625 C 0.4375,-0.203125 0.4375,-0.1875 0.4375,0 h 2.875 z m 0,0"
                   id="id-8cd53691-413b-4f06-b326-9f8357909a95" />
              </g>
              <g
                 id="id-9e765cf9-5321-4727-a7e8-8574b6509664">
                <path
                   d="M 6.1875,-5.828125 C 6.328125,-6.203125 6.59375,-6.484375 7.28125,-6.5 v -0.3125 c -0.3125,0.03125 -0.71875,0.03125 -0.96875,0.03125 -0.296875,0 -0.875,-0.015625 -1.140625,-0.03125 V -6.5 C 5.6875,-6.484375 5.90625,-6.234375 5.90625,-6 c 0,0.078125 -0.03125,0.140625 -0.046875,0.203125 L 4.03125,-1 2.125,-6.03125 C 2.0625,-6.171875 2.0625,-6.1875 2.0625,-6.203125 2.0625,-6.5 2.625,-6.5 2.875,-6.5 v -0.3125 c -0.359375,0.03125 -1.046875,0.03125 -1.421875,0.03125 -0.46875,0 -0.90625,-0.015625 -1.265625,-0.03125 V -6.5 c 0.65625,0 0.84375,0 0.984375,0.375 L 3.484375,0 c 0.0625,0.1875 0.109375,0.21875 0.25,0.21875 0.15625,0 0.1875,-0.046875 0.234375,-0.1875 z m 0,0"
                   id="id-09299126-85db-469e-8932-226a0d553e41" />
              </g>
              <g
                 id="id-fc3251ef-9b7d-48c1-b07e-ea502266b162">
                <path
                   d="m 3.3125,-0.75 c 0.046875,0.390625 0.3125,0.8125 0.78125,0.8125 0.21875,0 0.828125,-0.140625 0.828125,-0.953125 v -0.5625 h -0.25 v 0.5625 c 0,0.578125 -0.25,0.640625 -0.359375,0.640625 -0.328125,0 -0.375,-0.453125 -0.375,-0.5 v -1.984375 c 0,-0.421875 0,-0.8125 -0.359375,-1.1875 C 3.1875,-4.3125 2.6875,-4.46875 2.21875,-4.46875 c -0.828125,0 -1.515625,0.46875 -1.515625,1.125 0,0.296875 0.203125,0.46875 0.46875,0.46875 0.28125,0 0.453125,-0.203125 0.453125,-0.453125 0,-0.125 -0.046875,-0.453125 -0.515625,-0.453125 C 1.390625,-4.140625 1.875,-4.25 2.1875,-4.25 c 0.5,0 1.0625,0.390625 1.0625,1.28125 v 0.359375 c -0.515625,0.03125 -1.203125,0.0625 -1.828125,0.359375 -0.75,0.34375 -1,0.859375 -1,1.296875 0,0.8125 0.96875,1.0625 1.59375,1.0625 0.65625,0 1.109375,-0.40625 1.296875,-0.859375 z M 3.25,-2.390625 v 1 c 0,0.9375 -0.71875,1.28125 -1.171875,1.28125 -0.484375,0 -0.890625,-0.34375 -0.890625,-0.84375 0,-0.546875 0.421875,-1.375 2.0625,-1.4375 z m 0,0"
                   id="id-54724ab0-c866-42e5-b9f1-ecfdf1cae2f2" />
              </g>
              <g
                 id="id-dbee3199-b2be-4937-81e7-c33980a24f14">
                <path
                   d="M 1.765625,-6.921875 0.328125,-6.8125 V -6.5 c 0.703125,0 0.78125,0.0625 0.78125,0.5625 V -0.75 c 0,0.4375 -0.109375,0.4375 -0.78125,0.4375 V 0 C 0.65625,-0.015625 1.1875,-0.03125 1.4375,-0.03125 c 0.25,0 0.734375,0.015625 1.109375,0.03125 v -0.3125 c -0.671875,0 -0.78125,0 -0.78125,-0.4375 z m 0,0"
                   id="id-d8323076-e4af-4db0-ab78-799411f1c393" />
              </g>
              <g
                 id="id-e389629b-b8ff-49dd-8311-43b2887b76e1">
                <path
                   d="M 3.890625,-0.78125 V 0.109375 L 5.328125,0 V -0.3125 C 4.640625,-0.3125 4.5625,-0.375 4.5625,-0.875 v -3.53125 l -1.46875,0.109375 v 0.3125 c 0.6875,0 0.78125,0.0625 0.78125,0.5625 v 1.765625 c 0,0.875 -0.484375,1.546875 -1.21875,1.546875 -0.828125,0 -0.875,-0.46875 -0.875,-0.984375 v -3.3125 L 0.3125,-4.296875 v 0.3125 c 0.78125,0 0.78125,0.03125 0.78125,0.90625 v 1.5 c 0,0.78125 0,1.6875 1.515625,1.6875 0.5625,0 1,-0.28125 1.28125,-0.890625 z m 0,0"
                   id="id-9bf72eeb-51b1-4fdf-8191-38f0a17b7c1d" />
              </g>
              <g
                 id="id-4ecc51d0-35a4-49d4-9f07-6ac4b769ffc1">
                <path
                   d="M 1.109375,-2.515625 C 1.171875,-4 2.015625,-4.25 2.359375,-4.25 c 1.015625,0 1.125,1.34375 1.125,1.734375 z m 0,0.21875 h 2.78125 c 0.21875,0 0.25,0 0.25,-0.21875 0,-0.984375 -0.546875,-1.953125 -1.78125,-1.953125 -1.15625,0 -2.078125,1.03125 -2.078125,2.28125 0,1.328125 1.046875,2.296875 2.1875,2.296875 C 3.6875,0.109375 4.140625,-1 4.140625,-1.1875 4.140625,-1.28125 4.0625,-1.3125 4,-1.3125 c -0.078125,0 -0.109375,0.0625 -0.125,0.140625 -0.34375,1.03125 -1.25,1.03125 -1.34375,1.03125 -0.5,0 -0.890625,-0.296875 -1.125,-0.671875 -0.296875,-0.46875 -0.296875,-1.125 -0.296875,-1.484375 z m 0,0"
                   id="id-d1d6a195-75c4-4330-8180-1784083f8254" />
              </g>
              <g
                 id="id-0e7da60a-afa1-4fe7-b001-8918237bf014">
                <path
                   d="m 2.078125,-1.9375 c 0.21875,0.046875 1.03125,0.203125 1.03125,0.921875 0,0.5 -0.34375,0.90625 -1.125,0.90625 -0.84375,0 -1.203125,-0.5625 -1.390625,-1.421875 C 0.5625,-1.65625 0.5625,-1.6875 0.453125,-1.6875 c -0.125,0 -0.125,0.0625 -0.125,0.234375 V -0.125 c 0,0.171875 0,0.234375 0.109375,0.234375 0.046875,0 0.0625,-0.015625 0.25,-0.203125 0.015625,-0.015625 0.015625,-0.03125 0.203125,-0.21875 0.4375,0.40625 0.890625,0.421875 1.09375,0.421875 1.140625,0 1.609375,-0.671875 1.609375,-1.390625 0,-0.515625 -0.296875,-0.828125 -0.421875,-0.9375 C 2.84375,-2.546875 2.453125,-2.625 2.03125,-2.703125 1.46875,-2.8125 0.8125,-2.9375 0.8125,-3.515625 c 0,-0.359375 0.25,-0.765625 1.109375,-0.765625 1.09375,0 1.15625,0.90625 1.171875,1.203125 0,0.09375 0.09375,0.09375 0.109375,0.09375 0.140625,0 0.140625,-0.046875 0.140625,-0.234375 v -1.015625 c 0,-0.15625 0,-0.234375 -0.109375,-0.234375 -0.046875,0 -0.078125,0 -0.203125,0.125 -0.03125,0.03125 -0.125,0.125 -0.171875,0.15625 -0.375,-0.28125 -0.78125,-0.28125 -0.9375,-0.28125 -1.21875,0 -1.59375,0.671875 -1.59375,1.234375 0,0.34375 0.15625,0.625 0.421875,0.84375 0.328125,0.25 0.609375,0.3125 1.328125,0.453125 z m 0,0"
                   id="id-46021484-61a6-4f09-81fc-e3917da5ea87" />
              </g>
              <g
                 id="id-e68ce383-2046-4c41-a1f2-9ce8fa5becbf">
                <path
                   d="m 7.1875,-3.375 c 0,-2.03125 -1.5,-3.65625 -3.3125,-3.65625 -1.796875,0 -3.3125,1.59375 -3.3125,3.65625 0,2.046875 1.53125,3.59375 3.3125,3.59375 1.8125,0 3.3125,-1.578125 3.3125,-3.59375 z M 3.875,-0.046875 c -0.953125,0 -2.296875,-0.875 -2.296875,-3.46875 0,-2.578125 1.46875,-3.265625 2.296875,-3.265625 0.859375,0 2.28125,0.703125 2.28125,3.265625 0,2.640625 -1.359375,3.46875 -2.28125,3.46875 z m 0,0"
                   id="id-5b087089-78e8-41a7-92a4-6f7bb0987a5c" />
              </g>
              <g
                 id="id-df19afb5-602f-41f5-9ad7-ced016930be7">
                <path
                   d="m 1.71875,-3.765625 v -3.15625 L 0.28125,-6.8125 V -6.5 c 0.703125,0 0.78125,0.0625 0.78125,0.5625 V 0 h 0.25 c 0,-0.015625 0.078125,-0.15625 0.359375,-0.625 0.140625,0.234375 0.5625,0.734375 1.296875,0.734375 1.1875,0 2.21875,-0.984375 2.21875,-2.265625 0,-1.265625 -0.96875,-2.25 -2.109375,-2.25 -0.78125,0 -1.203125,0.46875 -1.359375,0.640625 z m 0.03125,2.625 V -3.1875 c 0,-0.1875 0,-0.203125 0.109375,-0.359375 C 2.25,-4.109375 2.796875,-4.1875 3.03125,-4.1875 c 0.453125,0 0.8125,0.265625 1.046875,0.640625 0.265625,0.40625 0.28125,0.96875 0.28125,1.390625 0,0.359375 -0.015625,0.953125 -0.296875,1.40625 -0.21875,0.3125 -0.59375,0.640625 -1.125,0.640625 -0.453125,0 -0.8125,-0.234375 -1.046875,-0.609375 C 1.75,-0.921875 1.75,-0.953125 1.75,-1.140625 Z m 0,0"
                   id="id-dab9bfef-f072-400a-9c06-109b8515fa11" />
              </g>
              <g
                 id="id-6a69ce24-4751-4c02-b784-28143605c7fa">
                <path
                   d="M 1.671875,-3.3125 V -4.40625 L 0.28125,-4.296875 v 0.3125 c 0.703125,0 0.78125,0.0625 0.78125,0.5625 V -0.75 c 0,0.4375 -0.109375,0.4375 -0.78125,0.4375 V 0 c 0.390625,-0.015625 0.859375,-0.03125 1.140625,-0.03125 0.390625,0 0.859375,0 1.265625,0.03125 V -0.3125 H 2.46875 c -0.734375,0 -0.75,-0.109375 -0.75,-0.46875 V -2.3125 c 0,-0.984375 0.421875,-1.875 1.171875,-1.875 0.0625,0 0.09375,0 0.109375,0.015625 -0.03125,0 -0.234375,0.125 -0.234375,0.390625 0,0.265625 0.21875,0.421875 0.4375,0.421875 0.171875,0 0.421875,-0.125 0.421875,-0.4375 0,-0.3125 -0.3125,-0.609375 -0.734375,-0.609375 -0.734375,0 -1.09375,0.671875 -1.21875,1.09375 z m 0,0"
                   id="id-4b1b5bb6-9d5c-4ac1-aa50-bb8ea3f36be7" />
              </g>
              <g
                 id="id-47b98caa-442e-4151-bcc1-c3a8bb84924e">
                <path
                   d="M 4.140625,-3.3125 C 4.234375,-3.546875 4.40625,-3.984375 5.0625,-3.984375 v -0.3125 c -0.234375,0.015625 -0.515625,0.03125 -0.75,0.03125 -0.234375,0 -0.6875,-0.015625 -0.859375,-0.03125 v 0.3125 c 0.359375,0 0.46875,0.234375 0.46875,0.421875 0,0.09375 -0.015625,0.140625 -0.046875,0.25 L 2.84375,-0.78125 1.734375,-3.5625 c -0.0625,-0.125 -0.0625,-0.140625 -0.0625,-0.171875 0,-0.25 0.390625,-0.25 0.578125,-0.25 v -0.3125 c -0.3125,0.015625 -0.859375,0.03125 -1.09375,0.03125 -0.265625,0 -0.671875,-0.015625 -0.96875,-0.03125 v 0.3125 c 0.625,0 0.671875,0.0625 0.796875,0.359375 l 1.4375,3.546875 C 2.484375,0.0625 2.5,0.109375 2.625,0.109375 c 0.140625,0 0.171875,-0.09375 0.21875,-0.1875 z m 0,0"
                   id="id-22c26c88-e2e6-48d1-a870-c4314ed883ba" />
              </g>
              <g
                 id="id-376fb947-421f-4b61-b869-37f8bde097ee">
                <path
                   d="m 1.71875,-3.984375 h 1.4375 v -0.3125 H 1.71875 V -6.125 h -0.25 c 0,0.8125 -0.296875,1.875 -1.28125,1.921875 v 0.21875 h 0.84375 v 2.75 c 0,1.21875 0.9375,1.34375 1.296875,1.34375 0.703125,0 0.984375,-0.703125 0.984375,-1.34375 v -0.5625 h -0.25 V -1.25 c 0,0.734375 -0.296875,1.109375 -0.671875,1.109375 -0.671875,0 -0.671875,-0.90625 -0.671875,-1.078125 z m 0,0"
                   id="id-62f77cbd-5bcc-43d5-86ad-11b1af60da68" />
              </g>
              <g
                 id="id-577395c9-c725-4365-8b11-4fcc96c26b47">
                <path
                   d="M 1.765625,-4.40625 0.375,-4.296875 v 0.3125 c 0.640625,0 0.734375,0.0625 0.734375,0.546875 V -0.75 c 0,0.4375 -0.109375,0.4375 -0.78125,0.4375 V 0 C 0.640625,-0.015625 1.1875,-0.03125 1.421875,-0.03125 1.78125,-0.03125 2.125,-0.015625 2.46875,0 v -0.3125 c -0.671875,0 -0.703125,-0.046875 -0.703125,-0.4375 z m 0.03125,-1.734375 c 0,-0.3125 -0.234375,-0.53125 -0.515625,-0.53125 -0.3125,0 -0.53125,0.265625 -0.53125,0.53125 0,0.265625 0.21875,0.53125 0.53125,0.53125 0.28125,0 0.515625,-0.21875 0.515625,-0.53125 z m 0,0"
                   id="id-e35283b8-26ad-49f4-a518-e9b75becfc5c" />
              </g>
              <g
                 id="id-a336d1a9-8b53-409e-b649-bb8faec05e0a">
                <path
                   d="M 4.6875,-2.140625 C 4.6875,-3.40625 3.703125,-4.46875 2.5,-4.46875 c -1.25,0 -2.21875,1.09375 -2.21875,2.328125 0,1.296875 1.03125,2.25 2.203125,2.25 1.203125,0 2.203125,-0.984375 2.203125,-2.25 z m -2.1875,2 c -0.4375,0 -0.875,-0.203125 -1.140625,-0.671875 -0.25,-0.4375 -0.25,-1.046875 -0.25,-1.40625 0,-0.390625 0,-0.921875 0.234375,-1.359375 C 1.609375,-4.03125 2.078125,-4.25 2.484375,-4.25 c 0.4375,0 0.859375,0.21875 1.125,0.65625 0.265625,0.421875 0.265625,1 0.265625,1.375 0,0.359375 0,0.90625 -0.21875,1.34375 C 3.421875,-0.421875 2.984375,-0.140625 2.5,-0.140625 Z m 0,0"
                   id="id-1c7ede3c-8e60-4f43-8835-dd6389b65480" />
              </g>
              <g
                 id="id-53a3e1bf-8a51-4ff1-8e7c-b4812381e5b2">
                <path
                   d="M 1.09375,-3.421875 V -0.75 c 0,0.4375 -0.109375,0.4375 -0.78125,0.4375 V 0 c 0.359375,-0.015625 0.859375,-0.03125 1.140625,-0.03125 0.25,0 0.765625,0.015625 1.109375,0.03125 v -0.3125 c -0.671875,0 -0.78125,0 -0.78125,-0.4375 V -2.59375 C 1.78125,-3.625 2.5,-4.1875 3.125,-4.1875 c 0.640625,0 0.75,0.53125 0.75,1.109375 V -0.75 c 0,0.4375 -0.109375,0.4375 -0.78125,0.4375 V 0 c 0.34375,-0.015625 0.859375,-0.03125 1.125,-0.03125 0.25,0 0.78125,0.015625 1.109375,0.03125 v -0.3125 c -0.515625,0 -0.765625,0 -0.765625,-0.296875 v -1.90625 c 0,-0.859375 0,-1.15625 -0.3125,-1.515625 -0.140625,-0.171875 -0.46875,-0.375 -1.046875,-0.375 C 2.46875,-4.40625 2,-3.984375 1.71875,-3.359375 V -4.40625 L 0.3125,-4.296875 v 0.3125 c 0.703125,0 0.78125,0.0625 0.78125,0.5625 z m 0,0"
                   id="id-8eac3218-d3cf-4ebb-89b6-8612bd3f6de1" />
              </g>
            </g>
          </defs>
          <g
             fill="#000000"
             fill-opacity="1"
             id="id-b16fd58b-3d12-423a-acb2-36e4f6f0b886"
             transform="matrix(0,-1.0433556,1.0433556,0,-358.92117,162.50512)">
            <g
               transform="translate(148.712,134.765)"
               id="g7067">
              <path
                 d="m 4.25,-6.046875 c 0.078125,-0.28125 0.109375,-0.34375 0.234375,-0.375 0.09375,-0.015625 0.421875,-0.015625 0.625,-0.015625 1.015625,0 1.453125,0.03125 1.453125,0.8125 0,0.15625 -0.03125,0.546875 -0.078125,0.796875 0,0.046875 -0.03125,0.15625 -0.03125,0.1875 0,0.0625 0.03125,0.140625 0.125,0.140625 0.109375,0 0.125,-0.078125 0.15625,-0.234375 L 7,-6.46875 C 7.015625,-6.515625 7.015625,-6.609375 7.015625,-6.640625 7.015625,-6.75 6.921875,-6.75 6.75,-6.75 H 1.21875 c -0.234375,0 -0.25,0.015625 -0.328125,0.203125 l -0.59375,1.75 c 0,0.015625 -0.0625,0.15625 -0.0625,0.1875 0,0.046875 0.0625,0.109375 0.125,0.109375 0.09375,0 0.109375,-0.0625 0.171875,-0.21875 C 1.0625,-6.265625 1.328125,-6.4375 2.796875,-6.4375 H 3.1875 c 0.28125,0 0.28125,0.03125 0.28125,0.125 0,0.046875 -0.03125,0.171875 -0.046875,0.203125 L 2.09375,-0.78125 C 2,-0.421875 1.96875,-0.3125 0.90625,-0.3125 c -0.359375,0 -0.421875,0 -0.421875,0.1875 C 0.484375,0 0.59375,0 0.65625,0 c 0.265625,0 0.546875,-0.015625 0.8125,-0.015625 0.28125,0 0.578125,-0.015625 0.859375,-0.015625 0.28125,0 0.546875,0.015625 0.828125,0.015625 C 3.4375,-0.015625 3.734375,0 4.015625,0 c 0.09375,0 0.21875,0 0.21875,-0.203125 0,-0.109375 -0.078125,-0.109375 -0.34375,-0.109375 -0.234375,0 -0.375,0 -0.625,-0.015625 -0.296875,-0.03125 -0.375,-0.0625 -0.375,-0.21875 0,-0.015625 0,-0.0625 0.046875,-0.203125 z m 0,0"
                 id="id-3426e22d-37a5-4440-8f9f-93ec9e0de10c" />
            </g>
          </g>
          <g
             fill="#000000"
             fill-opacity="1"
             id="id-3985e1f5-af38-487c-9ab6-120c6e7f8acc"
             transform="matrix(0,-1.0433556,1.0433556,0,-358.92117,162.50512)">
            <g
               transform="translate(155.918,131.149)"
               id="g8063">
              <path
                 d="M 3.515625,-1.265625 H 3.28125 c -0.015625,0.15625 -0.09375,0.5625 -0.1875,0.625 C 3.046875,-0.59375 2.515625,-0.59375 2.40625,-0.59375 H 1.125 c 0.734375,-0.640625 0.984375,-0.84375 1.390625,-1.171875 0.515625,-0.40625 1,-0.84375 1,-1.5 0,-0.84375 -0.734375,-1.359375 -1.625,-1.359375 -0.859375,0 -1.453125,0.609375 -1.453125,1.25 0,0.34375 0.296875,0.390625 0.375,0.390625 0.15625,0 0.359375,-0.125 0.359375,-0.375 0,-0.125 -0.046875,-0.375 -0.40625,-0.375 C 0.984375,-4.21875 1.453125,-4.375 1.78125,-4.375 c 0.703125,0 1.0625,0.546875 1.0625,1.109375 0,0.609375 -0.4375,1.078125 -0.65625,1.328125 L 0.515625,-0.265625 C 0.4375,-0.203125 0.4375,-0.1875 0.4375,0 h 2.875 z m 0,0"
                 id="id-a42df322-762f-4a22-9741-58dfdb098efe" />
            </g>
          </g>
          <g
             fill="#000000"
             fill-opacity="1"
             id="id-f8d0fa74-73cc-4606-915c-708a87b332aa"
             transform="matrix(0,-1.0433556,1.0433556,0,-358.92117,162.50512)">
            <g
               transform="translate(163.708,134.765)"
               id="g5451">
              <path
                 d="M 6.1875,-5.828125 C 6.328125,-6.203125 6.59375,-6.484375 7.28125,-6.5 v -0.3125 c -0.3125,0.03125 -0.71875,0.03125 -0.96875,0.03125 -0.296875,0 -0.875,-0.015625 -1.140625,-0.03125 V -6.5 C 5.6875,-6.484375 5.90625,-6.234375 5.90625,-6 c 0,0.078125 -0.03125,0.140625 -0.046875,0.203125 L 4.03125,-1 2.125,-6.03125 C 2.0625,-6.171875 2.0625,-6.1875 2.0625,-6.203125 2.0625,-6.5 2.625,-6.5 2.875,-6.5 v -0.3125 c -0.359375,0.03125 -1.046875,0.03125 -1.421875,0.03125 -0.46875,0 -0.90625,-0.015625 -1.265625,-0.03125 V -6.5 c 0.65625,0 0.84375,0 0.984375,0.375 L 3.484375,0 c 0.0625,0.1875 0.109375,0.21875 0.25,0.21875 0.15625,0 0.1875,-0.046875 0.234375,-0.1875 z m 0,0"
                 id="id-1c96eea2-e8ad-4848-8b48-f1e1aa9e856c" />
            </g>
          </g>
          <g
             fill="#000000"
             fill-opacity="1"
             id="id-de42cbbb-cff3-4922-a144-e2cac0b73796"
             transform="matrix(0,-1.0433556,1.0433556,0,-358.92117,162.50512)">
            <g
               transform="translate(170.353,134.765)"
               id="g2944">
              <path
                 d="m 3.3125,-0.75 c 0.046875,0.390625 0.3125,0.8125 0.78125,0.8125 0.21875,0 0.828125,-0.140625 0.828125,-0.953125 v -0.5625 h -0.25 v 0.5625 c 0,0.578125 -0.25,0.640625 -0.359375,0.640625 -0.328125,0 -0.375,-0.453125 -0.375,-0.5 v -1.984375 c 0,-0.421875 0,-0.8125 -0.359375,-1.1875 C 3.1875,-4.3125 2.6875,-4.46875 2.21875,-4.46875 c -0.828125,0 -1.515625,0.46875 -1.515625,1.125 0,0.296875 0.203125,0.46875 0.46875,0.46875 0.28125,0 0.453125,-0.203125 0.453125,-0.453125 0,-0.125 -0.046875,-0.453125 -0.515625,-0.453125 C 1.390625,-4.140625 1.875,-4.25 2.1875,-4.25 c 0.5,0 1.0625,0.390625 1.0625,1.28125 v 0.359375 c -0.515625,0.03125 -1.203125,0.0625 -1.828125,0.359375 -0.75,0.34375 -1,0.859375 -1,1.296875 0,0.8125 0.96875,1.0625 1.59375,1.0625 0.65625,0 1.109375,-0.40625 1.296875,-0.859375 z M 3.25,-2.390625 v 1 c 0,0.9375 -0.71875,1.28125 -1.171875,1.28125 -0.484375,0 -0.890625,-0.34375 -0.890625,-0.84375 0,-0.546875 0.421875,-1.375 2.0625,-1.4375 z m 0,0"
                 id="id-127e3f82-b18e-4233-9148-ad62f49d3895" />
            </g>
            <g
               transform="translate(175.334,134.765)"
               id="g3564">
              <path
                 d="M 1.765625,-6.921875 0.328125,-6.8125 V -6.5 c 0.703125,0 0.78125,0.0625 0.78125,0.5625 V -0.75 c 0,0.4375 -0.109375,0.4375 -0.78125,0.4375 V 0 C 0.65625,-0.015625 1.1875,-0.03125 1.4375,-0.03125 c 0.25,0 0.734375,0.015625 1.109375,0.03125 v -0.3125 c -0.671875,0 -0.78125,0 -0.78125,-0.4375 z m 0,0"
                 id="id-14ebeae7-9c13-4bdb-bf0e-ea30f4398cce" />
            </g>
            <g
               transform="translate(178.102,134.765)"
               id="g8312">
              <path
                 d="M 3.890625,-0.78125 V 0.109375 L 5.328125,0 V -0.3125 C 4.640625,-0.3125 4.5625,-0.375 4.5625,-0.875 v -3.53125 l -1.46875,0.109375 v 0.3125 c 0.6875,0 0.78125,0.0625 0.78125,0.5625 v 1.765625 c 0,0.875 -0.484375,1.546875 -1.21875,1.546875 -0.828125,0 -0.875,-0.46875 -0.875,-0.984375 v -3.3125 L 0.3125,-4.296875 v 0.3125 c 0.78125,0 0.78125,0.03125 0.78125,0.90625 v 1.5 c 0,0.78125 0,1.6875 1.515625,1.6875 0.5625,0 1,-0.28125 1.28125,-0.890625 z m 0,0"
                 id="id-6bd7d2e2-5124-4a0d-bda3-6dcf126a9f25" />
            </g>
            <g
               transform="translate(183.637,134.765)"
               id="g5051">
              <path
                 d="M 1.109375,-2.515625 C 1.171875,-4 2.015625,-4.25 2.359375,-4.25 c 1.015625,0 1.125,1.34375 1.125,1.734375 z m 0,0.21875 h 2.78125 c 0.21875,0 0.25,0 0.25,-0.21875 0,-0.984375 -0.546875,-1.953125 -1.78125,-1.953125 -1.15625,0 -2.078125,1.03125 -2.078125,2.28125 0,1.328125 1.046875,2.296875 2.1875,2.296875 C 3.6875,0.109375 4.140625,-1 4.140625,-1.1875 4.140625,-1.28125 4.0625,-1.3125 4,-1.3125 c -0.078125,0 -0.109375,0.0625 -0.125,0.140625 -0.34375,1.03125 -1.25,1.03125 -1.34375,1.03125 -0.5,0 -0.890625,-0.296875 -1.125,-0.671875 -0.296875,-0.46875 -0.296875,-1.125 -0.296875,-1.484375 z m 0,0"
                 id="id-9f5d249b-5fd5-4dc7-a850-857ea19ba892" />
            </g>
            <g
               transform="translate(188.065,134.765)"
               id="g4354">
              <path
                 d="m 2.078125,-1.9375 c 0.21875,0.046875 1.03125,0.203125 1.03125,0.921875 0,0.5 -0.34375,0.90625 -1.125,0.90625 -0.84375,0 -1.203125,-0.5625 -1.390625,-1.421875 C 0.5625,-1.65625 0.5625,-1.6875 0.453125,-1.6875 c -0.125,0 -0.125,0.0625 -0.125,0.234375 V -0.125 c 0,0.171875 0,0.234375 0.109375,0.234375 0.046875,0 0.0625,-0.015625 0.25,-0.203125 0.015625,-0.015625 0.015625,-0.03125 0.203125,-0.21875 0.4375,0.40625 0.890625,0.421875 1.09375,0.421875 1.140625,0 1.609375,-0.671875 1.609375,-1.390625 0,-0.515625 -0.296875,-0.828125 -0.421875,-0.9375 C 2.84375,-2.546875 2.453125,-2.625 2.03125,-2.703125 1.46875,-2.8125 0.8125,-2.9375 0.8125,-3.515625 c 0,-0.359375 0.25,-0.765625 1.109375,-0.765625 1.09375,0 1.15625,0.90625 1.171875,1.203125 0,0.09375 0.09375,0.09375 0.109375,0.09375 0.140625,0 0.140625,-0.046875 0.140625,-0.234375 v -1.015625 c 0,-0.15625 0,-0.234375 -0.109375,-0.234375 -0.046875,0 -0.078125,0 -0.203125,0.125 -0.03125,0.03125 -0.125,0.125 -0.171875,0.15625 -0.375,-0.28125 -0.78125,-0.28125 -0.9375,-0.28125 -1.21875,0 -1.59375,0.671875 -1.59375,1.234375 0,0.34375 0.15625,0.625 0.421875,0.84375 0.328125,0.25 0.609375,0.3125 1.328125,0.453125 z m 0,0"
                 id="id-e65d38ed-d57b-4ce9-8b37-77c97da3548c" />
            </g>
          </g>
          <g
             fill="#000000"
             fill-opacity="1"
             id="id-afae4533-cbb3-40ae-a52a-17614f08892b"
             transform="matrix(1.0433556,0,0,1.0433556,-155.40366,-132.3763)" />
          <g
             id="g2"
             transform="matrix(1.0433556,0,0,1.0433556,119.80209,189.68966)">
            <g
               transform="translate(46.365001,8.2409982)"
               id="g5185">
              <path
                 d="m 7.1875,-3.375 c 0,-2.03125 -1.5,-3.65625 -3.3125,-3.65625 -1.796875,0 -3.3125,1.59375 -3.3125,3.65625 0,2.046875 1.53125,3.59375 3.3125,3.59375 1.8125,0 3.3125,-1.578125 3.3125,-3.59375 z M 3.875,-0.046875 c -0.953125,0 -2.296875,-0.875 -2.296875,-3.46875 0,-2.578125 1.46875,-3.265625 2.296875,-3.265625 0.859375,0 2.28125,0.703125 2.28125,3.265625 0,2.640625 -1.359375,3.46875 -2.28125,3.46875 z m 0,0"
                 id="id-ac301395-4a38-496e-9301-4268118062fd" />
            </g>
            <g
               transform="translate(54.114002,8.2409982)"
               id="g9983">
              <path
                 d="m 1.71875,-3.765625 v -3.15625 L 0.28125,-6.8125 V -6.5 c 0.703125,0 0.78125,0.0625 0.78125,0.5625 V 0 h 0.25 c 0,-0.015625 0.078125,-0.15625 0.359375,-0.625 0.140625,0.234375 0.5625,0.734375 1.296875,0.734375 1.1875,0 2.21875,-0.984375 2.21875,-2.265625 0,-1.265625 -0.96875,-2.25 -2.109375,-2.25 -0.78125,0 -1.203125,0.46875 -1.359375,0.640625 z m 0.03125,2.625 V -3.1875 c 0,-0.1875 0,-0.203125 0.109375,-0.359375 C 2.25,-4.109375 2.796875,-4.1875 3.03125,-4.1875 c 0.453125,0 0.8125,0.265625 1.046875,0.640625 0.265625,0.40625 0.28125,0.96875 0.28125,1.390625 0,0.359375 -0.015625,0.953125 -0.296875,1.40625 -0.21875,0.3125 -0.59375,0.640625 -1.125,0.640625 -0.453125,0 -0.8125,-0.234375 -1.046875,-0.609375 C 1.75,-0.921875 1.75,-0.953125 1.75,-1.140625 Z m 0,0"
                 id="id-0e589f3c-770b-42ce-8dd1-b0599a2628ce" />
            </g>
            <g
               transform="translate(59.648998,8.2409982)"
               id="g5041">
              <path
                 d="m 2.078125,-1.9375 c 0.21875,0.046875 1.03125,0.203125 1.03125,0.921875 0,0.5 -0.34375,0.90625 -1.125,0.90625 -0.84375,0 -1.203125,-0.5625 -1.390625,-1.421875 C 0.5625,-1.65625 0.5625,-1.6875 0.453125,-1.6875 c -0.125,0 -0.125,0.0625 -0.125,0.234375 V -0.125 c 0,0.171875 0,0.234375 0.109375,0.234375 0.046875,0 0.0625,-0.015625 0.25,-0.203125 0.015625,-0.015625 0.015625,-0.03125 0.203125,-0.21875 0.4375,0.40625 0.890625,0.421875 1.09375,0.421875 1.140625,0 1.609375,-0.671875 1.609375,-1.390625 0,-0.515625 -0.296875,-0.828125 -0.421875,-0.9375 C 2.84375,-2.546875 2.453125,-2.625 2.03125,-2.703125 1.46875,-2.8125 0.8125,-2.9375 0.8125,-3.515625 c 0,-0.359375 0.25,-0.765625 1.109375,-0.765625 1.09375,0 1.15625,0.90625 1.171875,1.203125 0,0.09375 0.09375,0.09375 0.109375,0.09375 0.140625,0 0.140625,-0.046875 0.140625,-0.234375 v -1.015625 c 0,-0.15625 0,-0.234375 -0.109375,-0.234375 -0.046875,0 -0.078125,0 -0.203125,0.125 -0.03125,0.03125 -0.125,0.125 -0.171875,0.15625 -0.375,-0.28125 -0.78125,-0.28125 -0.9375,-0.28125 -1.21875,0 -1.59375,0.671875 -1.59375,1.234375 0,0.34375 0.15625,0.625 0.421875,0.84375 0.328125,0.25 0.609375,0.3125 1.328125,0.453125 z m 0,0"
                 id="id-99003f33-ac00-4ade-839b-de6672f8d722" />
            </g>
            <g
               transform="translate(63.579002,8.2409982)"
               id="g476">
              <path
                 d="M 1.109375,-2.515625 C 1.171875,-4 2.015625,-4.25 2.359375,-4.25 c 1.015625,0 1.125,1.34375 1.125,1.734375 z m 0,0.21875 h 2.78125 c 0.21875,0 0.25,0 0.25,-0.21875 0,-0.984375 -0.546875,-1.953125 -1.78125,-1.953125 -1.15625,0 -2.078125,1.03125 -2.078125,2.28125 0,1.328125 1.046875,2.296875 2.1875,2.296875 C 3.6875,0.109375 4.140625,-1 4.140625,-1.1875 4.140625,-1.28125 4.0625,-1.3125 4,-1.3125 c -0.078125,0 -0.109375,0.0625 -0.125,0.140625 -0.34375,1.03125 -1.25,1.03125 -1.34375,1.03125 -0.5,0 -0.890625,-0.296875 -1.125,-0.671875 -0.296875,-0.46875 -0.296875,-1.125 -0.296875,-1.484375 z m 0,0"
                 id="id-f4b05308-8668-488a-bcd4-14aa13361383" />
            </g>
            <g
               transform="translate(68.006001,8.2409982)"
               id="g6204">
              <path
                 d="M 1.671875,-3.3125 V -4.40625 L 0.28125,-4.296875 v 0.3125 c 0.703125,0 0.78125,0.0625 0.78125,0.5625 V -0.75 c 0,0.4375 -0.109375,0.4375 -0.78125,0.4375 V 0 c 0.390625,-0.015625 0.859375,-0.03125 1.140625,-0.03125 0.390625,0 0.859375,0 1.265625,0.03125 V -0.3125 H 2.46875 c -0.734375,0 -0.75,-0.109375 -0.75,-0.46875 V -2.3125 c 0,-0.984375 0.421875,-1.875 1.171875,-1.875 0.0625,0 0.09375,0 0.109375,0.015625 -0.03125,0 -0.234375,0.125 -0.234375,0.390625 0,0.265625 0.21875,0.421875 0.4375,0.421875 0.171875,0 0.421875,-0.125 0.421875,-0.4375 0,-0.3125 -0.3125,-0.609375 -0.734375,-0.609375 -0.734375,0 -1.09375,0.671875 -1.21875,1.09375 z m 0,0"
                 id="id-89e22613-b10d-47af-a720-45adf15ca418" />
            </g>
            <g
               transform="translate(71.908,8.2409982)"
               id="g1436">
              <path
                 d="M 4.140625,-3.3125 C 4.234375,-3.546875 4.40625,-3.984375 5.0625,-3.984375 v -0.3125 c -0.234375,0.015625 -0.515625,0.03125 -0.75,0.03125 -0.234375,0 -0.6875,-0.015625 -0.859375,-0.03125 v 0.3125 c 0.359375,0 0.46875,0.234375 0.46875,0.421875 0,0.09375 -0.015625,0.140625 -0.046875,0.25 L 2.84375,-0.78125 1.734375,-3.5625 c -0.0625,-0.125 -0.0625,-0.140625 -0.0625,-0.171875 0,-0.25 0.390625,-0.25 0.578125,-0.25 v -0.3125 c -0.3125,0.015625 -0.859375,0.03125 -1.09375,0.03125 -0.265625,0 -0.671875,-0.015625 -0.96875,-0.03125 v 0.3125 c 0.625,0 0.671875,0.0625 0.796875,0.359375 l 1.4375,3.546875 C 2.484375,0.0625 2.5,0.109375 2.625,0.109375 c 0.140625,0 0.171875,-0.09375 0.21875,-0.1875 z m 0,0"
                 id="id-434766aa-956a-4473-a730-53b51e14a7d6" />
            </g>
            <g
               fill="#000000"
               fill-opacity="1"
               id="id-26e70b00-0c10-40d6-ab93-6e3da6432a61"
               transform="translate(-148.946,-126.524)">
              <g
                 transform="translate(225.555,134.765)"
                 id="g9512">
                <path
                   d="m 3.3125,-0.75 c 0.046875,0.390625 0.3125,0.8125 0.78125,0.8125 0.21875,0 0.828125,-0.140625 0.828125,-0.953125 v -0.5625 h -0.25 v 0.5625 c 0,0.578125 -0.25,0.640625 -0.359375,0.640625 -0.328125,0 -0.375,-0.453125 -0.375,-0.5 v -1.984375 c 0,-0.421875 0,-0.8125 -0.359375,-1.1875 C 3.1875,-4.3125 2.6875,-4.46875 2.21875,-4.46875 c -0.828125,0 -1.515625,0.46875 -1.515625,1.125 0,0.296875 0.203125,0.46875 0.46875,0.46875 0.28125,0 0.453125,-0.203125 0.453125,-0.453125 0,-0.125 -0.046875,-0.453125 -0.515625,-0.453125 C 1.390625,-4.140625 1.875,-4.25 2.1875,-4.25 c 0.5,0 1.0625,0.390625 1.0625,1.28125 v 0.359375 c -0.515625,0.03125 -1.203125,0.0625 -1.828125,0.359375 -0.75,0.34375 -1,0.859375 -1,1.296875 0,0.8125 0.96875,1.0625 1.59375,1.0625 0.65625,0 1.109375,-0.40625 1.296875,-0.859375 z M 3.25,-2.390625 v 1 c 0,0.9375 -0.71875,1.28125 -1.171875,1.28125 -0.484375,0 -0.890625,-0.34375 -0.890625,-0.84375 0,-0.546875 0.421875,-1.375 2.0625,-1.4375 z m 0,0"
                   id="id-a9e63e90-807e-43f3-b848-b2f892111569" />
              </g>
              <g
                 transform="translate(230.536,134.765)"
                 id="g2471">
                <path
                   d="m 1.71875,-3.984375 h 1.4375 v -0.3125 H 1.71875 V -6.125 h -0.25 c 0,0.8125 -0.296875,1.875 -1.28125,1.921875 v 0.21875 h 0.84375 v 2.75 c 0,1.21875 0.9375,1.34375 1.296875,1.34375 0.703125,0 0.984375,-0.703125 0.984375,-1.34375 v -0.5625 h -0.25 V -1.25 c 0,0.734375 -0.296875,1.109375 -0.671875,1.109375 -0.671875,0 -0.671875,-0.90625 -0.671875,-1.078125 z m 0,0"
                   id="id-d39b6ded-13a9-48f1-91b1-af24715cef30" />
              </g>
              <g
                 transform="translate(234.411,134.765)"
                 id="g5441">
                <path
                   d="M 1.765625,-4.40625 0.375,-4.296875 v 0.3125 c 0.640625,0 0.734375,0.0625 0.734375,0.546875 V -0.75 c 0,0.4375 -0.109375,0.4375 -0.78125,0.4375 V 0 C 0.640625,-0.015625 1.1875,-0.03125 1.421875,-0.03125 1.78125,-0.03125 2.125,-0.015625 2.46875,0 v -0.3125 c -0.671875,0 -0.703125,-0.046875 -0.703125,-0.4375 z m 0.03125,-1.734375 c 0,-0.3125 -0.234375,-0.53125 -0.515625,-0.53125 -0.3125,0 -0.53125,0.265625 -0.53125,0.53125 0,0.265625 0.21875,0.53125 0.53125,0.53125 0.28125,0 0.515625,-0.21875 0.515625,-0.53125 z m 0,0"
                   id="id-cd89ea8f-addd-475d-9dd3-f15c9b1a71ac" />
              </g>
              <g
                 transform="translate(237.178,134.765)"
                 id="g7095">
                <path
                   d="M 4.6875,-2.140625 C 4.6875,-3.40625 3.703125,-4.46875 2.5,-4.46875 c -1.25,0 -2.21875,1.09375 -2.21875,2.328125 0,1.296875 1.03125,2.25 2.203125,2.25 1.203125,0 2.203125,-0.984375 2.203125,-2.25 z m -2.1875,2 c -0.4375,0 -0.875,-0.203125 -1.140625,-0.671875 -0.25,-0.4375 -0.25,-1.046875 -0.25,-1.40625 0,-0.390625 0,-0.921875 0.234375,-1.359375 C 1.609375,-4.03125 2.078125,-4.25 2.484375,-4.25 c 0.4375,0 0.859375,0.21875 1.125,0.65625 0.265625,0.421875 0.265625,1 0.265625,1.375 0,0.359375 0,0.90625 -0.21875,1.34375 C 3.421875,-0.421875 2.984375,-0.140625 2.5,-0.140625 Z m 0,0"
                   id="id-00ba0f88-72e3-45f0-8465-33d46517d92f" />
              </g>
              <g
                 transform="translate(242.159,134.765)"
                 id="g328">
                <path
                   d="M 1.09375,-3.421875 V -0.75 c 0,0.4375 -0.109375,0.4375 -0.78125,0.4375 V 0 c 0.359375,-0.015625 0.859375,-0.03125 1.140625,-0.03125 0.25,0 0.765625,0.015625 1.109375,0.03125 v -0.3125 c -0.671875,0 -0.78125,0 -0.78125,-0.4375 V -2.59375 C 1.78125,-3.625 2.5,-4.1875 3.125,-4.1875 c 0.640625,0 0.75,0.53125 0.75,1.109375 V -0.75 c 0,0.4375 -0.109375,0.4375 -0.78125,0.4375 V 0 c 0.34375,-0.015625 0.859375,-0.03125 1.125,-0.03125 0.25,0 0.78125,0.015625 1.109375,0.03125 v -0.3125 c -0.515625,0 -0.765625,0 -0.765625,-0.296875 v -1.90625 c 0,-0.859375 0,-1.15625 -0.3125,-1.515625 -0.140625,-0.171875 -0.46875,-0.375 -1.046875,-0.375 C 2.46875,-4.40625 2,-3.984375 1.71875,-3.359375 V -4.40625 L 0.3125,-4.296875 v 0.3125 c 0.703125,0 0.78125,0.0625 0.78125,0.5625 z m 0,0"
                   id="id-70a12ba4-2722-43f8-b97f-f526a7079ce2" />
              </g>
              <g
                 transform="translate(247.695,134.765)"
                 id="g8390">
                <path
                   d="m 2.078125,-1.9375 c 0.21875,0.046875 1.03125,0.203125 1.03125,0.921875 0,0.5 -0.34375,0.90625 -1.125,0.90625 -0.84375,0 -1.203125,-0.5625 -1.390625,-1.421875 C 0.5625,-1.65625 0.5625,-1.6875 0.453125,-1.6875 c -0.125,0 -0.125,0.0625 -0.125,0.234375 V -0.125 c 0,0.171875 0,0.234375 0.109375,0.234375 0.046875,0 0.0625,-0.015625 0.25,-0.203125 0.015625,-0.015625 0.015625,-0.03125 0.203125,-0.21875 0.4375,0.40625 0.890625,0.421875 1.09375,0.421875 1.140625,0 1.609375,-0.671875 1.609375,-1.390625 0,-0.515625 -0.296875,-0.828125 -0.421875,-0.9375 C 2.84375,-2.546875 2.453125,-2.625 2.03125,-2.703125 1.46875,-2.8125 0.8125,-2.9375 0.8125,-3.515625 c 0,-0.359375 0.25,-0.765625 1.109375,-0.765625 1.09375,0 1.15625,0.90625 1.171875,1.203125 0,0.09375 0.09375,0.09375 0.109375,0.09375 0.140625,0 0.140625,-0.046875 0.140625,-0.234375 v -1.015625 c 0,-0.15625 0,-0.234375 -0.109375,-0.234375 -0.046875,0 -0.078125,0 -0.203125,0.125 -0.03125,0.03125 -0.125,0.125 -0.171875,0.15625 -0.375,-0.28125 -0.78125,-0.28125 -0.9375,-0.28125 -1.21875,0 -1.59375,0.671875 -1.59375,1.234375 0,0.34375 0.15625,0.625 0.421875,0.84375 0.328125,0.25 0.609375,0.3125 1.328125,0.453125 z m 0,0"
                   id="id-b894e2ce-253e-4a82-8094-6e86c6990272" />
              </g>
            </g>
          </g>
        </g>
      </g>
      <text
         x="98.400002"
         y="489.95999"
         text-anchor="middle"
         style="font-weight:bold;font-size:10.8px;font-family:Arial;white-space:pre"
         textLength="6"
         lengthAdjust="spacingAndGlyphs"
         id="text85"
         transform="matrix(0.17015535,0,0,0.17015535,33.633382,-20.444449)">1</text>
      <text
         x="115.08"
         y="489.97"
         text-anchor="middle"
         style="font-weight:bold;font-size:10.8px;font-family:Arial;white-space:pre"
         textLength="6"
         lengthAdjust="spacingAndGlyphs"
         id="text86"
         transform="matrix(0.17015535,0,0,0.17015535,34.226655,-20.594471)">2</text>
      <text
         x="131.75999"
         y="489.87"
         text-anchor="middle"
         style="font-weight:bold;font-size:10.8px;font-family:Arial;white-space:pre"
         textLength="6"
         lengthAdjust="spacingAndGlyphs"
         id="text87"
         transform="matrix(0.17015535,0,0,0.17015535,34.819929,-20.366193)">3</text>
      <text
         x="148.42999"
         y="489.92999"
         text-anchor="middle"
         style="font-weight:bold;font-size:10.8px;font-family:Arial;white-space:pre"
         textLength="6"
         lengthAdjust="spacingAndGlyphs"
         id="text88"
         transform="matrix(0.17015535,0,0,0.17015535,35.413202,-20.142708)">4</text>
      <text
         x="165.11"
         y="489.79999"
         text-anchor="middle"
         style="font-weight:bold;font-size:10.8px;font-family:Arial;white-space:pre"
         textLength="6"
         lengthAdjust="spacingAndGlyphs"
         id="text89"
         transform="matrix(0.17015535,0,0,0.17015535,36.043555,-20.291787)">5</text>
      <text
         x="181.78999"
         y="489.89001"
         text-anchor="middle"
         style="font-weight:bold;font-size:10.8px;font-family:Arial;white-space:pre"
         textLength="6"
         lengthAdjust="spacingAndGlyphs"
         id="text90"
         transform="matrix(0.17015535,0,0,0.17015535,36.636829,-20.184201)">6</text>
      <text
         x="198.47"
         y="489.89999"
         text-anchor="middle"
         style="font-weight:bold;font-size:10.8px;font-family:Arial;white-space:pre"
         textLength="6"
         lengthAdjust="spacingAndGlyphs"
         id="text91"
         transform="matrix(0.17015535,0,0,0.17015535,37.341341,64.318041)">7</text>
      <text
         x="215.14999"
         y="489.87"
         text-anchor="middle"
         style="font-weight:bold;font-size:10.8px;font-family:Arial;white-space:pre"
         textLength="6"
         lengthAdjust="spacingAndGlyphs"
         id="text92"
         transform="matrix(0.17015535,0,0,0.17015535,37.934615,64.286067)">8</text>
      <text
         x="231.82001"
         y="489.88"
         text-anchor="middle"
         style="font-weight:bold;font-size:10.8px;font-family:Arial;white-space:pre"
         textLength="6"
         lengthAdjust="spacingAndGlyphs"
         id="text93"
         transform="matrix(0.17015535,0,0,0.17015535,38.527888,64.284363)">9</text>
      <text
         x="248.5"
         y="489.89001"
         text-anchor="middle"
         style="font-weight:bold;font-size:10.8px;font-family:Arial;white-space:pre"
         textLength="12.01"
         lengthAdjust="spacingAndGlyphs"
         id="text94"
         transform="matrix(0.17015535,0,0,0.17015535,39.047003,64.320188)">10</text>
      <text
         x="265.17999"
         y="489.95999"
         text-anchor="middle"
         style="font-weight:bold;font-size:10.8px;font-family:Arial;white-space:pre"
         textLength="12.01"
         lengthAdjust="spacingAndGlyphs"
         id="text95"
         transform="matrix(0.17015535,0,0,0.17015535,39.751515,64.245339)">11</text>
      <text
         x="281.85999"
         y="489.97"
         text-anchor="middle"
         style="font-weight:bold;font-size:10.8px;font-family:Arial;white-space:pre"
         textLength="12.01"
         lengthAdjust="spacingAndGlyphs"
         id="text96"
         transform="matrix(0.17015535,0,0,0.17015535,40.344788,64.206556)">12</text>
      <text
         x="298.54001"
         y="489.88"
         text-anchor="middle"
         style="font-weight:bold;font-size:10.8px;font-family:Arial;white-space:pre"
         textLength="12.01"
         lengthAdjust="spacingAndGlyphs"
         id="text97"
         transform="matrix(0.17015535,0,0,0.17015535,40.900982,64.284812)">13</text>
      <text
         x="315.20999"
         y="489.95001"
         text-anchor="middle"
         style="font-weight:bold;font-size:10.8px;font-family:Arial;white-space:pre"
         textLength="12.01"
         lengthAdjust="spacingAndGlyphs"
         id="text98"
         transform="matrix(0.17015535,0,0,0.17015535,41.531335,64.284116)">14</text>
      <text
         x="331.89001"
         y="489.85001"
         text-anchor="middle"
         style="font-weight:bold;font-size:10.8px;font-family:Arial;white-space:pre"
         textLength="12.01"
         lengthAdjust="spacingAndGlyphs"
         id="text99"
         transform="matrix(0.17015535,0,0,0.17015535,42.161688,64.289917)">15</text>
      <text
         x="348.57001"
         y="489.89001"
         text-anchor="middle"
         style="font-weight:bold;font-size:10.8px;font-family:Arial;white-space:pre"
         textLength="12.01"
         lengthAdjust="spacingAndGlyphs"
         id="text100"
         transform="matrix(0.17015535,0,0,0.17015535,42.717882,64.283109)">16</text>
      <text
         x="365.25"
         y="489.95999"
         text-anchor="middle"
         style="font-weight:bold;font-size:10.8px;font-family:Arial;white-space:pre"
         textLength="12.01"
         lengthAdjust="spacingAndGlyphs"
         id="text101"
         transform="matrix(0.17015535,0,0,0.17015535,43.385315,64.282418)">17</text>
      <text
         x="381.92999"
         y="489.87"
         text-anchor="middle"
         style="font-weight:bold;font-size:10.8px;font-family:Arial;white-space:pre"
         textLength="12.01"
         lengthAdjust="spacingAndGlyphs"
         id="text102"
         transform="matrix(0.17015535,0,0,0.17015535,43.941509,64.286067)">18</text>
      <text
         x="398.60001"
         y="489.88"
         text-anchor="middle"
         style="font-weight:bold;font-size:10.8px;font-family:Arial;white-space:pre"
         textLength="12.01"
         lengthAdjust="spacingAndGlyphs"
         id="text103"
         transform="matrix(0.17015535,0,0,0.17015535,44.571862,64.284363)">19</text>
      <text
         x="415.28"
         y="489.89001"
         text-anchor="middle"
         style="font-weight:bold;font-size:10.8px;font-family:Arial;white-space:pre"
         textLength="12.01"
         lengthAdjust="spacingAndGlyphs"
         id="text104"
         transform="matrix(0.17015535,0,0,0.17015535,45.239296,64.283109)">20</text>
      <text
         x="431.95999"
         y="489.97"
         text-anchor="middle"
         style="font-weight:bold;font-size:10.8px;font-family:Arial;white-space:pre"
         textLength="12.01"
         lengthAdjust="spacingAndGlyphs"
         id="text105"
         transform="matrix(0.17015535,0,0,0.17015535,45.943808,64.280715)">21</text>
      <text
         x="448.64001"
         y="489.97"
         text-anchor="middle"
         style="font-weight:bold;font-size:10.8px;font-family:Arial;white-space:pre"
         textLength="12.01"
         lengthAdjust="spacingAndGlyphs"
         id="text106"
         transform="matrix(0.17015535,0,0,0.17015535,46.500002,64.280715)">22</text>
      <text
         x="465.32001"
         y="489.88"
         text-anchor="middle"
         style="font-weight:bold;font-size:10.8px;font-family:Arial;white-space:pre"
         textLength="12.01"
         lengthAdjust="spacingAndGlyphs"
         id="text107"
         transform="matrix(0.17015535,0,0,0.17015535,47.093275,64.284812)">23</text>
      <text
         x="481.98999"
         y="489.97"
         text-anchor="middle"
         style="font-weight:bold;font-size:10.8px;font-family:Arial;white-space:pre"
         textLength="12.01"
         lengthAdjust="spacingAndGlyphs"
         id="text108"
         transform="matrix(0.17015535,0,0,0.17015535,47.723628,64.280715)">24</text>
      <text
         x="498.67001"
         y="487.44"
         text-anchor="middle"
         style="font-weight:bold;font-size:10.8px;font-family:Arial;white-space:pre"
         textLength="12.01"
         lengthAdjust="spacingAndGlyphs"
         id="text109"
         transform="matrix(0.17015535,0,0,0.17015535,48.316901,64.699992)">25</text>
      <text
         x="515.34998"
         y="478.45999"
         text-anchor="middle"
         style="font-weight:bold;font-size:10.8px;font-family:Arial;white-space:pre"
         textLength="12.01"
         lengthAdjust="spacingAndGlyphs"
         id="text110"
         transform="matrix(0.17015535,0,0,0.17015535,48.947255,66.227988)">26</text>
      <text
         x="532.03003"
         y="489.97"
         text-anchor="middle"
         style="font-weight:bold;font-size:10.8px;font-family:Arial;white-space:pre"
         textLength="12.01"
         lengthAdjust="spacingAndGlyphs"
         id="text111"
         transform="matrix(0.17015535,0,0,0.17015535,49.614687,64.280715)">27</text>
      <text
         x="548.71002"
         y="489.87"
         text-anchor="middle"
         style="font-weight:bold;font-size:10.8px;font-family:Arial;white-space:pre"
         textLength="12.01"
         lengthAdjust="spacingAndGlyphs"
         id="text112"
         transform="matrix(0.17015535,0,0,0.17015535,50.20796,64.248987)">28</text>
      <text
         x="565.38"
         y="489.87"
         text-anchor="middle"
         style="font-weight:bold;font-size:10.8px;font-family:Arial;white-space:pre"
         textLength="12.01"
         lengthAdjust="spacingAndGlyphs"
         id="text113"
         transform="matrix(0.17015535,0,0,0.17015535,50.801233,64.323146)">29</text>
      <text
         x="582.06"
         y="489.89001"
         text-anchor="middle"
         style="font-weight:bold;font-size:10.8px;font-family:Arial;white-space:pre"
         textLength="12.01"
         lengthAdjust="spacingAndGlyphs"
         id="text114"
         transform="matrix(0.17015535,0,0,0.17015535,51.357427,64.246029)">30</text>
      <text
         x="598.73999"
         y="489.88"
         text-anchor="middle"
         style="font-weight:bold;font-size:10.8px;font-family:Arial;white-space:pre"
         textLength="12.01"
         lengthAdjust="spacingAndGlyphs"
         id="text115"
         transform="matrix(0.17015535,0,0,0.17015535,52.007094,64.332101)">31</text>
      <text
         x="615.41998"
         y="489.88"
         text-anchor="middle"
         style="font-weight:bold;font-size:10.8px;font-family:Arial;white-space:pre"
         textLength="12.01"
         lengthAdjust="spacingAndGlyphs"
         id="text116"
         transform="matrix(0.17015535,0,0,0.17015535,52.567378,64.290598)">32</text>
      <text
         x="632.09003"
         y="489.88"
         text-anchor="middle"
         style="font-weight:bold;font-size:10.8px;font-family:Arial;white-space:pre"
         textLength="12.01"
         lengthAdjust="spacingAndGlyphs"
         id="text117"
         transform="matrix(0.17015535,0,0,0.17015535,53.169165,64.311349)">33</text>
      <text
         x="648.77002"
         y="489.87"
         text-anchor="middle"
         style="font-weight:bold;font-size:10.8px;font-family:Arial;white-space:pre"
         textLength="12.01"
         lengthAdjust="spacingAndGlyphs"
         id="text118"
         transform="matrix(0.17015535,0,0,0.17015535,53.770952,64.313052)">34</text>
      <text
         x="665.45001"
         y="489.85999"
         text-anchor="middle"
         style="font-weight:bold;font-size:10.8px;font-family:Arial;white-space:pre"
         textLength="12.01"
         lengthAdjust="spacingAndGlyphs"
         id="text119"
         transform="matrix(0.17015535,0,0,0.17015535,54.39349,64.314756)">35</text>
      <text
         x="682.13"
         y="486.01999"
         text-anchor="middle"
         style="font-weight:bold;font-size:10.8px;font-family:Arial;white-space:pre"
         textLength="12.01"
         lengthAdjust="spacingAndGlyphs"
         id="text120"
         transform="matrix(0.17015535,0,0,0.17015535,55.016028,64.968151)">36</text>
      <text
         x="698.81"
         y="485.97"
         text-anchor="middle"
         style="font-weight:bold;font-size:10.8px;font-family:Arial;white-space:pre"
         textLength="12.01"
         lengthAdjust="spacingAndGlyphs"
         id="text121"
         transform="matrix(0.17015535,0,0,0.17015535,55.659317,64.997408)">37</text>
      <text
         x="715.47998"
         y="483.88"
         text-anchor="middle"
         style="font-weight:bold;font-size:10.8px;font-family:Arial;white-space:pre"
         textLength="12.01"
         lengthAdjust="spacingAndGlyphs"
         id="text122"
         transform="matrix(0.17015535,0,0,0.17015535,56.240352,65.331833)">38</text>
      <text
         x="732.15997"
         y="485.63"
         text-anchor="middle"
         style="font-weight:bold;font-size:10.8px;font-family:Arial;white-space:pre"
         textLength="12.01"
         lengthAdjust="spacingAndGlyphs"
         id="text123"
         transform="matrix(0.17015535,0,0,0.17015535,56.883641,65.034061)">39</text>
      <text
         x="748.84003"
         y="489.89001"
         text-anchor="middle"
         style="font-weight:bold;font-size:10.8px;font-family:Arial;white-space:pre"
         textLength="12.01"
         lengthAdjust="spacingAndGlyphs"
         id="text124"
         transform="matrix(0.17015535,0,0,0.17015535,57.464676,64.330397)">40</text>
      <text
         x="765.52002"
         y="489.95999"
         text-anchor="middle"
         style="font-weight:bold;font-size:10.8px;font-family:Arial;white-space:pre"
         textLength="12.01"
         lengthAdjust="spacingAndGlyphs"
         id="text125"
         transform="matrix(0.17015535,0,0,0.17015535,58.19097,64.288203)">41</text>
      <text
         x="782.20001"
         y="489.95999"
         text-anchor="middle"
         style="font-weight:bold;font-size:10.8px;font-family:Arial;white-space:pre"
         textLength="12.01"
         lengthAdjust="spacingAndGlyphs"
         id="text126"
         transform="matrix(0.17015535,0,0,0.17015535,58.709752,64.288203)">42</text>
      <text
         x="798.87"
         y="489.88"
         text-anchor="middle"
         style="font-weight:bold;font-size:10.8px;font-family:Arial;white-space:pre"
         textLength="12.01"
         lengthAdjust="spacingAndGlyphs"
         id="text127"
         transform="matrix(0.17015535,0,0,0.17015535,59.33229,64.290597)">43</text>
      <text
         x="815.54999"
         y="489.92999"
         text-anchor="middle"
         style="font-weight:bold;font-size:10.8px;font-family:Arial;white-space:pre"
         textLength="12.01"
         lengthAdjust="spacingAndGlyphs"
         id="text128"
         transform="matrix(0.17015535,0,0,0.17015535,59.892574,64.272557)">44</text>
      <text
         x="832.22998"
         y="489.82999"
         text-anchor="middle"
         style="font-weight:bold;font-size:10.8px;font-family:Arial;white-space:pre"
         textLength="12.01"
         lengthAdjust="spacingAndGlyphs"
         id="text129"
         transform="matrix(0.17015535,0,0,0.17015535,60.452858,64.31986)">45</text>
      <text
         x="848.90997"
         y="489.89001"
         text-anchor="middle"
         style="font-weight:bold;font-size:10.8px;font-family:Arial;white-space:pre"
         textLength="12.01"
         lengthAdjust="spacingAndGlyphs"
         id="text130"
         transform="matrix(0.17015535,0,0,0.17015535,61.158401,64.288895)">46</text>
      <text
         x="865.59003"
         y="489.92999"
         text-anchor="middle"
         style="font-weight:bold;font-size:10.8px;font-family:Arial;white-space:pre"
         textLength="12.01"
         lengthAdjust="spacingAndGlyphs"
         id="text131"
         transform="matrix(0.17015535,0,0,0.17015535,61.739436,64.293309)">47</text>
      <text
         x="882.26001"
         y="489.87"
         text-anchor="middle"
         style="font-weight:bold;font-size:10.8px;font-family:Arial;white-space:pre"
         textLength="12.01"
         lengthAdjust="spacingAndGlyphs"
         id="text132"
         transform="matrix(0.17015535,0,0,0.17015535,62.341223,64.271102)">48</text>
      <text
         x="898.94"
         y="489.88"
         text-anchor="middle"
         style="font-weight:bold;font-size:10.8px;font-family:Arial;white-space:pre"
         textLength="12.01"
         lengthAdjust="spacingAndGlyphs"
         id="text133"
         transform="matrix(0.17015535,0,0,0.17015535,62.984512,64.290149)">49</text>
      <text
         x="915.62"
         y="489.88"
         text-anchor="middle"
         style="font-weight:bold;font-size:10.8px;font-family:Arial;white-space:pre"
         textLength="12.01"
         lengthAdjust="spacingAndGlyphs"
         id="text134"
         transform="matrix(0.17015535,0,0,0.17015535,63.565547,64.290598)">50</text>
      <text
         x="932.29999"
         y="489.85001"
         text-anchor="middle"
         style="font-weight:bold;font-size:10.8px;font-family:Arial;white-space:pre"
         textLength="12.01"
         lengthAdjust="spacingAndGlyphs"
         id="text135"
         transform="matrix(0.17015535,0,0,0.17015535,64.229586,64.316454)">51</text>
      <text
         x="948.97998"
         y="489.87"
         text-anchor="middle"
         style="font-weight:bold;font-size:10.8px;font-family:Arial;white-space:pre"
         textLength="12.01"
         lengthAdjust="spacingAndGlyphs"
         id="text136"
         transform="matrix(0.17015535,0,0,0.17015535,64.748368,64.313052)">52</text>
      <text
         x="965.65002"
         y="489.87"
         text-anchor="middle"
         style="font-weight:bold;font-size:10.8px;font-family:Arial;white-space:pre"
         textLength="12.01"
         lengthAdjust="spacingAndGlyphs"
         id="text137"
         transform="matrix(0.17015535,0,0,0.17015535,65.370906,64.333803)">53</text>
      <text
         x="982.33002"
         y="489.82999"
         text-anchor="middle"
         style="font-weight:bold;font-size:10.8px;font-family:Arial;white-space:pre"
         textLength="12.01"
         lengthAdjust="spacingAndGlyphs"
         id="text138"
         transform="matrix(0.17015535,0,0,0.17015535,65.993444,64.340611)">54</text>
      <text
         x="999.01001"
         y="489.79999"
         text-anchor="middle"
         style="font-weight:bold;font-size:10.8px;font-family:Arial;white-space:pre"
         textLength="12.01"
         lengthAdjust="spacingAndGlyphs"
         id="text139"
         transform="matrix(0.17015535,0,0,0.17015535,66.595231,64.313299)">55</text>
      <text
         x="1015.69"
         y="489.89001"
         text-anchor="middle"
         style="font-weight:bold;font-size:10.8px;font-family:Arial;white-space:pre"
         textLength="12.01"
         lengthAdjust="spacingAndGlyphs"
         id="text140"
         transform="matrix(0.17015535,0,0,0.17015535,67.176266,64.309646)">56</text>
      <text
         x="1032.37"
         y="489.79999"
         text-anchor="middle"
         style="font-weight:bold;font-size:10.8px;font-family:Arial;white-space:pre"
         textLength="12.01"
         lengthAdjust="spacingAndGlyphs"
         id="text141"
         transform="matrix(0.17015535,0,0,0.17015535,67.798804,64.313299)">57</text>
      <text
         x="1049.04"
         y="489.87"
         text-anchor="middle"
         style="font-weight:bold;font-size:10.8px;font-family:Arial;white-space:pre"
         textLength="12.01"
         lengthAdjust="spacingAndGlyphs"
         id="text142"
         transform="matrix(0.17015535,0,0,0.17015535,68.442093,64.312604)">58</text>
      <text
         x="1065.72"
         y="489.88"
         text-anchor="middle"
         style="font-weight:bold;font-size:10.8px;font-family:Arial;white-space:pre"
         textLength="12.01"
         lengthAdjust="spacingAndGlyphs"
         id="text143"
         transform="matrix(0.17015535,0,0,0.17015535,69.064631,64.3109)">59</text>
    </g>
  </g>
</svg>
