<?xml version="1.0" encoding="UTF-8" standalone="no"?>
<svg
   class="svglite"
   width="720.00pt"
   height="576.00pt"
   viewBox="0 0 720.00 576.00"
   version="1.1"
   id="svg102"
   sodipodi:docname="OctaneExample.svg"
   inkscape:version="1.3.2 (091e20e, 2023-11-25)"
   inkscape:export-filename="OctaneExample.png"
   inkscape:export-xdpi="500"
   inkscape:export-ydpi="500"
   xmlns:inkscape="http://www.inkscape.org/namespaces/inkscape"
   xmlns:sodipodi="http://sodipodi.sourceforge.net/DTD/sodipodi-0.dtd"
   xmlns:xlink="http://www.w3.org/1999/xlink"
   xmlns="http://www.w3.org/2000/svg"
   xmlns:svg="http://www.w3.org/2000/svg"
   xmlns:ns1="http://www.iki.fi/pav/software/textext/">
  <sodipodi:namedview
     id="namedview102"
     pagecolor="#ffffff"
     bordercolor="#000000"
     borderopacity="0.25"
     inkscape:showpageshadow="2"
     inkscape:pageopacity="0.0"
     inkscape:pagecheckerboard="false"
     inkscape:deskcolor="#d1d1d1"
     inkscape:document-units="pt"
     inkscape:zoom="0.91657057"
     inkscape:cx="398.22357"
     inkscape:cy="491.50607"
     inkscape:window-width="1920"
     inkscape:window-height="1052"
     inkscape:window-x="0"
     inkscape:window-y="28"
     inkscape:window-maximized="0"
     inkscape:current-layer="g63"
     showborder="true" />
  <defs
     id="defs1">
    <linearGradient
       id="linearGradient102"
       inkscape:collect="always">
      <stop
         style="stop-color:#000000;stop-opacity:1;"
         offset="0"
         id="stop102" />
      <stop
         style="stop-color:#000000;stop-opacity:0;"
         offset="1"
         id="stop103" />
    </linearGradient>
    <style
       type="text/css"
       id="style1"><![CDATA[
    .svglite line, .svglite polyline, .svglite polygon, .svglite path, .svglite rect, .svglite circle {
      fill: none;
      stroke: #000000;
      stroke-linecap: round;
      stroke-linejoin: round;
      stroke-miterlimit: 10.00;
    }
    .svglite text {
      white-space: pre;
    }
  ]]></style>
    <linearGradient
       inkscape:collect="always"
       xlink:href="#linearGradient102"
       id="linearGradient103"
       x1="0.000375"
       y1="4.229875"
       x2="102.34275"
       y2="4.229875"
       gradientUnits="userSpaceOnUse" />
    <inkscape:path-effect
       effect="fill_between_many"
       method="originald"
       linkedpaths="#id-4436e655-75a1-4a34-85ec-139091f1d066,0,1|#id-940928ec-4600-4b7d-8809-dc6a777a3bec,0,1|#id-2e76a462-6396-46c7-8355-f7226e370053,0,1|#id-9e53e7f4-c9fd-4834-8799-042e812f19c0,0,1|#id-fb5386af-8bb9-4ad1-a3e0-6e5027efaf26,0,1|#id-112b882d-6f18-402d-af41-fbb3253654a9,0,1|"
       id="path-effect1" />
    <g
       id="id-deb763dd-356b-4d25-9a5f-559bb4e5244b">
      <g
         id="id-682f923a-f53c-4f33-907e-7d7c1b3e7573">
        <path
           d="m 4.25,-6.046875 c 0.078125,-0.28125 0.109375,-0.34375 0.234375,-0.375 0.09375,-0.015625 0.421875,-0.015625 0.625,-0.015625 1.015625,0 1.453125,0.03125 1.453125,0.8125 0,0.15625 -0.03125,0.546875 -0.078125,0.796875 0,0.046875 -0.03125,0.15625 -0.03125,0.1875 0,0.0625 0.03125,0.140625 0.125,0.140625 0.109375,0 0.125,-0.078125 0.15625,-0.234375 L 7,-6.46875 C 7.015625,-6.515625 7.015625,-6.609375 7.015625,-6.640625 7.015625,-6.75 6.921875,-6.75 6.75,-6.75 H 1.21875 c -0.234375,0 -0.25,0.015625 -0.328125,0.203125 l -0.59375,1.75 c 0,0.015625 -0.0625,0.15625 -0.0625,0.1875 0,0.046875 0.0625,0.109375 0.125,0.109375 0.09375,0 0.109375,-0.0625 0.171875,-0.21875 C 1.0625,-6.265625 1.328125,-6.4375 2.796875,-6.4375 H 3.1875 c 0.28125,0 0.28125,0.03125 0.28125,0.125 0,0.046875 -0.03125,0.171875 -0.046875,0.203125 L 2.09375,-0.78125 C 2,-0.421875 1.96875,-0.3125 0.90625,-0.3125 c -0.359375,0 -0.421875,0 -0.421875,0.1875 C 0.484375,0 0.59375,0 0.65625,0 c 0.265625,0 0.546875,-0.015625 0.8125,-0.015625 0.28125,0 0.578125,-0.015625 0.859375,-0.015625 0.28125,0 0.546875,0.015625 0.828125,0.015625 C 3.4375,-0.015625 3.734375,0 4.015625,0 c 0.09375,0 0.21875,0 0.21875,-0.203125 0,-0.109375 -0.078125,-0.109375 -0.34375,-0.109375 -0.234375,0 -0.375,0 -0.625,-0.015625 -0.296875,-0.03125 -0.375,-0.0625 -0.375,-0.21875 0,-0.015625 0,-0.0625 0.046875,-0.203125 z m 0,0"
           id="id-26113741-353d-46d0-9e4f-8042679c8f08" />
      </g>
      <g
         id="id-acc4885e-ad0c-4756-9e77-956422e40162">
        <path
           d="M 3.515625,-1.265625 H 3.28125 c -0.015625,0.15625 -0.09375,0.5625 -0.1875,0.625 C 3.046875,-0.59375 2.515625,-0.59375 2.40625,-0.59375 H 1.125 c 0.734375,-0.640625 0.984375,-0.84375 1.390625,-1.171875 0.515625,-0.40625 1,-0.84375 1,-1.5 0,-0.84375 -0.734375,-1.359375 -1.625,-1.359375 -0.859375,0 -1.453125,0.609375 -1.453125,1.25 0,0.34375 0.296875,0.390625 0.375,0.390625 0.15625,0 0.359375,-0.125 0.359375,-0.375 0,-0.125 -0.046875,-0.375 -0.40625,-0.375 C 0.984375,-4.21875 1.453125,-4.375 1.78125,-4.375 c 0.703125,0 1.0625,0.546875 1.0625,1.109375 0,0.609375 -0.4375,1.078125 -0.65625,1.328125 L 0.515625,-0.265625 C 0.4375,-0.203125 0.4375,-0.1875 0.4375,0 h 2.875 z m 0,0"
           id="id-94f6aba0-6e6b-4dd0-b5fb-cba5b13f0ccb" />
      </g>
      <g
         id="id-43030053-7337-4caf-b9c5-635cb6c581e8">
        <path
           d="m 7.109375,-4.1875 c 0.0625,-0.265625 0.078125,-0.328125 0.59375,-0.328125 0.15625,0 0.234375,0 0.234375,-0.140625 0,-0.109375 -0.078125,-0.109375 -0.203125,-0.109375 H 6.78125 c -0.203125,0 -0.203125,0.015625 -0.296875,0.140625 l -2.6875,3.984375 -0.6875,-3.9375 c -0.03125,-0.171875 -0.03125,-0.1875 -0.25,-0.1875 H 1.875 c -0.140625,0 -0.234375,0 -0.234375,0.15625 0,0.09375 0.078125,0.09375 0.234375,0.09375 0.109375,0 0.140625,0 0.265625,0.015625 0.140625,0.015625 0.15625,0.03125 0.15625,0.109375 0,0 0,0.046875 -0.03125,0.140625 l -0.875,3.5 c -0.0625,0.234375 -0.171875,0.484375 -0.734375,0.5 -0.046875,0 -0.140625,0 -0.140625,0.15625 0,0 0,0.09375 0.109375,0.09375 0.203125,0 0.5,-0.03125 0.71875,-0.03125 C 1.515625,-0.03125 1.921875,0 2.078125,0 2.125,0 2.21875,0 2.21875,-0.15625 2.21875,-0.25 2.125,-0.25 2.0625,-0.25 1.625,-0.265625 1.625,-0.453125 1.625,-0.546875 c 0,-0.03125 0,-0.0625 0.03125,-0.171875 l 0.921875,-3.703125 0.75,4.234375 C 3.359375,-0.0625 3.359375,0 3.46875,0 3.5625,0 3.625,-0.078125 3.671875,-0.15625 L 6.59375,-4.5 6.609375,-4.484375 5.625,-0.546875 C 5.5625,-0.3125 5.546875,-0.25 5.015625,-0.25 c -0.125,0 -0.21875,0 -0.21875,0.15625 0,0 0,0.09375 0.109375,0.09375 0.140625,0 0.296875,-0.015625 0.4375,-0.015625 0.140625,0 0.296875,-0.015625 0.4375,-0.015625 C 5.984375,-0.03125 6.46875,0 6.671875,0 6.703125,0 6.8125,0 6.8125,-0.15625 6.8125,-0.25 6.734375,-0.25 6.59375,-0.25 c -0.015625,0 -0.140625,0 -0.265625,-0.015625 -0.15625,-0.015625 -0.15625,-0.03125 -0.15625,-0.109375 0,-0.03125 0.015625,-0.109375 0.015625,-0.140625 z m 0,0"
           id="id-29bc7501-1b0d-4e1b-8897-0147b9547441" />
      </g>
      <g
         id="id-33d09f07-10d0-4db6-abba-093b7599926a">
        <path
           d="m 2.875,-4.265625 c 0.046875,-0.203125 0.0625,-0.21875 0.21875,-0.25 h 0.453125 c 0.640625,0 1.4375,0 1.4375,0.71875 0,0.296875 -0.125,0.734375 -0.453125,0.984375 C 4.25,-2.59375 3.8125,-2.484375 3.328125,-2.484375 H 2.4375 Z M 4.140625,-2.375 c 0.828125,-0.1875 1.5625,-0.6875 1.5625,-1.3125 0,-0.59375 -0.703125,-1.078125 -1.71875,-1.078125 H 1.84375 c -0.125,0 -0.21875,0 -0.21875,0.15625 0,0.09375 0.078125,0.09375 0.21875,0.09375 0.015625,0 0.140625,0 0.265625,0.015625 0.15625,0.015625 0.15625,0.03125 0.15625,0.109375 0,0 0,0.046875 -0.015625,0.140625 L 1.3125,-0.546875 C 1.265625,-0.3125 1.25,-0.25 0.703125,-0.25 0.578125,-0.25 0.5,-0.25 0.5,-0.109375 0.5,-0.03125 0.546875,0 0.609375,0 c 0.125,0 0.296875,-0.015625 0.421875,-0.015625 0.140625,0 0.34375,-0.015625 0.46875,-0.015625 0.140625,0 0.296875,0.015625 0.4375,0.015625 C 2.09375,-0.015625 2.265625,0 2.40625,0 2.453125,0 2.5625,0 2.5625,-0.140625 2.5625,-0.25 2.484375,-0.25 2.328125,-0.25 2.21875,-0.25 2.1875,-0.25 2.0625,-0.265625 1.90625,-0.28125 1.90625,-0.296875 1.90625,-0.375 c 0,0 0,-0.046875 0.03125,-0.140625 L 2.375,-2.28125 h 0.953125 c 0.59375,0 0.859375,0.296875 0.859375,0.625 0,0.09375 -0.0625,0.328125 -0.109375,0.484375 C 4,-0.84375 3.96875,-0.75 3.96875,-0.625 c 0,0.546875 0.515625,0.765625 1.03125,0.765625 0.640625,0 0.921875,-0.6875 0.921875,-0.8125 0,-0.015625 -0.015625,-0.09375 -0.125,-0.09375 -0.09375,0 -0.109375,0.046875 -0.125,0.125 C 5.578125,-0.34375 5.3125,-0.0625 5.03125,-0.0625 c -0.1875,0 -0.328125,-0.0625 -0.328125,-0.453125 0,-0.171875 0.046875,-0.53125 0.078125,-0.71875 0.03125,-0.1875 0.03125,-0.25 0.03125,-0.328125 0,-0.078125 0,-0.3125 -0.203125,-0.515625 C 4.484375,-2.21875 4.296875,-2.3125 4.140625,-2.375 Z m 0,0"
           id="id-0375d03d-1421-41ce-a181-0706ffd39836" />
      </g>
      <g
         id="id-7852e3b2-0c81-4603-9dd3-f02c3d88479a">
        <path
           d="m 5.875,-4.8125 c 0,-0.03125 -0.015625,-0.09375 -0.09375,-0.09375 -0.046875,0 -0.0625,0.015625 -0.125,0.09375 l -0.5,0.53125 c -0.0625,-0.078125 -0.453125,-0.625 -1.3125,-0.625 -1.703125,0 -3.359375,1.5 -3.359375,3.078125 0,1.140625 0.890625,1.96875 2.140625,1.96875 0.375,0 1.046875,-0.078125 1.765625,-0.6875 0.546875,-0.46875 0.703125,-1.0625 0.703125,-1.125 0,-0.09375 -0.078125,-0.09375 -0.125,-0.09375 -0.078125,0 -0.09375,0.03125 -0.125,0.109375 -0.28125,0.953125 -1.25,1.546875 -2.09375,1.546875 -0.75,0 -1.5625,-0.40625 -1.5625,-1.5 0,-0.203125 0.046875,-1.296875 0.84375,-2.1875 0.484375,-0.53125 1.21875,-0.84375 1.875,-0.84375 0.8125,0 1.28125,0.578125 1.28125,1.359375 0,0.1875 -0.015625,0.25 -0.015625,0.28125 0,0.09375 0.09375,0.09375 0.125,0.09375 0.109375,0 0.109375,-0.015625 0.140625,-0.15625 z m 0,0"
           id="id-248d18a2-b0a9-4f78-959c-9537dd674058" />
      </g>
      <g
         id="id-0313e9c4-41da-4b6b-8303-60a95181eda1">
        <path
           d="M 1.3125,-0.546875 C 1.265625,-0.3125 1.25,-0.25 0.703125,-0.25 0.578125,-0.25 0.5,-0.25 0.5,-0.09375 0.5,0 0.578125,0 0.703125,0 H 3.1875 c 1.546875,0 3.03125,-1.421875 3.03125,-2.9375 0,-1.015625 -0.703125,-1.828125 -1.828125,-1.828125 H 1.84375 c -0.140625,0 -0.21875,0 -0.21875,0.15625 0,0.09375 0.078125,0.09375 0.234375,0.09375 0.109375,0 0.140625,0 0.265625,0.015625 0.140625,0.015625 0.140625,0.03125 0.140625,0.109375 0,0 0,0.046875 -0.015625,0.140625 z m 1.5625,-3.71875 c 0.0625,-0.21875 0.0625,-0.25 0.359375,-0.25 H 4.125 c 0.78125,0 1.4375,0.390625 1.4375,1.34375 0,0.15625 -0.078125,1.359375 -0.765625,2.15625 C 4.515625,-0.703125 3.921875,-0.25 3.0625,-0.25 H 2.125 c -0.21875,0 -0.234375,-0.015625 -0.234375,-0.078125 0,0 0,-0.03125 0.03125,-0.140625 z m 0,0"
           id="id-fdc80160-71dc-421f-a495-ec5a578124d1" />
      </g>
    </g>
  </defs>
  <defs
     id="defs2">
    <clipPath
       id="cpMC4wMHw3MjAuMDB8MC4wMHw1NzYuMDA=">
      <rect
         x="0.00"
         y="0.00"
         width="720.00"
         height="576.00"
         id="rect2" />
    </clipPath>
  </defs>
  <defs
     id="defs3">
    <clipPath
       id="cpNTkuMDR8Njg5Ljc2fDU5LjA0fDUwMi41Ng==">
      <rect
         x="59.04"
         y="59.04"
         width="630.72"
         height="443.52"
         id="rect3" />
    </clipPath>
  </defs>
  <g
     clip-path="url(#cpNTkuMDR8Njg5Ljc2fDU5LjA0fDUwMi41Ng==)"
     id="g41">
    <path
       style="fill:#000000;fill-opacity:1;stroke:#ff0000;stroke-width:1;stroke-dasharray:none;stroke-opacity:1"
       d="M 58.574323,485.94995 H 689.33301"
       id="path104" />
    <circle
       cx="97.77"
       cy="486.12"
       r="5.40"
       style="stroke-width: 0.75; stroke: #ADD8E6; fill: #ADD8E6;"
       id="circle4" />
    <circle
       cx="113.14"
       cy="485.64"
       r="5.40"
       style="stroke-width: 0.75; stroke: #ADD8E6; fill: #ADD8E6;"
       id="circle5" />
    <circle
       cx="128.51"
       cy="485.97"
       r="5.40"
       style="stroke-width: 0.75; stroke: #ADD8E6; fill: #ADD8E6;"
       id="circle6" />
    <circle
       cx="143.87"
       cy="486.09"
       r="5.40"
       style="stroke-width: 0.75; stroke: #ADD8E6; fill: #ADD8E6;"
       id="circle7" />
    <circle
       cx="159.24"
       cy="485.95"
       r="5.40"
       style="stroke-width: 0.75; stroke: #ADD8E6; fill: #ADD8E6;"
       id="circle8" />
    <circle
       cx="174.61"
       cy="486.03"
       r="5.40"
       style="stroke-width: 0.75; stroke: #ADD8E6; fill: #ADD8E6;"
       id="circle9" />
    <circle
       cx="189.98"
       cy="486.05"
       r="5.40"
       style="stroke-width: 0.75; stroke: #ADD8E6; fill: #ADD8E6;"
       id="circle10" />
    <circle
       cx="205.35"
       cy="486.06"
       r="5.40"
       style="stroke-width: 0.75; stroke: #ADD8E6; fill: #ADD8E6;"
       id="circle11" />
    <circle
       cx="220.72"
       cy="486.06"
       r="5.40"
       style="stroke-width: 0.75; stroke: #ADD8E6; fill: #ADD8E6;"
       id="circle12" />
    <circle
       cx="236.08"
       cy="486.13"
       r="5.40"
       style="stroke-width: 0.75; stroke: #ADD8E6; fill: #ADD8E6;"
       id="circle13" />
    <circle
       cx="251.45"
       cy="486.05"
       r="5.40"
       style="stroke-width: 0.75; stroke: #ADD8E6; fill: #ADD8E6;"
       id="circle14" />
    <circle
       cx="266.82"
       cy="486.03"
       r="5.40"
       style="stroke-width: 0.75; stroke: #ADD8E6; fill: #ADD8E6;"
       id="circle15" />
    <circle
       cx="282.19"
       cy="486.02"
       r="5.40"
       style="stroke-width: 0.75; stroke: #ADD8E6; fill: #ADD8E6;"
       id="circle16" />
    <circle
       cx="297.56"
       cy="486.04"
       r="5.40"
       style="stroke-width: 0.75; stroke: #ADD8E6; fill: #ADD8E6;"
       id="circle17" />
    <circle
       cx="312.93"
       cy="486.08"
       r="5.40"
       style="stroke-width: 0.75; stroke: #ADD8E6; fill: #ADD8E6;"
       id="circle18" />
    <circle
       cx="328.29"
       cy="486.09"
       r="5.40"
       style="stroke-width: 0.75; stroke: #ADD8E6; fill: #ADD8E6;"
       id="circle19" />
    <circle
       cx="343.66"
       cy="485.95"
       r="5.40"
       style="stroke-width: 0.75; stroke: #ADD8E6; fill: #ADD8E6;"
       id="circle20" />
    <circle
       cx="359.03"
       cy="486.10"
       r="5.40"
       style="stroke-width: 0.75; stroke: #ADD8E6; fill: #ADD8E6;"
       id="circle21" />
    <circle
       cx="374.40"
       cy="486.06"
       r="5.40"
       style="stroke-width: 0.75; stroke: #ADD8E6; fill: #ADD8E6;"
       id="circle22" />
    <circle
       cx="389.77"
       cy="486.02"
       r="5.40"
       style="stroke-width: 0.75; stroke: #ADD8E6; fill: #ADD8E6;"
       id="circle23" />
    <circle
       cx="405.14"
       cy="486.05"
       r="5.40"
       style="stroke-width: 0.75; stroke: #ADD8E6; fill: #ADD8E6;"
       id="circle24" />
    <circle
       cx="420.51"
       cy="485.98"
       r="5.40"
       style="stroke-width: 0.75; stroke: #ADD8E6; fill: #ADD8E6;"
       id="circle25" />
    <circle
       cx="451.24"
       cy="398.68"
       r="5.40"
       style="stroke-width: 0.75; stroke: #ADD8E6; fill: #ADD8E6;"
       id="circle27" />
    <circle
       cx="466.61"
       cy="75.47"
       r="5.40"
       style="stroke-width: 0.75; stroke: #ADD8E6; fill: #ADD8E6;"
       id="circle28" />
    <circle
       cx="481.98"
       cy="485.90"
       r="5.40"
       style="stroke-width: 0.75; stroke: #ADD8E6; fill: #ADD8E6;"
       id="circle29" />
    <circle
       cx="497.35"
       cy="486.09"
       r="5.40"
       style="stroke-width: 0.75; stroke: #ADD8E6; fill: #ADD8E6;"
       id="circle30" />
    <circle
       cx="512.72"
       cy="485.96"
       r="5.40"
       style="stroke-width: 0.75; stroke: #ADD8E6; fill: #ADD8E6;"
       id="circle31" />
    <circle
       cx="528.08"
       cy="486.08"
       r="5.40"
       style="stroke-width: 0.75; stroke: #ADD8E6; fill: #ADD8E6;"
       id="circle32" />
    <circle
       cx="543.45"
       cy="486.02"
       r="5.40"
       style="stroke-width: 0.75; stroke: #ADD8E6; fill: #ADD8E6;"
       id="circle33" />
    <circle
       cx="558.82"
       cy="486.05"
       r="5.40"
       style="stroke-width: 0.75; stroke: #ADD8E6; fill: #ADD8E6;"
       id="circle34" />
    <circle
       cx="574.19"
       cy="486.11"
       r="5.40"
       style="stroke-width: 0.75; stroke: #ADD8E6; fill: #ADD8E6;"
       id="circle35" />
    <circle
       cx="589.56"
       cy="485.86"
       r="5.40"
       style="stroke-width: 0.75; stroke: #ADD8E6; fill: #ADD8E6;"
       id="circle36" />
    <circle
       cx="604.93"
       cy="485.71"
       r="5.40"
       style="stroke-width: 0.75; stroke: #ADD8E6; fill: #ADD8E6;"
       id="circle37" />
    <circle
       cx="620.29"
       cy="347.15"
       r="5.40"
       style="stroke-width: 0.75; stroke: #ADD8E6; fill: #ADD8E6;"
       id="circle38" />
    <circle
       cx="635.66"
       cy="345.54"
       r="5.40"
       style="stroke-width: 0.75; stroke: #ADD8E6; fill: #ADD8E6;"
       id="circle39" />
    <circle
       cx="651.03"
       cy="270.85"
       r="5.40"
       style="stroke-width: 0.75; stroke: #ADD8E6; fill: #ADD8E6;"
       id="circle40" />
    <circle
       cx="666.40"
       cy="333.68"
       r="5.40"
       style="stroke-width: 0.75; stroke: #ADD8E6; fill: #ADD8E6;"
       id="circle41" />
    <circle
       cx="435.87"
       cy="486.03"
       r="5.40"
       style="stroke-width: 0.75; stroke: #ADD8E6; fill: #ADD8E6;"
       id="circle26" />
    <circle
       cx="82.272835"
       cy="486.13309"
       r="5.4000001"
       style="fill:#add8e6;stroke:#add8e6;stroke-width:0.75;stroke-linecap:round;stroke-linejoin:round;stroke-miterlimit:10"
       id="circle4-5" />
  </g>
  <g
     clip-path="url(#cpMC4wMHw3MjAuMDB8MC4wMHw1NzYuMDA=)"
     id="g63">
    <line
       x1="67.03"
       y1="502.56"
       x2="681.77"
       y2="502.56"
       style="stroke-width: 0.75;"
       id="line41" />
    <line
       x1="67.03"
       y1="502.56"
       x2="67.03"
       y2="509.76"
       style="stroke-width: 0.75;"
       id="line42" />
    <line
       x1="220.72"
       y1="502.56"
       x2="220.72"
       y2="509.76"
       style="stroke-width: 0.75;"
       id="line43" />
    <line
       x1="374.40"
       y1="502.56"
       x2="374.40"
       y2="509.76"
       style="stroke-width: 0.75;"
       id="line44" />
    <line
       x1="528.08"
       y1="502.56"
       x2="528.08"
       y2="509.76"
       style="stroke-width: 0.75;"
       id="line45" />
    <line
       x1="681.77"
       y1="502.56"
       x2="681.77"
       y2="509.76"
       style="stroke-width: 0.75;"
       id="line46" />
    <text
       x="67.03"
       y="528.48"
       text-anchor="middle"
       style="font-size: 12.00px; font-family: &quot;Arial&quot;;"
       textLength="6.67px"
       lengthAdjust="spacingAndGlyphs"
       id="text46">0</text>
    <text
       x="220.72"
       y="528.48"
       text-anchor="middle"
       style="font-size: 12.00px; font-family: &quot;Arial&quot;;"
       textLength="13.35px"
       lengthAdjust="spacingAndGlyphs"
       id="text47">10</text>
    <text
       x="374.40"
       y="528.48"
       text-anchor="middle"
       style="font-size: 12.00px; font-family: &quot;Arial&quot;;"
       textLength="13.35px"
       lengthAdjust="spacingAndGlyphs"
       id="text48">20</text>
    <text
       x="528.08"
       y="528.48"
       text-anchor="middle"
       style="font-size: 12.00px; font-family: &quot;Arial&quot;;"
       textLength="13.35px"
       lengthAdjust="spacingAndGlyphs"
       id="text49">30</text>
    <text
       x="681.77"
       y="528.48"
       text-anchor="middle"
       style="font-size: 12.00px; font-family: &quot;Arial&quot;;"
       textLength="13.35px"
       lengthAdjust="spacingAndGlyphs"
       id="text50">40</text>
    <line
       x1="59.04"
       y1="486.16"
       x2="59.04"
       y2="90.22"
       style="stroke-width: 0.75;"
       id="line50" />
    <line
       x1="59.04"
       y1="486.16"
       x2="51.84"
       y2="486.16"
       style="stroke-width: 0.75;"
       id="line51" />
    <line
       x1="59.04"
       y1="406.98"
       x2="51.84"
       y2="406.98"
       style="stroke-width: 0.75;"
       id="line52" />
    <line
       x1="59.04"
       y1="327.79"
       x2="51.84"
       y2="327.79"
       style="stroke-width: 0.75;"
       id="line53" />
    <line
       x1="59.04"
       y1="248.60"
       x2="51.84"
       y2="248.60"
       style="stroke-width: 0.75;"
       id="line54" />
    <line
       x1="59.04"
       y1="169.41"
       x2="51.84"
       y2="169.41"
       style="stroke-width: 0.75;"
       id="line55" />
    <line
       x1="59.04"
       y1="90.22"
       x2="51.84"
       y2="90.22"
       style="stroke-width: 0.75;"
       id="line56" />
    <text
       transform="translate(41.76,486.16) rotate(-90)"
       text-anchor="middle"
       style="font-size: 12.00px; font-family: &quot;Arial&quot;;"
       textLength="6.67px"
       lengthAdjust="spacingAndGlyphs"
       id="text56">0</text>
    <text
       transform="translate(41.76,406.98) rotate(-90)"
       text-anchor="middle"
       style="font-size: 12.00px; font-family: &quot;Arial&quot;;"
       textLength="33.37px"
       lengthAdjust="spacingAndGlyphs"
       id="text57">10000</text>
    <text
       transform="translate(41.76,327.79) rotate(-90)"
       text-anchor="middle"
       style="font-size: 12.00px; font-family: &quot;Arial&quot;;"
       textLength="33.37px"
       lengthAdjust="spacingAndGlyphs"
       id="text58">20000</text>
    <g
       id="g103"
       transform="matrix(1.8045574,0,0,1.8045574,222.55478,539.56574)"
       style="fill:#000000;fill-opacity:1;stroke:#ff0000;stroke-width:0;stroke-dasharray:none;stroke-opacity:1">
      <g
         transform="translate(46.365001,8.2409979)"
         id="g6555"
         style="fill:#000000;fill-opacity:1;stroke:#ff0000;stroke-width:0;stroke-dasharray:none;stroke-opacity:1">
        <path
           d="m 7.1875,-3.375 c 0,-2.03125 -1.5,-3.65625 -3.3125,-3.65625 -1.796875,0 -3.3125,1.59375 -3.3125,3.65625 0,2.046875 1.53125,3.59375 3.3125,3.59375 1.8125,0 3.3125,-1.578125 3.3125,-3.59375 z M 3.875,-0.046875 c -0.953125,0 -2.296875,-0.875 -2.296875,-3.46875 0,-2.578125 1.46875,-3.265625 2.296875,-3.265625 0.859375,0 2.28125,0.703125 2.28125,3.265625 0,2.640625 -1.359375,3.46875 -2.28125,3.46875 z m 0,0"
           id="id-64907527-2a79-4962-9728-716fd19c8db1"
           style="fill:#000000;fill-opacity:1;stroke:#ff0000;stroke-opacity:1" />
      </g>
      <g
         transform="translate(54.114001,8.2409979)"
         id="g2513"
         style="fill:#000000;fill-opacity:1;stroke:#ff0000;stroke-width:0;stroke-dasharray:none;stroke-opacity:1">
        <path
           d="m 1.71875,-3.765625 v -3.15625 L 0.28125,-6.8125 V -6.5 c 0.703125,0 0.78125,0.0625 0.78125,0.5625 V 0 h 0.25 c 0,-0.015625 0.078125,-0.15625 0.359375,-0.625 0.140625,0.234375 0.5625,0.734375 1.296875,0.734375 1.1875,0 2.21875,-0.984375 2.21875,-2.265625 0,-1.265625 -0.96875,-2.25 -2.109375,-2.25 -0.78125,0 -1.203125,0.46875 -1.359375,0.640625 z m 0.03125,2.625 V -3.1875 c 0,-0.1875 0,-0.203125 0.109375,-0.359375 C 2.25,-4.109375 2.796875,-4.1875 3.03125,-4.1875 c 0.453125,0 0.8125,0.265625 1.046875,0.640625 0.265625,0.40625 0.28125,0.96875 0.28125,1.390625 0,0.359375 -0.015625,0.953125 -0.296875,1.40625 -0.21875,0.3125 -0.59375,0.640625 -1.125,0.640625 -0.453125,0 -0.8125,-0.234375 -1.046875,-0.609375 C 1.75,-0.921875 1.75,-0.953125 1.75,-1.140625 Z m 0,0"
           id="id-b85e0122-8dff-4498-9b9a-413c77214c45"
           style="fill:#000000;fill-opacity:1;stroke:#ff0000;stroke-opacity:1" />
      </g>
      <g
         transform="translate(59.649,8.2409979)"
         id="g8294"
         style="fill:#000000;fill-opacity:1;stroke:#ff0000;stroke-width:0;stroke-dasharray:none;stroke-opacity:1">
        <path
           d="m 2.078125,-1.9375 c 0.21875,0.046875 1.03125,0.203125 1.03125,0.921875 0,0.5 -0.34375,0.90625 -1.125,0.90625 -0.84375,0 -1.203125,-0.5625 -1.390625,-1.421875 C 0.5625,-1.65625 0.5625,-1.6875 0.453125,-1.6875 c -0.125,0 -0.125,0.0625 -0.125,0.234375 V -0.125 c 0,0.171875 0,0.234375 0.109375,0.234375 0.046875,0 0.0625,-0.015625 0.25,-0.203125 0.015625,-0.015625 0.015625,-0.03125 0.203125,-0.21875 0.4375,0.40625 0.890625,0.421875 1.09375,0.421875 1.140625,0 1.609375,-0.671875 1.609375,-1.390625 0,-0.515625 -0.296875,-0.828125 -0.421875,-0.9375 C 2.84375,-2.546875 2.453125,-2.625 2.03125,-2.703125 1.46875,-2.8125 0.8125,-2.9375 0.8125,-3.515625 c 0,-0.359375 0.25,-0.765625 1.109375,-0.765625 1.09375,0 1.15625,0.90625 1.171875,1.203125 0,0.09375 0.09375,0.09375 0.109375,0.09375 0.140625,0 0.140625,-0.046875 0.140625,-0.234375 v -1.015625 c 0,-0.15625 0,-0.234375 -0.109375,-0.234375 -0.046875,0 -0.078125,0 -0.203125,0.125 -0.03125,0.03125 -0.125,0.125 -0.171875,0.15625 -0.375,-0.28125 -0.78125,-0.28125 -0.9375,-0.28125 -1.21875,0 -1.59375,0.671875 -1.59375,1.234375 0,0.34375 0.15625,0.625 0.421875,0.84375 0.328125,0.25 0.609375,0.3125 1.328125,0.453125 z m 0,0"
           id="id-e38cd832-d874-4048-b4c1-9390e4fb7fc4"
           style="fill:#000000;fill-opacity:1;stroke:#ff0000;stroke-opacity:1" />
      </g>
      <g
         transform="translate(63.579001,8.2409979)"
         id="g6832"
         style="fill:#000000;fill-opacity:1;stroke:#ff0000;stroke-width:0;stroke-dasharray:none;stroke-opacity:1">
        <path
           d="M 1.109375,-2.515625 C 1.171875,-4 2.015625,-4.25 2.359375,-4.25 c 1.015625,0 1.125,1.34375 1.125,1.734375 z m 0,0.21875 h 2.78125 c 0.21875,0 0.25,0 0.25,-0.21875 0,-0.984375 -0.546875,-1.953125 -1.78125,-1.953125 -1.15625,0 -2.078125,1.03125 -2.078125,2.28125 0,1.328125 1.046875,2.296875 2.1875,2.296875 C 3.6875,0.109375 4.140625,-1 4.140625,-1.1875 4.140625,-1.28125 4.0625,-1.3125 4,-1.3125 c -0.078125,0 -0.109375,0.0625 -0.125,0.140625 -0.34375,1.03125 -1.25,1.03125 -1.34375,1.03125 -0.5,0 -0.890625,-0.296875 -1.125,-0.671875 -0.296875,-0.46875 -0.296875,-1.125 -0.296875,-1.484375 z m 0,0"
           id="id-5b02accc-006b-4d3b-a089-395ffd9ab29c"
           style="fill:#000000;fill-opacity:1;stroke:#ff0000;stroke-opacity:1" />
      </g>
      <g
         transform="translate(68.005997,8.2409979)"
         id="g3667"
         style="fill:#000000;fill-opacity:1;stroke:#ff0000;stroke-width:0;stroke-dasharray:none;stroke-opacity:1">
        <path
           d="M 1.671875,-3.3125 V -4.40625 L 0.28125,-4.296875 v 0.3125 c 0.703125,0 0.78125,0.0625 0.78125,0.5625 V -0.75 c 0,0.4375 -0.109375,0.4375 -0.78125,0.4375 V 0 c 0.390625,-0.015625 0.859375,-0.03125 1.140625,-0.03125 0.390625,0 0.859375,0 1.265625,0.03125 V -0.3125 H 2.46875 c -0.734375,0 -0.75,-0.109375 -0.75,-0.46875 V -2.3125 c 0,-0.984375 0.421875,-1.875 1.171875,-1.875 0.0625,0 0.09375,0 0.109375,0.015625 -0.03125,0 -0.234375,0.125 -0.234375,0.390625 0,0.265625 0.21875,0.421875 0.4375,0.421875 0.171875,0 0.421875,-0.125 0.421875,-0.4375 0,-0.3125 -0.3125,-0.609375 -0.734375,-0.609375 -0.734375,0 -1.09375,0.671875 -1.21875,1.09375 z m 0,0"
           id="id-344abfac-417e-4651-8850-bedd151153cd"
           style="fill:#000000;fill-opacity:1;stroke:#ff0000;stroke-opacity:1" />
      </g>
      <g
         transform="translate(71.908001,8.2409979)"
         id="g4008"
         style="fill:#000000;fill-opacity:1;stroke:#ff0000;stroke-width:0;stroke-dasharray:none;stroke-opacity:1">
        <path
           d="M 4.140625,-3.3125 C 4.234375,-3.546875 4.40625,-3.984375 5.0625,-3.984375 v -0.3125 c -0.234375,0.015625 -0.515625,0.03125 -0.75,0.03125 -0.234375,0 -0.6875,-0.015625 -0.859375,-0.03125 v 0.3125 c 0.359375,0 0.46875,0.234375 0.46875,0.421875 0,0.09375 -0.015625,0.140625 -0.046875,0.25 L 2.84375,-0.78125 1.734375,-3.5625 c -0.0625,-0.125 -0.0625,-0.140625 -0.0625,-0.171875 0,-0.25 0.390625,-0.25 0.578125,-0.25 v -0.3125 c -0.3125,0.015625 -0.859375,0.03125 -1.09375,0.03125 -0.265625,0 -0.671875,-0.015625 -0.96875,-0.03125 v 0.3125 c 0.625,0 0.671875,0.0625 0.796875,0.359375 l 1.4375,3.546875 C 2.484375,0.0625 2.5,0.109375 2.625,0.109375 c 0.140625,0 0.171875,-0.09375 0.21875,-0.1875 z m 0,0"
           id="id-f3128839-0ef2-4ab9-b481-24330f76edf7"
           style="fill:#000000;fill-opacity:1;stroke:#ff0000;stroke-opacity:1" />
      </g>
      <g
         fill="#000000"
         fill-opacity="1"
         id="id-7f13dd5f-c352-42f6-b015-f1bc7ccc540b"
         transform="translate(-148.946,-126.524)"
         style="fill:#000000;fill-opacity:1;stroke:#ff0000;stroke-opacity:1">
        <g
           transform="translate(225.555,134.765)"
           id="g1970"
           style="fill:#000000;fill-opacity:1;stroke:#ff0000;stroke-opacity:1">
          <path
             d="m 3.3125,-0.75 c 0.046875,0.390625 0.3125,0.8125 0.78125,0.8125 0.21875,0 0.828125,-0.140625 0.828125,-0.953125 v -0.5625 h -0.25 v 0.5625 c 0,0.578125 -0.25,0.640625 -0.359375,0.640625 -0.328125,0 -0.375,-0.453125 -0.375,-0.5 v -1.984375 c 0,-0.421875 0,-0.8125 -0.359375,-1.1875 C 3.1875,-4.3125 2.6875,-4.46875 2.21875,-4.46875 c -0.828125,0 -1.515625,0.46875 -1.515625,1.125 0,0.296875 0.203125,0.46875 0.46875,0.46875 0.28125,0 0.453125,-0.203125 0.453125,-0.453125 0,-0.125 -0.046875,-0.453125 -0.515625,-0.453125 C 1.390625,-4.140625 1.875,-4.25 2.1875,-4.25 c 0.5,0 1.0625,0.390625 1.0625,1.28125 v 0.359375 c -0.515625,0.03125 -1.203125,0.0625 -1.828125,0.359375 -0.75,0.34375 -1,0.859375 -1,1.296875 0,0.8125 0.96875,1.0625 1.59375,1.0625 0.65625,0 1.109375,-0.40625 1.296875,-0.859375 z M 3.25,-2.390625 v 1 c 0,0.9375 -0.71875,1.28125 -1.171875,1.28125 -0.484375,0 -0.890625,-0.34375 -0.890625,-0.84375 0,-0.546875 0.421875,-1.375 2.0625,-1.4375 z m 0,0"
             id="id-35961aea-69ba-4315-a360-348895b52263"
             style="fill:#000000;fill-opacity:1;stroke:#ff0000;stroke-opacity:1" />
        </g>
        <g
           transform="translate(230.536,134.765)"
           id="g3583"
           style="fill:#000000;fill-opacity:1;stroke:#ff0000;stroke-opacity:1">
          <path
             d="m 1.71875,-3.984375 h 1.4375 v -0.3125 H 1.71875 V -6.125 h -0.25 c 0,0.8125 -0.296875,1.875 -1.28125,1.921875 v 0.21875 h 0.84375 v 2.75 c 0,1.21875 0.9375,1.34375 1.296875,1.34375 0.703125,0 0.984375,-0.703125 0.984375,-1.34375 v -0.5625 h -0.25 V -1.25 c 0,0.734375 -0.296875,1.109375 -0.671875,1.109375 -0.671875,0 -0.671875,-0.90625 -0.671875,-1.078125 z m 0,0"
             id="id-b7456ffd-66c4-44ac-bdad-14e8cfa54fc0"
             style="fill:#000000;fill-opacity:1;stroke:#ff0000;stroke-opacity:1" />
        </g>
        <g
           transform="translate(234.411,134.765)"
           id="g2103"
           style="fill:#000000;fill-opacity:1;stroke:#ff0000;stroke-opacity:1">
          <path
             d="M 1.765625,-4.40625 0.375,-4.296875 v 0.3125 c 0.640625,0 0.734375,0.0625 0.734375,0.546875 V -0.75 c 0,0.4375 -0.109375,0.4375 -0.78125,0.4375 V 0 C 0.640625,-0.015625 1.1875,-0.03125 1.421875,-0.03125 1.78125,-0.03125 2.125,-0.015625 2.46875,0 v -0.3125 c -0.671875,0 -0.703125,-0.046875 -0.703125,-0.4375 z m 0.03125,-1.734375 c 0,-0.3125 -0.234375,-0.53125 -0.515625,-0.53125 -0.3125,0 -0.53125,0.265625 -0.53125,0.53125 0,0.265625 0.21875,0.53125 0.53125,0.53125 0.28125,0 0.515625,-0.21875 0.515625,-0.53125 z m 0,0"
             id="id-0901f1ce-542f-4bb6-9fc5-0ef0fe9c5595"
             style="fill:#000000;fill-opacity:1;stroke:#ff0000;stroke-opacity:1" />
        </g>
        <g
           transform="translate(237.178,134.765)"
           id="g8360"
           style="fill:#000000;fill-opacity:1;stroke:#ff0000;stroke-opacity:1">
          <path
             d="M 4.6875,-2.140625 C 4.6875,-3.40625 3.703125,-4.46875 2.5,-4.46875 c -1.25,0 -2.21875,1.09375 -2.21875,2.328125 0,1.296875 1.03125,2.25 2.203125,2.25 1.203125,0 2.203125,-0.984375 2.203125,-2.25 z m -2.1875,2 c -0.4375,0 -0.875,-0.203125 -1.140625,-0.671875 -0.25,-0.4375 -0.25,-1.046875 -0.25,-1.40625 0,-0.390625 0,-0.921875 0.234375,-1.359375 C 1.609375,-4.03125 2.078125,-4.25 2.484375,-4.25 c 0.4375,0 0.859375,0.21875 1.125,0.65625 0.265625,0.421875 0.265625,1 0.265625,1.375 0,0.359375 0,0.90625 -0.21875,1.34375 C 3.421875,-0.421875 2.984375,-0.140625 2.5,-0.140625 Z m 0,0"
             id="id-1a6fba79-9381-43ce-ab96-8fc4252b76cc"
             style="fill:#000000;fill-opacity:1;stroke:#ff0000;stroke-opacity:1" />
        </g>
        <g
           transform="translate(242.159,134.765)"
           id="g5946"
           style="fill:#000000;fill-opacity:1;stroke:#ff0000;stroke-opacity:1">
          <path
             d="M 1.09375,-3.421875 V -0.75 c 0,0.4375 -0.109375,0.4375 -0.78125,0.4375 V 0 c 0.359375,-0.015625 0.859375,-0.03125 1.140625,-0.03125 0.25,0 0.765625,0.015625 1.109375,0.03125 v -0.3125 c -0.671875,0 -0.78125,0 -0.78125,-0.4375 V -2.59375 C 1.78125,-3.625 2.5,-4.1875 3.125,-4.1875 c 0.640625,0 0.75,0.53125 0.75,1.109375 V -0.75 c 0,0.4375 -0.109375,0.4375 -0.78125,0.4375 V 0 c 0.34375,-0.015625 0.859375,-0.03125 1.125,-0.03125 0.25,0 0.78125,0.015625 1.109375,0.03125 v -0.3125 c -0.515625,0 -0.765625,0 -0.765625,-0.296875 v -1.90625 c 0,-0.859375 0,-1.15625 -0.3125,-1.515625 -0.140625,-0.171875 -0.46875,-0.375 -1.046875,-0.375 C 2.46875,-4.40625 2,-3.984375 1.71875,-3.359375 V -4.40625 L 0.3125,-4.296875 v 0.3125 c 0.703125,0 0.78125,0.0625 0.78125,0.5625 z m 0,0"
             id="id-83699bad-479d-4607-b70b-b9a9d24f5d9f"
             style="fill:#000000;fill-opacity:1;stroke:#ff0000;stroke-opacity:1" />
        </g>
        <g
           transform="translate(247.695,134.765)"
           id="g7558"
           style="fill:#000000;fill-opacity:1;stroke:#ff0000;stroke-opacity:1">
          <path
             d="m 2.078125,-1.9375 c 0.21875,0.046875 1.03125,0.203125 1.03125,0.921875 0,0.5 -0.34375,0.90625 -1.125,0.90625 -0.84375,0 -1.203125,-0.5625 -1.390625,-1.421875 C 0.5625,-1.65625 0.5625,-1.6875 0.453125,-1.6875 c -0.125,0 -0.125,0.0625 -0.125,0.234375 V -0.125 c 0,0.171875 0,0.234375 0.109375,0.234375 0.046875,0 0.0625,-0.015625 0.25,-0.203125 0.015625,-0.015625 0.015625,-0.03125 0.203125,-0.21875 0.4375,0.40625 0.890625,0.421875 1.09375,0.421875 1.140625,0 1.609375,-0.671875 1.609375,-1.390625 0,-0.515625 -0.296875,-0.828125 -0.421875,-0.9375 C 2.84375,-2.546875 2.453125,-2.625 2.03125,-2.703125 1.46875,-2.8125 0.8125,-2.9375 0.8125,-3.515625 c 0,-0.359375 0.25,-0.765625 1.109375,-0.765625 1.09375,0 1.15625,0.90625 1.171875,1.203125 0,0.09375 0.09375,0.09375 0.109375,0.09375 0.140625,0 0.140625,-0.046875 0.140625,-0.234375 v -1.015625 c 0,-0.15625 0,-0.234375 -0.109375,-0.234375 -0.046875,0 -0.078125,0 -0.203125,0.125 -0.03125,0.03125 -0.125,0.125 -0.171875,0.15625 -0.375,-0.28125 -0.78125,-0.28125 -0.9375,-0.28125 -1.21875,0 -1.59375,0.671875 -1.59375,1.234375 0,0.34375 0.15625,0.625 0.421875,0.84375 0.328125,0.25 0.609375,0.3125 1.328125,0.453125 z m 0,0"
             id="id-f19657d8-c86f-4683-b81a-c5014d217381"
             style="fill:#000000;fill-opacity:1;stroke:#ff0000;stroke-opacity:1" />
        </g>
      </g>
    </g>
    <text
       transform="translate(41.76,248.60) rotate(-90)"
       text-anchor="middle"
       style="font-size: 12.00px; font-family: &quot;Arial&quot;;"
       textLength="33.37px"
       lengthAdjust="spacingAndGlyphs"
       id="text59">30000</text>
    <text
       transform="translate(41.76,169.41) rotate(-90)"
       text-anchor="middle"
       style="font-size: 12.00px; font-family: &quot;Arial&quot;;"
       textLength="33.37px"
       lengthAdjust="spacingAndGlyphs"
       id="text60">40000</text>
    <text
       transform="translate(41.76,90.22) rotate(-90)"
       text-anchor="middle"
       style="font-size: 12.00px; font-family: &quot;Arial&quot;;"
       textLength="33.37px"
       lengthAdjust="spacingAndGlyphs"
       id="text61">50000</text>
    <polygon
       points="59.04,502.56 689.76,502.56 689.76,59.04 59.04,59.04 "
       style="stroke-width: 0.75;"
       id="polygon61" />
    <g
       id="g1"
       transform="matrix(1.4704815,0,0,1.4704815,-3.4190397,-105.30539)">
      <g
         ns1:version="1.10.2"
         ns1:texconverter="pdflatex"
         ns1:pdfconverter="inkscape"
         ns1:text="$T^{2}$ Values\nObservations"
         ns1:preamble="/Users/kevin.pineda/Library/Application Support/org.inkscape.Inkscape/config/inkscape/extensions/textext/default_packages.tex"
         ns1:scale="1.0"
         ns1:alignment="middle center"
         ns1:stroke-to-path="0"
         id="g1170"
         transform="matrix(1.2089596,0,0,1.2089596,336.03449,422.68288)"
         ns1:jacobian_sqrt="1.0"
         style="fill:#000000;fill-opacity:1;stroke:#ff0000;stroke-width:0;stroke-dasharray:none;stroke-opacity:1">
        <defs
           id="id-3490c3f1-bbe9-4410-8fd6-147ff90d47ff"
           style="fill:url(#linearGradient103)">
          <g
             id="id-0232b5ef-cb07-4115-a7e8-f5a2e9250c99"
             style="fill:url(#linearGradient103)">
            <g
               id="id-bb846222-d8a8-4ee4-a1d7-c4d90e1b5108"
               style="fill:url(#linearGradient103)">
              <path
                 d="m 4.25,-6.046875 c 0.078125,-0.28125 0.109375,-0.34375 0.234375,-0.375 0.09375,-0.015625 0.421875,-0.015625 0.625,-0.015625 1.015625,0 1.453125,0.03125 1.453125,0.8125 0,0.15625 -0.03125,0.546875 -0.078125,0.796875 0,0.046875 -0.03125,0.15625 -0.03125,0.1875 0,0.0625 0.03125,0.140625 0.125,0.140625 0.109375,0 0.125,-0.078125 0.15625,-0.234375 L 7,-6.46875 C 7.015625,-6.515625 7.015625,-6.609375 7.015625,-6.640625 7.015625,-6.75 6.921875,-6.75 6.75,-6.75 H 1.21875 c -0.234375,0 -0.25,0.015625 -0.328125,0.203125 l -0.59375,1.75 c 0,0.015625 -0.0625,0.15625 -0.0625,0.1875 0,0.046875 0.0625,0.109375 0.125,0.109375 0.09375,0 0.109375,-0.0625 0.171875,-0.21875 C 1.0625,-6.265625 1.328125,-6.4375 2.796875,-6.4375 H 3.1875 c 0.28125,0 0.28125,0.03125 0.28125,0.125 0,0.046875 -0.03125,0.171875 -0.046875,0.203125 L 2.09375,-0.78125 C 2,-0.421875 1.96875,-0.3125 0.90625,-0.3125 c -0.359375,0 -0.421875,0 -0.421875,0.1875 C 0.484375,0 0.59375,0 0.65625,0 c 0.265625,0 0.546875,-0.015625 0.8125,-0.015625 0.28125,0 0.578125,-0.015625 0.859375,-0.015625 0.28125,0 0.546875,0.015625 0.828125,0.015625 C 3.4375,-0.015625 3.734375,0 4.015625,0 c 0.09375,0 0.21875,0 0.21875,-0.203125 0,-0.109375 -0.078125,-0.109375 -0.34375,-0.109375 -0.234375,0 -0.375,0 -0.625,-0.015625 -0.296875,-0.03125 -0.375,-0.0625 -0.375,-0.21875 0,-0.015625 0,-0.0625 0.046875,-0.203125 z m 0,0"
                 id="id-225aaa54-d038-448b-bc23-7313d13b937d"
                 style="fill:url(#linearGradient103)" />
            </g>
            <g
               id="id-65fd8d20-f7fe-4f96-875b-957ccbea4dfe"
               style="fill:url(#linearGradient103)">
              <path
                 d="M 3.515625,-1.265625 H 3.28125 c -0.015625,0.15625 -0.09375,0.5625 -0.1875,0.625 C 3.046875,-0.59375 2.515625,-0.59375 2.40625,-0.59375 H 1.125 c 0.734375,-0.640625 0.984375,-0.84375 1.390625,-1.171875 0.515625,-0.40625 1,-0.84375 1,-1.5 0,-0.84375 -0.734375,-1.359375 -1.625,-1.359375 -0.859375,0 -1.453125,0.609375 -1.453125,1.25 0,0.34375 0.296875,0.390625 0.375,0.390625 0.15625,0 0.359375,-0.125 0.359375,-0.375 0,-0.125 -0.046875,-0.375 -0.40625,-0.375 C 0.984375,-4.21875 1.453125,-4.375 1.78125,-4.375 c 0.703125,0 1.0625,0.546875 1.0625,1.109375 0,0.609375 -0.4375,1.078125 -0.65625,1.328125 L 0.515625,-0.265625 C 0.4375,-0.203125 0.4375,-0.1875 0.4375,0 h 2.875 z m 0,0"
                 id="id-9296ecb3-1044-4ba3-b4c1-364be3d4e70e"
                 style="fill:url(#linearGradient103)" />
            </g>
            <g
               id="id-2078b5d3-bfbf-404d-b6c4-6334166a2b28"
               style="fill:url(#linearGradient103)">
              <path
                 d="M 6.1875,-5.828125 C 6.328125,-6.203125 6.59375,-6.484375 7.28125,-6.5 v -0.3125 c -0.3125,0.03125 -0.71875,0.03125 -0.96875,0.03125 -0.296875,0 -0.875,-0.015625 -1.140625,-0.03125 V -6.5 C 5.6875,-6.484375 5.90625,-6.234375 5.90625,-6 c 0,0.078125 -0.03125,0.140625 -0.046875,0.203125 L 4.03125,-1 2.125,-6.03125 C 2.0625,-6.171875 2.0625,-6.1875 2.0625,-6.203125 2.0625,-6.5 2.625,-6.5 2.875,-6.5 v -0.3125 c -0.359375,0.03125 -1.046875,0.03125 -1.421875,0.03125 -0.46875,0 -0.90625,-0.015625 -1.265625,-0.03125 V -6.5 c 0.65625,0 0.84375,0 0.984375,0.375 L 3.484375,0 c 0.0625,0.1875 0.109375,0.21875 0.25,0.21875 0.15625,0 0.1875,-0.046875 0.234375,-0.1875 z m 0,0"
                 id="id-77006fc4-34ba-41ef-83da-b8b70ad10155"
                 style="fill:url(#linearGradient103)" />
            </g>
            <g
               id="id-7066e1e3-dde4-4f6a-bd82-f03e629d24c1"
               style="fill:url(#linearGradient103)">
              <path
                 d="m 3.3125,-0.75 c 0.046875,0.390625 0.3125,0.8125 0.78125,0.8125 0.21875,0 0.828125,-0.140625 0.828125,-0.953125 v -0.5625 h -0.25 v 0.5625 c 0,0.578125 -0.25,0.640625 -0.359375,0.640625 -0.328125,0 -0.375,-0.453125 -0.375,-0.5 v -1.984375 c 0,-0.421875 0,-0.8125 -0.359375,-1.1875 C 3.1875,-4.3125 2.6875,-4.46875 2.21875,-4.46875 c -0.828125,0 -1.515625,0.46875 -1.515625,1.125 0,0.296875 0.203125,0.46875 0.46875,0.46875 0.28125,0 0.453125,-0.203125 0.453125,-0.453125 0,-0.125 -0.046875,-0.453125 -0.515625,-0.453125 C 1.390625,-4.140625 1.875,-4.25 2.1875,-4.25 c 0.5,0 1.0625,0.390625 1.0625,1.28125 v 0.359375 c -0.515625,0.03125 -1.203125,0.0625 -1.828125,0.359375 -0.75,0.34375 -1,0.859375 -1,1.296875 0,0.8125 0.96875,1.0625 1.59375,1.0625 0.65625,0 1.109375,-0.40625 1.296875,-0.859375 z M 3.25,-2.390625 v 1 c 0,0.9375 -0.71875,1.28125 -1.171875,1.28125 -0.484375,0 -0.890625,-0.34375 -0.890625,-0.84375 0,-0.546875 0.421875,-1.375 2.0625,-1.4375 z m 0,0"
                 id="id-fa0d6e6a-4b00-4e4b-a004-083c4eb86dd2"
                 style="fill:url(#linearGradient103)" />
            </g>
            <g
               id="id-12be7e47-9c25-4e2e-9061-ecb59e96cc28"
               style="fill:url(#linearGradient103)">
              <path
                 d="M 1.765625,-6.921875 0.328125,-6.8125 V -6.5 c 0.703125,0 0.78125,0.0625 0.78125,0.5625 V -0.75 c 0,0.4375 -0.109375,0.4375 -0.78125,0.4375 V 0 C 0.65625,-0.015625 1.1875,-0.03125 1.4375,-0.03125 c 0.25,0 0.734375,0.015625 1.109375,0.03125 v -0.3125 c -0.671875,0 -0.78125,0 -0.78125,-0.4375 z m 0,0"
                 id="id-66e6edbd-1153-49e6-8240-1f3e2facc953"
                 style="fill:url(#linearGradient103)" />
            </g>
            <g
               id="id-4689cf1f-3089-4159-ba90-37891691c097"
               style="fill:url(#linearGradient103)">
              <path
                 d="M 3.890625,-0.78125 V 0.109375 L 5.328125,0 V -0.3125 C 4.640625,-0.3125 4.5625,-0.375 4.5625,-0.875 v -3.53125 l -1.46875,0.109375 v 0.3125 c 0.6875,0 0.78125,0.0625 0.78125,0.5625 v 1.765625 c 0,0.875 -0.484375,1.546875 -1.21875,1.546875 -0.828125,0 -0.875,-0.46875 -0.875,-0.984375 v -3.3125 L 0.3125,-4.296875 v 0.3125 c 0.78125,0 0.78125,0.03125 0.78125,0.90625 v 1.5 c 0,0.78125 0,1.6875 1.515625,1.6875 0.5625,0 1,-0.28125 1.28125,-0.890625 z m 0,0"
                 id="id-51f519de-d35a-47f4-9ad0-c2f822f3ae6f"
                 style="fill:url(#linearGradient103)" />
            </g>
            <g
               id="id-6a894605-bbfb-402d-b71b-a3318fa74c97"
               style="fill:url(#linearGradient103)">
              <path
                 d="M 1.109375,-2.515625 C 1.171875,-4 2.015625,-4.25 2.359375,-4.25 c 1.015625,0 1.125,1.34375 1.125,1.734375 z m 0,0.21875 h 2.78125 c 0.21875,0 0.25,0 0.25,-0.21875 0,-0.984375 -0.546875,-1.953125 -1.78125,-1.953125 -1.15625,0 -2.078125,1.03125 -2.078125,2.28125 0,1.328125 1.046875,2.296875 2.1875,2.296875 C 3.6875,0.109375 4.140625,-1 4.140625,-1.1875 4.140625,-1.28125 4.0625,-1.3125 4,-1.3125 c -0.078125,0 -0.109375,0.0625 -0.125,0.140625 -0.34375,1.03125 -1.25,1.03125 -1.34375,1.03125 -0.5,0 -0.890625,-0.296875 -1.125,-0.671875 -0.296875,-0.46875 -0.296875,-1.125 -0.296875,-1.484375 z m 0,0"
                 id="id-fe9a73db-af39-48ae-bf54-9fd683296a06"
                 style="fill:url(#linearGradient103)" />
            </g>
            <g
               id="id-1b85035e-0c21-4fec-a20e-e6c510ff2787"
               style="fill:url(#linearGradient103)">
              <path
                 d="m 2.078125,-1.9375 c 0.21875,0.046875 1.03125,0.203125 1.03125,0.921875 0,0.5 -0.34375,0.90625 -1.125,0.90625 -0.84375,0 -1.203125,-0.5625 -1.390625,-1.421875 C 0.5625,-1.65625 0.5625,-1.6875 0.453125,-1.6875 c -0.125,0 -0.125,0.0625 -0.125,0.234375 V -0.125 c 0,0.171875 0,0.234375 0.109375,0.234375 0.046875,0 0.0625,-0.015625 0.25,-0.203125 0.015625,-0.015625 0.015625,-0.03125 0.203125,-0.21875 0.4375,0.40625 0.890625,0.421875 1.09375,0.421875 1.140625,0 1.609375,-0.671875 1.609375,-1.390625 0,-0.515625 -0.296875,-0.828125 -0.421875,-0.9375 C 2.84375,-2.546875 2.453125,-2.625 2.03125,-2.703125 1.46875,-2.8125 0.8125,-2.9375 0.8125,-3.515625 c 0,-0.359375 0.25,-0.765625 1.109375,-0.765625 1.09375,0 1.15625,0.90625 1.171875,1.203125 0,0.09375 0.09375,0.09375 0.109375,0.09375 0.140625,0 0.140625,-0.046875 0.140625,-0.234375 v -1.015625 c 0,-0.15625 0,-0.234375 -0.109375,-0.234375 -0.046875,0 -0.078125,0 -0.203125,0.125 -0.03125,0.03125 -0.125,0.125 -0.171875,0.15625 -0.375,-0.28125 -0.78125,-0.28125 -0.9375,-0.28125 -1.21875,0 -1.59375,0.671875 -1.59375,1.234375 0,0.34375 0.15625,0.625 0.421875,0.84375 0.328125,0.25 0.609375,0.3125 1.328125,0.453125 z m 0,0"
                 id="id-e25f6cba-da70-4313-9729-f28423355b6b"
                 style="fill:url(#linearGradient103)" />
            </g>
            <g
               id="id-98614a52-d97b-4c4f-bd9d-65f0779712bc"
               style="fill:url(#linearGradient103)">
              <path
                 d="m 7.1875,-3.375 c 0,-2.03125 -1.5,-3.65625 -3.3125,-3.65625 -1.796875,0 -3.3125,1.59375 -3.3125,3.65625 0,2.046875 1.53125,3.59375 3.3125,3.59375 1.8125,0 3.3125,-1.578125 3.3125,-3.59375 z M 3.875,-0.046875 c -0.953125,0 -2.296875,-0.875 -2.296875,-3.46875 0,-2.578125 1.46875,-3.265625 2.296875,-3.265625 0.859375,0 2.28125,0.703125 2.28125,3.265625 0,2.640625 -1.359375,3.46875 -2.28125,3.46875 z m 0,0"
                 id="id-e066990b-6db4-4ca4-bb11-a404ab24b25a"
                 style="fill:url(#linearGradient103)" />
            </g>
            <g
               id="id-e4631fb9-c8c3-4932-9315-9b4c641a42ae"
               style="fill:url(#linearGradient103)">
              <path
                 d="m 1.71875,-3.765625 v -3.15625 L 0.28125,-6.8125 V -6.5 c 0.703125,0 0.78125,0.0625 0.78125,0.5625 V 0 h 0.25 c 0,-0.015625 0.078125,-0.15625 0.359375,-0.625 0.140625,0.234375 0.5625,0.734375 1.296875,0.734375 1.1875,0 2.21875,-0.984375 2.21875,-2.265625 0,-1.265625 -0.96875,-2.25 -2.109375,-2.25 -0.78125,0 -1.203125,0.46875 -1.359375,0.640625 z m 0.03125,2.625 V -3.1875 c 0,-0.1875 0,-0.203125 0.109375,-0.359375 C 2.25,-4.109375 2.796875,-4.1875 3.03125,-4.1875 c 0.453125,0 0.8125,0.265625 1.046875,0.640625 0.265625,0.40625 0.28125,0.96875 0.28125,1.390625 0,0.359375 -0.015625,0.953125 -0.296875,1.40625 -0.21875,0.3125 -0.59375,0.640625 -1.125,0.640625 -0.453125,0 -0.8125,-0.234375 -1.046875,-0.609375 C 1.75,-0.921875 1.75,-0.953125 1.75,-1.140625 Z m 0,0"
                 id="id-cfea88f9-3e1c-4e88-9bd3-b0b702ee6d20"
                 style="fill:url(#linearGradient103)" />
            </g>
            <g
               id="id-8013726a-ce1f-411e-92bb-473daa1be121"
               style="fill:url(#linearGradient103)">
              <path
                 d="M 1.671875,-3.3125 V -4.40625 L 0.28125,-4.296875 v 0.3125 c 0.703125,0 0.78125,0.0625 0.78125,0.5625 V -0.75 c 0,0.4375 -0.109375,0.4375 -0.78125,0.4375 V 0 c 0.390625,-0.015625 0.859375,-0.03125 1.140625,-0.03125 0.390625,0 0.859375,0 1.265625,0.03125 V -0.3125 H 2.46875 c -0.734375,0 -0.75,-0.109375 -0.75,-0.46875 V -2.3125 c 0,-0.984375 0.421875,-1.875 1.171875,-1.875 0.0625,0 0.09375,0 0.109375,0.015625 -0.03125,0 -0.234375,0.125 -0.234375,0.390625 0,0.265625 0.21875,0.421875 0.4375,0.421875 0.171875,0 0.421875,-0.125 0.421875,-0.4375 0,-0.3125 -0.3125,-0.609375 -0.734375,-0.609375 -0.734375,0 -1.09375,0.671875 -1.21875,1.09375 z m 0,0"
                 id="id-ddc04b5d-9190-4009-9d66-4b15237d7b9d"
                 style="fill:url(#linearGradient103)" />
            </g>
            <g
               id="id-8a782b37-a371-450e-8349-c4c82f31c1d0"
               style="fill:url(#linearGradient103)">
              <path
                 d="M 4.140625,-3.3125 C 4.234375,-3.546875 4.40625,-3.984375 5.0625,-3.984375 v -0.3125 c -0.234375,0.015625 -0.515625,0.03125 -0.75,0.03125 -0.234375,0 -0.6875,-0.015625 -0.859375,-0.03125 v 0.3125 c 0.359375,0 0.46875,0.234375 0.46875,0.421875 0,0.09375 -0.015625,0.140625 -0.046875,0.25 L 2.84375,-0.78125 1.734375,-3.5625 c -0.0625,-0.125 -0.0625,-0.140625 -0.0625,-0.171875 0,-0.25 0.390625,-0.25 0.578125,-0.25 v -0.3125 c -0.3125,0.015625 -0.859375,0.03125 -1.09375,0.03125 -0.265625,0 -0.671875,-0.015625 -0.96875,-0.03125 v 0.3125 c 0.625,0 0.671875,0.0625 0.796875,0.359375 l 1.4375,3.546875 C 2.484375,0.0625 2.5,0.109375 2.625,0.109375 c 0.140625,0 0.171875,-0.09375 0.21875,-0.1875 z m 0,0"
                 id="id-6cfa9400-68b4-40b5-9ea5-62ad29b31382"
                 style="fill:url(#linearGradient103)" />
            </g>
            <g
               id="id-293533c3-7613-4b18-a854-b685cf8cde84"
               style="fill:url(#linearGradient103)">
              <path
                 d="m 1.71875,-3.984375 h 1.4375 v -0.3125 H 1.71875 V -6.125 h -0.25 c 0,0.8125 -0.296875,1.875 -1.28125,1.921875 v 0.21875 h 0.84375 v 2.75 c 0,1.21875 0.9375,1.34375 1.296875,1.34375 0.703125,0 0.984375,-0.703125 0.984375,-1.34375 v -0.5625 h -0.25 V -1.25 c 0,0.734375 -0.296875,1.109375 -0.671875,1.109375 -0.671875,0 -0.671875,-0.90625 -0.671875,-1.078125 z m 0,0"
                 id="id-bcc0d924-03ca-4e84-8959-9c0a8d346773"
                 style="fill:url(#linearGradient103)" />
            </g>
            <g
               id="id-a6e93082-e55e-460f-8463-5c0186b4b199"
               style="fill:url(#linearGradient103)">
              <path
                 d="M 1.765625,-4.40625 0.375,-4.296875 v 0.3125 c 0.640625,0 0.734375,0.0625 0.734375,0.546875 V -0.75 c 0,0.4375 -0.109375,0.4375 -0.78125,0.4375 V 0 C 0.640625,-0.015625 1.1875,-0.03125 1.421875,-0.03125 1.78125,-0.03125 2.125,-0.015625 2.46875,0 v -0.3125 c -0.671875,0 -0.703125,-0.046875 -0.703125,-0.4375 z m 0.03125,-1.734375 c 0,-0.3125 -0.234375,-0.53125 -0.515625,-0.53125 -0.3125,0 -0.53125,0.265625 -0.53125,0.53125 0,0.265625 0.21875,0.53125 0.53125,0.53125 0.28125,0 0.515625,-0.21875 0.515625,-0.53125 z m 0,0"
                 id="id-44eb9dbb-f80f-40c2-bdae-32f0ec941519"
                 style="fill:url(#linearGradient103)" />
            </g>
            <g
               id="id-6524c81a-dace-452b-a886-950338247894"
               style="fill:url(#linearGradient103)">
              <path
                 d="M 4.6875,-2.140625 C 4.6875,-3.40625 3.703125,-4.46875 2.5,-4.46875 c -1.25,0 -2.21875,1.09375 -2.21875,2.328125 0,1.296875 1.03125,2.25 2.203125,2.25 1.203125,0 2.203125,-0.984375 2.203125,-2.25 z m -2.1875,2 c -0.4375,0 -0.875,-0.203125 -1.140625,-0.671875 -0.25,-0.4375 -0.25,-1.046875 -0.25,-1.40625 0,-0.390625 0,-0.921875 0.234375,-1.359375 C 1.609375,-4.03125 2.078125,-4.25 2.484375,-4.25 c 0.4375,0 0.859375,0.21875 1.125,0.65625 0.265625,0.421875 0.265625,1 0.265625,1.375 0,0.359375 0,0.90625 -0.21875,1.34375 C 3.421875,-0.421875 2.984375,-0.140625 2.5,-0.140625 Z m 0,0"
                 id="id-e9de1579-bb3e-423d-9903-6bf56eb6f973"
                 style="fill:url(#linearGradient103)" />
            </g>
            <g
               id="id-7148e1fe-a847-4dd9-998e-759454562097"
               style="fill:url(#linearGradient103)">
              <path
                 d="M 1.09375,-3.421875 V -0.75 c 0,0.4375 -0.109375,0.4375 -0.78125,0.4375 V 0 c 0.359375,-0.015625 0.859375,-0.03125 1.140625,-0.03125 0.25,0 0.765625,0.015625 1.109375,0.03125 v -0.3125 c -0.671875,0 -0.78125,0 -0.78125,-0.4375 V -2.59375 C 1.78125,-3.625 2.5,-4.1875 3.125,-4.1875 c 0.640625,0 0.75,0.53125 0.75,1.109375 V -0.75 c 0,0.4375 -0.109375,0.4375 -0.78125,0.4375 V 0 c 0.34375,-0.015625 0.859375,-0.03125 1.125,-0.03125 0.25,0 0.78125,0.015625 1.109375,0.03125 v -0.3125 c -0.515625,0 -0.765625,0 -0.765625,-0.296875 v -1.90625 c 0,-0.859375 0,-1.15625 -0.3125,-1.515625 -0.140625,-0.171875 -0.46875,-0.375 -1.046875,-0.375 C 2.46875,-4.40625 2,-3.984375 1.71875,-3.359375 V -4.40625 L 0.3125,-4.296875 v 0.3125 c 0.703125,0 0.78125,0.0625 0.78125,0.5625 z m 0,0"
                 id="id-189b1984-5b03-475d-be74-b09b01f69da9"
                 style="fill:url(#linearGradient103)" />
            </g>
          </g>
        </defs>
        <g
           id="g104"
           transform="rotate(-90,-196.78485,75.010602)">
          <g
             fill="#000000"
             fill-opacity="1"
             id="id-e24d5cf5-888a-4328-8b0e-e18a73bd9cb6"
             transform="translate(-148.946,-126.524)"
             style="fill:#000000;fill-opacity:1;stroke:#ff0000;stroke-opacity:1">
            <g
               transform="translate(163.708,134.765)"
               id="g9235"
               style="fill:#000000;fill-opacity:1;stroke:#ff0000;stroke-opacity:1">
              <path
                 d="M 6.1875,-5.828125 C 6.328125,-6.203125 6.59375,-6.484375 7.28125,-6.5 v -0.3125 c -0.3125,0.03125 -0.71875,0.03125 -0.96875,0.03125 -0.296875,0 -0.875,-0.015625 -1.140625,-0.03125 V -6.5 C 5.6875,-6.484375 5.90625,-6.234375 5.90625,-6 c 0,0.078125 -0.03125,0.140625 -0.046875,0.203125 L 4.03125,-1 2.125,-6.03125 C 2.0625,-6.171875 2.0625,-6.1875 2.0625,-6.203125 2.0625,-6.5 2.625,-6.5 2.875,-6.5 v -0.3125 c -0.359375,0.03125 -1.046875,0.03125 -1.421875,0.03125 -0.46875,0 -0.90625,-0.015625 -1.265625,-0.03125 V -6.5 c 0.65625,0 0.84375,0 0.984375,0.375 L 3.484375,0 c 0.0625,0.1875 0.109375,0.21875 0.25,0.21875 0.15625,0 0.1875,-0.046875 0.234375,-0.1875 z m 0,0"
                 id="id-60bd8d4e-0d9d-43a6-8f59-51350a6a9315"
                 style="fill:#000000;fill-opacity:1;stroke:#ff0000;stroke-opacity:1" />
            </g>
          </g>
          <g
             fill="#000000"
             fill-opacity="1"
             id="id-e349806a-7da0-470f-8cda-51df31c5c444"
             transform="translate(-148.946,-126.524)"
             style="fill:#000000;fill-opacity:1;stroke:#ff0000;stroke-opacity:1">
            <g
               transform="translate(170.353,134.765)"
               id="g3078"
               style="fill:#000000;fill-opacity:1;stroke:#ff0000;stroke-opacity:1">
              <path
                 d="m 3.3125,-0.75 c 0.046875,0.390625 0.3125,0.8125 0.78125,0.8125 0.21875,0 0.828125,-0.140625 0.828125,-0.953125 v -0.5625 h -0.25 v 0.5625 c 0,0.578125 -0.25,0.640625 -0.359375,0.640625 -0.328125,0 -0.375,-0.453125 -0.375,-0.5 v -1.984375 c 0,-0.421875 0,-0.8125 -0.359375,-1.1875 C 3.1875,-4.3125 2.6875,-4.46875 2.21875,-4.46875 c -0.828125,0 -1.515625,0.46875 -1.515625,1.125 0,0.296875 0.203125,0.46875 0.46875,0.46875 0.28125,0 0.453125,-0.203125 0.453125,-0.453125 0,-0.125 -0.046875,-0.453125 -0.515625,-0.453125 C 1.390625,-4.140625 1.875,-4.25 2.1875,-4.25 c 0.5,0 1.0625,0.390625 1.0625,1.28125 v 0.359375 c -0.515625,0.03125 -1.203125,0.0625 -1.828125,0.359375 -0.75,0.34375 -1,0.859375 -1,1.296875 0,0.8125 0.96875,1.0625 1.59375,1.0625 0.65625,0 1.109375,-0.40625 1.296875,-0.859375 z M 3.25,-2.390625 v 1 c 0,0.9375 -0.71875,1.28125 -1.171875,1.28125 -0.484375,0 -0.890625,-0.34375 -0.890625,-0.84375 0,-0.546875 0.421875,-1.375 2.0625,-1.4375 z m 0,0"
                 id="id-45aed623-319a-4aa2-b327-8fbd2b6a5866"
                 style="fill:#000000;fill-opacity:1;stroke:#ff0000;stroke-opacity:1" />
            </g>
            <g
               transform="translate(175.334,134.765)"
               id="g8127"
               style="fill:#000000;fill-opacity:1;stroke:#ff0000;stroke-opacity:1">
              <path
                 d="M 1.765625,-6.921875 0.328125,-6.8125 V -6.5 c 0.703125,0 0.78125,0.0625 0.78125,0.5625 V -0.75 c 0,0.4375 -0.109375,0.4375 -0.78125,0.4375 V 0 C 0.65625,-0.015625 1.1875,-0.03125 1.4375,-0.03125 c 0.25,0 0.734375,0.015625 1.109375,0.03125 v -0.3125 c -0.671875,0 -0.78125,0 -0.78125,-0.4375 z m 0,0"
                 id="id-52bcfc12-efcf-449f-b5e6-e43935133abc"
                 style="fill:#000000;fill-opacity:1;stroke:#ff0000;stroke-opacity:1" />
            </g>
            <g
               transform="translate(178.102,134.765)"
               id="g8675"
               style="fill:#000000;fill-opacity:1;stroke:#ff0000;stroke-opacity:1">
              <path
                 d="M 3.890625,-0.78125 V 0.109375 L 5.328125,0 V -0.3125 C 4.640625,-0.3125 4.5625,-0.375 4.5625,-0.875 v -3.53125 l -1.46875,0.109375 v 0.3125 c 0.6875,0 0.78125,0.0625 0.78125,0.5625 v 1.765625 c 0,0.875 -0.484375,1.546875 -1.21875,1.546875 -0.828125,0 -0.875,-0.46875 -0.875,-0.984375 v -3.3125 L 0.3125,-4.296875 v 0.3125 c 0.78125,0 0.78125,0.03125 0.78125,0.90625 v 1.5 c 0,0.78125 0,1.6875 1.515625,1.6875 0.5625,0 1,-0.28125 1.28125,-0.890625 z m 0,0"
                 id="id-fdbf19d9-9f61-4732-bd9c-3e1b23b0876e"
                 style="fill:#000000;fill-opacity:1;stroke:#ff0000;stroke-opacity:1" />
            </g>
            <g
               transform="translate(183.637,134.765)"
               id="g4480"
               style="fill:#000000;fill-opacity:1;stroke:#ff0000;stroke-opacity:1">
              <path
                 d="M 1.109375,-2.515625 C 1.171875,-4 2.015625,-4.25 2.359375,-4.25 c 1.015625,0 1.125,1.34375 1.125,1.734375 z m 0,0.21875 h 2.78125 c 0.21875,0 0.25,0 0.25,-0.21875 0,-0.984375 -0.546875,-1.953125 -1.78125,-1.953125 -1.15625,0 -2.078125,1.03125 -2.078125,2.28125 0,1.328125 1.046875,2.296875 2.1875,2.296875 C 3.6875,0.109375 4.140625,-1 4.140625,-1.1875 4.140625,-1.28125 4.0625,-1.3125 4,-1.3125 c -0.078125,0 -0.109375,0.0625 -0.125,0.140625 -0.34375,1.03125 -1.25,1.03125 -1.34375,1.03125 -0.5,0 -0.890625,-0.296875 -1.125,-0.671875 -0.296875,-0.46875 -0.296875,-1.125 -0.296875,-1.484375 z m 0,0"
                 id="id-6284caf6-8b8a-4d9e-9083-2156096f04a0"
                 style="fill:#000000;fill-opacity:1;stroke:#ff0000;stroke-opacity:1" />
            </g>
            <g
               transform="translate(188.065,134.765)"
               id="g8900"
               style="fill:#000000;fill-opacity:1;stroke:#ff0000;stroke-opacity:1">
              <path
                 d="m 2.078125,-1.9375 c 0.21875,0.046875 1.03125,0.203125 1.03125,0.921875 0,0.5 -0.34375,0.90625 -1.125,0.90625 -0.84375,0 -1.203125,-0.5625 -1.390625,-1.421875 C 0.5625,-1.65625 0.5625,-1.6875 0.453125,-1.6875 c -0.125,0 -0.125,0.0625 -0.125,0.234375 V -0.125 c 0,0.171875 0,0.234375 0.109375,0.234375 0.046875,0 0.0625,-0.015625 0.25,-0.203125 0.015625,-0.015625 0.015625,-0.03125 0.203125,-0.21875 0.4375,0.40625 0.890625,0.421875 1.09375,0.421875 1.140625,0 1.609375,-0.671875 1.609375,-1.390625 0,-0.515625 -0.296875,-0.828125 -0.421875,-0.9375 C 2.84375,-2.546875 2.453125,-2.625 2.03125,-2.703125 1.46875,-2.8125 0.8125,-2.9375 0.8125,-3.515625 c 0,-0.359375 0.25,-0.765625 1.109375,-0.765625 1.09375,0 1.15625,0.90625 1.171875,1.203125 0,0.09375 0.09375,0.09375 0.109375,0.09375 0.140625,0 0.140625,-0.046875 0.140625,-0.234375 v -1.015625 c 0,-0.15625 0,-0.234375 -0.109375,-0.234375 -0.046875,0 -0.078125,0 -0.203125,0.125 -0.03125,0.03125 -0.125,0.125 -0.171875,0.15625 -0.375,-0.28125 -0.78125,-0.28125 -0.9375,-0.28125 -1.21875,0 -1.59375,0.671875 -1.59375,1.234375 0,0.34375 0.15625,0.625 0.421875,0.84375 0.328125,0.25 0.609375,0.3125 1.328125,0.453125 z m 0,0"
                 id="id-640115ca-cbad-4482-ae01-38353097b362"
                 style="fill:#000000;fill-opacity:1;stroke:#ff0000;stroke-opacity:1" />
            </g>
          </g>
        </g>
      </g>
      <g
         ns1:version="1.10.2"
         ns1:texconverter="pdflatex"
         ns1:pdfconverter="inkscape"
         ns1:text="$T^{2}_{MRCD}$"
         ns1:preamble="/Users/kevin.pineda/Library/Application Support/org.inkscape.Inkscape/config/inkscape/extensions/textext/default_packages.tex"
         ns1:scale="1.0"
         ns1:alignment="middle center"
         ns1:stroke-to-path="0"
         ns1:inkscapeversion="1.3.2"
         id="g7506"
         transform="matrix(0,-1.222492,1.222492,0,7.2671083,296.53271)"
         ns1:jacobian_sqrt="1.0"
         style="fill:#000000;fill-opacity:1;stroke:none;stroke-width:0.5;stroke-dasharray:none;stroke-opacity:1">
        <defs
           id="id-4a9459f8-cce0-499a-8a0f-113baf1c1286">
          <g
             id="g35">
            <g
               id="g29">
              <path
                 d="m 4.25,-6.046875 c 0.078125,-0.28125 0.109375,-0.34375 0.234375,-0.375 0.09375,-0.015625 0.421875,-0.015625 0.625,-0.015625 1.015625,0 1.453125,0.03125 1.453125,0.8125 0,0.15625 -0.03125,0.546875 -0.078125,0.796875 0,0.046875 -0.03125,0.15625 -0.03125,0.1875 0,0.0625 0.03125,0.140625 0.125,0.140625 0.109375,0 0.125,-0.078125 0.15625,-0.234375 L 7,-6.46875 C 7.015625,-6.515625 7.015625,-6.609375 7.015625,-6.640625 7.015625,-6.75 6.921875,-6.75 6.75,-6.75 H 1.21875 c -0.234375,0 -0.25,0.015625 -0.328125,0.203125 l -0.59375,1.75 c 0,0.015625 -0.0625,0.15625 -0.0625,0.1875 0,0.046875 0.0625,0.109375 0.125,0.109375 0.09375,0 0.109375,-0.0625 0.171875,-0.21875 C 1.0625,-6.265625 1.328125,-6.4375 2.796875,-6.4375 H 3.1875 c 0.28125,0 0.28125,0.03125 0.28125,0.125 0,0.046875 -0.03125,0.171875 -0.046875,0.203125 L 2.09375,-0.78125 C 2,-0.421875 1.96875,-0.3125 0.90625,-0.3125 c -0.359375,0 -0.421875,0 -0.421875,0.1875 C 0.484375,0 0.59375,0 0.65625,0 c 0.265625,0 0.546875,-0.015625 0.8125,-0.015625 0.28125,0 0.578125,-0.015625 0.859375,-0.015625 0.28125,0 0.546875,0.015625 0.828125,0.015625 C 3.4375,-0.015625 3.734375,0 4.015625,0 c 0.09375,0 0.21875,0 0.21875,-0.203125 0,-0.109375 -0.078125,-0.109375 -0.34375,-0.109375 -0.234375,0 -0.375,0 -0.625,-0.015625 -0.296875,-0.03125 -0.375,-0.0625 -0.375,-0.21875 0,-0.015625 0,-0.0625 0.046875,-0.203125 z m 0,0"
                 id="path29" />
            </g>
            <g
               id="g30">
              <path
                 d="M 3.515625,-1.265625 H 3.28125 c -0.015625,0.15625 -0.09375,0.5625 -0.1875,0.625 C 3.046875,-0.59375 2.515625,-0.59375 2.40625,-0.59375 H 1.125 c 0.734375,-0.640625 0.984375,-0.84375 1.390625,-1.171875 0.515625,-0.40625 1,-0.84375 1,-1.5 0,-0.84375 -0.734375,-1.359375 -1.625,-1.359375 -0.859375,0 -1.453125,0.609375 -1.453125,1.25 0,0.34375 0.296875,0.390625 0.375,0.390625 0.15625,0 0.359375,-0.125 0.359375,-0.375 0,-0.125 -0.046875,-0.375 -0.40625,-0.375 C 0.984375,-4.21875 1.453125,-4.375 1.78125,-4.375 c 0.703125,0 1.0625,0.546875 1.0625,1.109375 0,0.609375 -0.4375,1.078125 -0.65625,1.328125 L 0.515625,-0.265625 C 0.4375,-0.203125 0.4375,-0.1875 0.4375,0 h 2.875 z m 0,0"
                 id="path30" />
            </g>
            <g
               id="g31">
              <path
                 d="m 7.109375,-4.1875 c 0.0625,-0.265625 0.078125,-0.328125 0.59375,-0.328125 0.15625,0 0.234375,0 0.234375,-0.140625 0,-0.109375 -0.078125,-0.109375 -0.203125,-0.109375 H 6.78125 c -0.203125,0 -0.203125,0.015625 -0.296875,0.140625 l -2.6875,3.984375 -0.6875,-3.9375 c -0.03125,-0.171875 -0.03125,-0.1875 -0.25,-0.1875 H 1.875 c -0.140625,0 -0.234375,0 -0.234375,0.15625 0,0.09375 0.078125,0.09375 0.234375,0.09375 0.109375,0 0.140625,0 0.265625,0.015625 0.140625,0.015625 0.15625,0.03125 0.15625,0.109375 0,0 0,0.046875 -0.03125,0.140625 l -0.875,3.5 c -0.0625,0.234375 -0.171875,0.484375 -0.734375,0.5 -0.046875,0 -0.140625,0 -0.140625,0.15625 0,0 0,0.09375 0.109375,0.09375 0.203125,0 0.5,-0.03125 0.71875,-0.03125 C 1.515625,-0.03125 1.921875,0 2.078125,0 2.125,0 2.21875,0 2.21875,-0.15625 2.21875,-0.25 2.125,-0.25 2.0625,-0.25 1.625,-0.265625 1.625,-0.453125 1.625,-0.546875 c 0,-0.03125 0,-0.0625 0.03125,-0.171875 l 0.921875,-3.703125 0.75,4.234375 C 3.359375,-0.0625 3.359375,0 3.46875,0 3.5625,0 3.625,-0.078125 3.671875,-0.15625 L 6.59375,-4.5 6.609375,-4.484375 5.625,-0.546875 C 5.5625,-0.3125 5.546875,-0.25 5.015625,-0.25 c -0.125,0 -0.21875,0 -0.21875,0.15625 0,0 0,0.09375 0.109375,0.09375 0.140625,0 0.296875,-0.015625 0.4375,-0.015625 0.140625,0 0.296875,-0.015625 0.4375,-0.015625 C 5.984375,-0.03125 6.46875,0 6.671875,0 6.703125,0 6.8125,0 6.8125,-0.15625 6.8125,-0.25 6.734375,-0.25 6.59375,-0.25 c -0.015625,0 -0.140625,0 -0.265625,-0.015625 -0.15625,-0.015625 -0.15625,-0.03125 -0.15625,-0.109375 0,-0.03125 0.015625,-0.109375 0.015625,-0.140625 z m 0,0"
                 id="path31" />
            </g>
            <g
               id="g32">
              <path
                 d="m 2.875,-4.265625 c 0.046875,-0.203125 0.0625,-0.21875 0.21875,-0.25 h 0.453125 c 0.640625,0 1.4375,0 1.4375,0.71875 0,0.296875 -0.125,0.734375 -0.453125,0.984375 C 4.25,-2.59375 3.8125,-2.484375 3.328125,-2.484375 H 2.4375 Z M 4.140625,-2.375 c 0.828125,-0.1875 1.5625,-0.6875 1.5625,-1.3125 0,-0.59375 -0.703125,-1.078125 -1.71875,-1.078125 H 1.84375 c -0.125,0 -0.21875,0 -0.21875,0.15625 0,0.09375 0.078125,0.09375 0.21875,0.09375 0.015625,0 0.140625,0 0.265625,0.015625 0.15625,0.015625 0.15625,0.03125 0.15625,0.109375 0,0 0,0.046875 -0.015625,0.140625 L 1.3125,-0.546875 C 1.265625,-0.3125 1.25,-0.25 0.703125,-0.25 0.578125,-0.25 0.5,-0.25 0.5,-0.109375 0.5,-0.03125 0.546875,0 0.609375,0 c 0.125,0 0.296875,-0.015625 0.421875,-0.015625 0.140625,0 0.34375,-0.015625 0.46875,-0.015625 0.140625,0 0.296875,0.015625 0.4375,0.015625 C 2.09375,-0.015625 2.265625,0 2.40625,0 2.453125,0 2.5625,0 2.5625,-0.140625 2.5625,-0.25 2.484375,-0.25 2.328125,-0.25 2.21875,-0.25 2.1875,-0.25 2.0625,-0.265625 1.90625,-0.28125 1.90625,-0.296875 1.90625,-0.375 c 0,0 0,-0.046875 0.03125,-0.140625 L 2.375,-2.28125 h 0.953125 c 0.59375,0 0.859375,0.296875 0.859375,0.625 0,0.09375 -0.0625,0.328125 -0.109375,0.484375 C 4,-0.84375 3.96875,-0.75 3.96875,-0.625 c 0,0.546875 0.515625,0.765625 1.03125,0.765625 0.640625,0 0.921875,-0.6875 0.921875,-0.8125 0,-0.015625 -0.015625,-0.09375 -0.125,-0.09375 -0.09375,0 -0.109375,0.046875 -0.125,0.125 C 5.578125,-0.34375 5.3125,-0.0625 5.03125,-0.0625 c -0.1875,0 -0.328125,-0.0625 -0.328125,-0.453125 0,-0.171875 0.046875,-0.53125 0.078125,-0.71875 0.03125,-0.1875 0.03125,-0.25 0.03125,-0.328125 0,-0.078125 0,-0.3125 -0.203125,-0.515625 C 4.484375,-2.21875 4.296875,-2.3125 4.140625,-2.375 Z m 0,0"
                 id="path32" />
            </g>
            <g
               id="g33">
              <path
                 d="m 5.875,-4.8125 c 0,-0.03125 -0.015625,-0.09375 -0.09375,-0.09375 -0.046875,0 -0.0625,0.015625 -0.125,0.09375 l -0.5,0.53125 c -0.0625,-0.078125 -0.453125,-0.625 -1.3125,-0.625 -1.703125,0 -3.359375,1.5 -3.359375,3.078125 0,1.140625 0.890625,1.96875 2.140625,1.96875 0.375,0 1.046875,-0.078125 1.765625,-0.6875 0.546875,-0.46875 0.703125,-1.0625 0.703125,-1.125 0,-0.09375 -0.078125,-0.09375 -0.125,-0.09375 -0.078125,0 -0.09375,0.03125 -0.125,0.109375 -0.28125,0.953125 -1.25,1.546875 -2.09375,1.546875 -0.75,0 -1.5625,-0.40625 -1.5625,-1.5 0,-0.203125 0.046875,-1.296875 0.84375,-2.1875 0.484375,-0.53125 1.21875,-0.84375 1.875,-0.84375 0.8125,0 1.28125,0.578125 1.28125,1.359375 0,0.1875 -0.015625,0.25 -0.015625,0.28125 0,0.09375 0.09375,0.09375 0.125,0.09375 0.109375,0 0.109375,-0.015625 0.140625,-0.15625 z m 0,0"
                 id="path33" />
            </g>
            <g
               id="g34">
              <path
                 d="M 1.3125,-0.546875 C 1.265625,-0.3125 1.25,-0.25 0.703125,-0.25 0.578125,-0.25 0.5,-0.25 0.5,-0.09375 0.5,0 0.578125,0 0.703125,0 H 3.1875 c 1.546875,0 3.03125,-1.421875 3.03125,-2.9375 0,-1.015625 -0.703125,-1.828125 -1.828125,-1.828125 H 1.84375 c -0.140625,0 -0.21875,0 -0.21875,0.15625 0,0.09375 0.078125,0.09375 0.234375,0.09375 0.109375,0 0.140625,0 0.265625,0.015625 0.140625,0.015625 0.140625,0.03125 0.140625,0.109375 0,0 0,0.046875 -0.015625,0.140625 z m 1.5625,-3.71875 c 0.0625,-0.21875 0.0625,-0.25 0.359375,-0.25 H 4.125 c 0.78125,0 1.4375,0.390625 1.4375,1.34375 0,0.15625 -0.078125,1.359375 -0.765625,2.15625 C 4.515625,-0.703125 3.921875,-0.25 3.0625,-0.25 H 2.125 c -0.21875,0 -0.234375,-0.015625 -0.234375,-0.078125 0,0 0,-0.03125 0.03125,-0.140625 z m 0,0"
                 id="path34" />
            </g>
          </g>
        </defs>
        <g
           fill="#000000"
           fill-opacity="1"
           id="id-28606254-eb7c-4841-a650-7487e0ce3352"
           transform="translate(-148.946,-126.524)"
           style="fill:#000000;fill-opacity:1;stroke:none;stroke-width:0.5;stroke-dasharray:none;stroke-opacity:1">
          <g
             transform="translate(148.712,134.765)"
             id="g6112"
             style="fill:#000000;fill-opacity:1;stroke:none;stroke-width:0.5;stroke-dasharray:none;stroke-opacity:1">
            <path
               d="m 4.25,-6.046875 c 0.078125,-0.28125 0.109375,-0.34375 0.234375,-0.375 0.09375,-0.015625 0.421875,-0.015625 0.625,-0.015625 1.015625,0 1.453125,0.03125 1.453125,0.8125 0,0.15625 -0.03125,0.546875 -0.078125,0.796875 0,0.046875 -0.03125,0.15625 -0.03125,0.1875 0,0.0625 0.03125,0.140625 0.125,0.140625 0.109375,0 0.125,-0.078125 0.15625,-0.234375 L 7,-6.46875 C 7.015625,-6.515625 7.015625,-6.609375 7.015625,-6.640625 7.015625,-6.75 6.921875,-6.75 6.75,-6.75 H 1.21875 c -0.234375,0 -0.25,0.015625 -0.328125,0.203125 l -0.59375,1.75 c 0,0.015625 -0.0625,0.15625 -0.0625,0.1875 0,0.046875 0.0625,0.109375 0.125,0.109375 0.09375,0 0.109375,-0.0625 0.171875,-0.21875 C 1.0625,-6.265625 1.328125,-6.4375 2.796875,-6.4375 H 3.1875 c 0.28125,0 0.28125,0.03125 0.28125,0.125 0,0.046875 -0.03125,0.171875 -0.046875,0.203125 L 2.09375,-0.78125 C 2,-0.421875 1.96875,-0.3125 0.90625,-0.3125 c -0.359375,0 -0.421875,0 -0.421875,0.1875 C 0.484375,0 0.59375,0 0.65625,0 c 0.265625,0 0.546875,-0.015625 0.8125,-0.015625 0.28125,0 0.578125,-0.015625 0.859375,-0.015625 0.28125,0 0.546875,0.015625 0.828125,0.015625 C 3.4375,-0.015625 3.734375,0 4.015625,0 c 0.09375,0 0.21875,0 0.21875,-0.203125 0,-0.109375 -0.078125,-0.109375 -0.34375,-0.109375 -0.234375,0 -0.375,0 -0.625,-0.015625 -0.296875,-0.03125 -0.375,-0.0625 -0.375,-0.21875 0,-0.015625 0,-0.0625 0.046875,-0.203125 z m 0,0"
               id="id-50e02acd-92d2-4fdb-b7df-4c9b8198e025"
               style="fill:#000000;fill-opacity:1;stroke:none;stroke-width:0.5;stroke-linecap:round;stroke-linejoin:round;stroke-miterlimit:10;stroke-dasharray:none;stroke-opacity:1" />
          </g>
        </g>
        <g
           fill="#000000"
           fill-opacity="1"
           id="id-a0bd3c63-a605-424b-acba-b11d2979465a"
           transform="translate(-148.946,-126.524)"
           style="fill:#000000;fill-opacity:1;stroke:none;stroke-width:0.5;stroke-dasharray:none;stroke-opacity:1">
          <g
             transform="translate(155.918,131.149)"
             id="g6174"
             style="fill:#000000;fill-opacity:1;stroke:none;stroke-width:0.5;stroke-dasharray:none;stroke-opacity:1">
            <path
               d="M 3.515625,-1.265625 H 3.28125 c -0.015625,0.15625 -0.09375,0.5625 -0.1875,0.625 C 3.046875,-0.59375 2.515625,-0.59375 2.40625,-0.59375 H 1.125 c 0.734375,-0.640625 0.984375,-0.84375 1.390625,-1.171875 0.515625,-0.40625 1,-0.84375 1,-1.5 0,-0.84375 -0.734375,-1.359375 -1.625,-1.359375 -0.859375,0 -1.453125,0.609375 -1.453125,1.25 0,0.34375 0.296875,0.390625 0.375,0.390625 0.15625,0 0.359375,-0.125 0.359375,-0.375 0,-0.125 -0.046875,-0.375 -0.40625,-0.375 C 0.984375,-4.21875 1.453125,-4.375 1.78125,-4.375 c 0.703125,0 1.0625,0.546875 1.0625,1.109375 0,0.609375 -0.4375,1.078125 -0.65625,1.328125 L 0.515625,-0.265625 C 0.4375,-0.203125 0.4375,-0.1875 0.4375,0 h 2.875 z m 0,0"
               id="id-4aedf4ca-b3e5-4e23-bf96-51a523e43e6e"
               style="fill:#000000;fill-opacity:1;stroke:none;stroke-width:0.5;stroke-linecap:round;stroke-linejoin:round;stroke-miterlimit:10;stroke-dasharray:none;stroke-opacity:1" />
          </g>
        </g>
        <g
           fill="#000000"
           fill-opacity="1"
           id="id-131142b2-7092-43b2-a011-f9b5b2cfa4c4"
           transform="translate(-148.946,-126.524)"
           style="fill:#000000;fill-opacity:1;stroke:none;stroke-width:0.5;stroke-dasharray:none;stroke-opacity:1">
          <g
             transform="translate(154.534,137.509)"
             id="g2471"
             style="fill:#000000;fill-opacity:1;stroke:none;stroke-width:0.5;stroke-dasharray:none;stroke-opacity:1">
            <path
               d="m 7.109375,-4.1875 c 0.0625,-0.265625 0.078125,-0.328125 0.59375,-0.328125 0.15625,0 0.234375,0 0.234375,-0.140625 0,-0.109375 -0.078125,-0.109375 -0.203125,-0.109375 H 6.78125 c -0.203125,0 -0.203125,0.015625 -0.296875,0.140625 l -2.6875,3.984375 -0.6875,-3.9375 c -0.03125,-0.171875 -0.03125,-0.1875 -0.25,-0.1875 H 1.875 c -0.140625,0 -0.234375,0 -0.234375,0.15625 0,0.09375 0.078125,0.09375 0.234375,0.09375 0.109375,0 0.140625,0 0.265625,0.015625 0.140625,0.015625 0.15625,0.03125 0.15625,0.109375 0,0 0,0.046875 -0.03125,0.140625 l -0.875,3.5 c -0.0625,0.234375 -0.171875,0.484375 -0.734375,0.5 -0.046875,0 -0.140625,0 -0.140625,0.15625 0,0 0,0.09375 0.109375,0.09375 0.203125,0 0.5,-0.03125 0.71875,-0.03125 C 1.515625,-0.03125 1.921875,0 2.078125,0 2.125,0 2.21875,0 2.21875,-0.15625 2.21875,-0.25 2.125,-0.25 2.0625,-0.25 1.625,-0.265625 1.625,-0.453125 1.625,-0.546875 c 0,-0.03125 0,-0.0625 0.03125,-0.171875 l 0.921875,-3.703125 0.75,4.234375 C 3.359375,-0.0625 3.359375,0 3.46875,0 3.5625,0 3.625,-0.078125 3.671875,-0.15625 L 6.59375,-4.5 6.609375,-4.484375 5.625,-0.546875 C 5.5625,-0.3125 5.546875,-0.25 5.015625,-0.25 c -0.125,0 -0.21875,0 -0.21875,0.15625 0,0 0,0.09375 0.109375,0.09375 0.140625,0 0.296875,-0.015625 0.4375,-0.015625 0.140625,0 0.296875,-0.015625 0.4375,-0.015625 C 5.984375,-0.03125 6.46875,0 6.671875,0 6.703125,0 6.8125,0 6.8125,-0.15625 6.8125,-0.25 6.734375,-0.25 6.59375,-0.25 c -0.015625,0 -0.140625,0 -0.265625,-0.015625 -0.15625,-0.015625 -0.15625,-0.03125 -0.15625,-0.109375 0,-0.03125 0.015625,-0.109375 0.015625,-0.140625 z m 0,0"
               id="id-3a69a1ab-30e9-49c2-9557-7fc4213b7b1f"
               style="fill:#000000;fill-opacity:1;stroke:none;stroke-width:0.5;stroke-linecap:round;stroke-linejoin:round;stroke-miterlimit:10;stroke-dasharray:none;stroke-opacity:1" />
          </g>
        </g>
        <g
           fill="#000000"
           fill-opacity="1"
           id="id-6d43413a-72da-4dbc-938d-c81325b16ef3"
           transform="translate(-148.946,-126.524)"
           style="fill:#000000;fill-opacity:1;stroke:none;stroke-width:0.5;stroke-dasharray:none;stroke-opacity:1"
           inkscape:label="id-6d43413a-72da-4dbc-938d-c81325b16ef3">
          <g
             transform="translate(162.877,137.509)"
             id="g9506"
             style="fill:#000000;fill-opacity:1;stroke:none;stroke-width:0.5;stroke-dasharray:none;stroke-opacity:1">
            <path
               d="m 2.875,-4.265625 c 0.046875,-0.203125 0.0625,-0.21875 0.21875,-0.25 h 0.453125 c 0.640625,0 1.4375,0 1.4375,0.71875 0,0.296875 -0.125,0.734375 -0.453125,0.984375 C 4.25,-2.59375 3.8125,-2.484375 3.328125,-2.484375 H 2.4375 Z M 4.140625,-2.375 c 0.828125,-0.1875 1.5625,-0.6875 1.5625,-1.3125 0,-0.59375 -0.703125,-1.078125 -1.71875,-1.078125 H 1.84375 c -0.125,0 -0.21875,0 -0.21875,0.15625 0,0.09375 0.078125,0.09375 0.21875,0.09375 0.015625,0 0.140625,0 0.265625,0.015625 0.15625,0.015625 0.15625,0.03125 0.15625,0.109375 0,0 0,0.046875 -0.015625,0.140625 L 1.3125,-0.546875 C 1.265625,-0.3125 1.25,-0.25 0.703125,-0.25 0.578125,-0.25 0.5,-0.25 0.5,-0.109375 0.5,-0.03125 0.546875,0 0.609375,0 c 0.125,0 0.296875,-0.015625 0.421875,-0.015625 0.140625,0 0.34375,-0.015625 0.46875,-0.015625 0.140625,0 0.296875,0.015625 0.4375,0.015625 C 2.09375,-0.015625 2.265625,0 2.40625,0 2.453125,0 2.5625,0 2.5625,-0.140625 2.5625,-0.25 2.484375,-0.25 2.328125,-0.25 2.21875,-0.25 2.1875,-0.25 2.0625,-0.265625 1.90625,-0.28125 1.90625,-0.296875 1.90625,-0.375 c 0,0 0,-0.046875 0.03125,-0.140625 L 2.375,-2.28125 h 0.953125 c 0.59375,0 0.859375,0.296875 0.859375,0.625 0,0.09375 -0.0625,0.328125 -0.109375,0.484375 C 4,-0.84375 3.96875,-0.75 3.96875,-0.625 c 0,0.546875 0.515625,0.765625 1.03125,0.765625 0.640625,0 0.921875,-0.6875 0.921875,-0.8125 0,-0.015625 -0.015625,-0.09375 -0.125,-0.09375 -0.09375,0 -0.109375,0.046875 -0.125,0.125 C 5.578125,-0.34375 5.3125,-0.0625 5.03125,-0.0625 c -0.1875,0 -0.328125,-0.0625 -0.328125,-0.453125 0,-0.171875 0.046875,-0.53125 0.078125,-0.71875 0.03125,-0.1875 0.03125,-0.25 0.03125,-0.328125 0,-0.078125 0,-0.3125 -0.203125,-0.515625 C 4.484375,-2.21875 4.296875,-2.3125 4.140625,-2.375 Z m 0,0"
               id="id-ed530a94-2b1b-46ed-b877-89217b0f9cc5"
               style="fill:#000000;fill-opacity:1;stroke:none;stroke-width:0.5;stroke-linecap:round;stroke-linejoin:round;stroke-miterlimit:10;stroke-dasharray:none;stroke-opacity:1" />
          </g>
        </g>
        <g
           fill="#000000"
           fill-opacity="1"
           id="id-ce410286-1779-4374-b0f6-213db51cd5f5"
           transform="translate(-148.946,-126.524)"
           style="fill:#000000;fill-opacity:1;stroke:none;stroke-width:0.5;stroke-dasharray:none;stroke-opacity:1">
          <g
             transform="translate(168.914,137.509)"
             id="g7481"
             style="fill:#000000;fill-opacity:1;stroke:none;stroke-width:0.5;stroke-dasharray:none;stroke-opacity:1">
            <path
               d="m 5.875,-4.8125 c 0,-0.03125 -0.015625,-0.09375 -0.09375,-0.09375 -0.046875,0 -0.0625,0.015625 -0.125,0.09375 l -0.5,0.53125 c -0.0625,-0.078125 -0.453125,-0.625 -1.3125,-0.625 -1.703125,0 -3.359375,1.5 -3.359375,3.078125 0,1.140625 0.890625,1.96875 2.140625,1.96875 0.375,0 1.046875,-0.078125 1.765625,-0.6875 0.546875,-0.46875 0.703125,-1.0625 0.703125,-1.125 0,-0.09375 -0.078125,-0.09375 -0.125,-0.09375 -0.078125,0 -0.09375,0.03125 -0.125,0.109375 -0.28125,0.953125 -1.25,1.546875 -2.09375,1.546875 -0.75,0 -1.5625,-0.40625 -1.5625,-1.5 0,-0.203125 0.046875,-1.296875 0.84375,-2.1875 0.484375,-0.53125 1.21875,-0.84375 1.875,-0.84375 0.8125,0 1.28125,0.578125 1.28125,1.359375 0,0.1875 -0.015625,0.25 -0.015625,0.28125 0,0.09375 0.09375,0.09375 0.125,0.09375 0.109375,0 0.109375,-0.015625 0.140625,-0.15625 z m 0,0"
               id="id-8b5e9ccf-b0a4-4a73-8846-c78266778882"
               style="fill:#000000;fill-opacity:1;stroke:none;stroke-width:0.5;stroke-linecap:round;stroke-linejoin:round;stroke-miterlimit:10;stroke-dasharray:none;stroke-opacity:1" />
          </g>
        </g>
        <g
           fill="#000000"
           fill-opacity="1"
           id="id-b2c52b33-7d30-4108-80ec-a551fc477b57"
           transform="translate(-148.946,-126.524)"
           style="fill:#000000;fill-opacity:1;stroke:none;stroke-width:0.5;stroke-dasharray:none;stroke-opacity:1">
          <g
             transform="translate(175.116,137.509)"
             id="g6225"
             style="fill:#000000;fill-opacity:1;stroke:none;stroke-width:0.5;stroke-dasharray:none;stroke-opacity:1">
            <path
               d="M 1.3125,-0.546875 C 1.265625,-0.3125 1.25,-0.25 0.703125,-0.25 0.578125,-0.25 0.5,-0.25 0.5,-0.09375 0.5,0 0.578125,0 0.703125,0 H 3.1875 c 1.546875,0 3.03125,-1.421875 3.03125,-2.9375 0,-1.015625 -0.703125,-1.828125 -1.828125,-1.828125 H 1.84375 c -0.140625,0 -0.21875,0 -0.21875,0.15625 0,0.09375 0.078125,0.09375 0.234375,0.09375 0.109375,0 0.140625,0 0.265625,0.015625 0.140625,0.015625 0.140625,0.03125 0.140625,0.109375 0,0 0,0.046875 -0.015625,0.140625 z m 1.5625,-3.71875 c 0.0625,-0.21875 0.0625,-0.25 0.359375,-0.25 H 4.125 c 0.78125,0 1.4375,0.390625 1.4375,1.34375 0,0.15625 -0.078125,1.359375 -0.765625,2.15625 C 4.515625,-0.703125 3.921875,-0.25 3.0625,-0.25 H 2.125 c -0.21875,0 -0.234375,-0.015625 -0.234375,-0.078125 0,0 0,-0.03125 0.03125,-0.140625 z m 0,0"
               id="id-e8c0145a-5ece-4c8f-9c5d-93c7fe3eecc0"
               style="fill:#000000;fill-opacity:1;stroke:none;stroke-width:0.5;stroke-linecap:round;stroke-linejoin:round;stroke-miterlimit:10;stroke-dasharray:none;stroke-opacity:1" />
          </g>
        </g>
      </g>
    </g>
  </g>
  <g
     clip-path="url(#cpNTkuMDR8Njg5Ljc2fDU5LjA0fDUwMi41Ng==)"
     id="g102">
    <text
       x="82.400002"
       y="489.92001"
       text-anchor="middle"
       style="font-weight:bold;font-size:10.8px;font-family:Arial"
       textLength="6"
       lengthAdjust="spacingAndGlyphs"
       id="text64"
       transform="matrix(0.77294686,0,0,0.77294686,18.521401,110.24786)">1</text>
    <text
       x="97.769997"
       y="489.95999"
       text-anchor="middle"
       style="font-weight:bold;font-size:10.8px;font-family:Arial"
       textLength="6"
       lengthAdjust="spacingAndGlyphs"
       id="text65"
       transform="matrix(0.77294686,0,0,0.77294686,21.979171,110.21696)">2</text>
    <text
       x="113.14"
       y="489.39001"
       text-anchor="middle"
       style="font-weight:bold;font-size:10.8px;font-family:Arial"
       textLength="6"
       lengthAdjust="spacingAndGlyphs"
       id="text66"
       transform="matrix(0.76011292,0,0,0.7600386,27.018847,116.5745)">3</text>
    <text
       x="128.50999"
       y="489.76999"
       text-anchor="middle"
       style="font-weight:bold;font-size:10.8px;font-family:Arial"
       textLength="6"
       lengthAdjust="spacingAndGlyphs"
       id="text67"
       transform="matrix(0.77302149,0,0,0.77302149,28.833337,110.22785)">4</text>
    <text
       x="143.87"
       y="489.76001"
       text-anchor="middle"
       style="font-weight:bold;font-size:10.8px;font-family:Arial"
       textLength="6"
       lengthAdjust="spacingAndGlyphs"
       id="text68"
       transform="matrix(0.77347232,0,0,0.77347232,32.31918,110.01222)">5</text>
    <text
       x="159.24001"
       y="489.70999"
       text-anchor="middle"
       style="font-weight:bold;font-size:10.8px;font-family:Arial"
       textLength="6"
       lengthAdjust="spacingAndGlyphs"
       id="text69"
       transform="matrix(0.7600386,0,0,0.7600386,38.001242,116.6313)">6</text>
    <text
       x="174.61"
       y="489.79999"
       text-anchor="middle"
       style="font-weight:bold;font-size:10.8px;font-family:Arial"
       textLength="6"
       lengthAdjust="spacingAndGlyphs"
       id="text70"
       transform="matrix(0.78684494,0,0,0.78684494,37.176931,103.53336)">7</text>
    <text
       x="189.98"
       y="489.79001"
       text-anchor="middle"
       style="font-weight:bold;font-size:10.8px;font-family:Arial"
       textLength="6"
       lengthAdjust="spacingAndGlyphs"
       id="text71"
       transform="matrix(0.75953123,0,0,0.75953123,45.567767,116.77506)">8</text>
    <text
       x="205.35001"
       y="489.81"
       text-anchor="middle"
       style="font-weight:bold;font-size:10.8px;font-family:Arial"
       textLength="6"
       lengthAdjust="spacingAndGlyphs"
       id="text72"
       transform="matrix(0.75953123,0,0,0.75953123,49.340783,116.77987)">9</text>
    <text
       x="220.72"
       y="489.82001"
       text-anchor="middle"
       style="font-weight:bold;font-size:10.8px;font-family:Arial"
       textLength="12.01"
       lengthAdjust="spacingAndGlyphs"
       id="text73"
       transform="matrix(0.76003858,0,0,0.76003858,52.928173,116.5377)">10</text>
    <text
       x="236.08"
       y="489.95999"
       text-anchor="middle"
       style="font-weight:bold;font-size:10.8px;font-family:Arial"
       textLength="12.01"
       lengthAdjust="spacingAndGlyphs"
       id="text74"
       transform="matrix(0.77294686,0,0,0.77294686,53.443311,110.34695)">11</text>
    <text
       x="251.45"
       y="489.89001"
       text-anchor="middle"
       style="font-weight:bold;font-size:10.8px;font-family:Arial"
       textLength="12.01"
       lengthAdjust="spacingAndGlyphs"
       id="text75"
       transform="matrix(0.77294685,0,0,0.77294685,56.923301,110.33107)">12</text>
    <text
       x="266.82001"
       y="489.78"
       text-anchor="middle"
       style="font-weight:bold;font-size:10.8px;font-family:Arial"
       textLength="12.01"
       lengthAdjust="spacingAndGlyphs"
       id="text76"
       transform="matrix(0.76003858,0,0,0.76003858,63.79024,116.5281)">13</text>
    <text
       x="282.19"
       y="489.84"
       text-anchor="middle"
       style="font-weight:bold;font-size:10.8px;font-family:Arial"
       textLength="12.01"
       lengthAdjust="spacingAndGlyphs"
       id="text77"
       transform="matrix(0.77294685,0,0,0.77294685,63.602808,110.31972)">14</text>
    <text
       x="297.56"
       y="489.76999"
       text-anchor="middle"
       style="font-weight:bold;font-size:10.8px;font-family:Arial"
       textLength="12.01"
       lengthAdjust="spacingAndGlyphs"
       id="text78"
       transform="matrix(0.76003858,0,0,0.76003858,70.966569,116.58571)">15</text>
    <text
       x="312.92999"
       y="489.84"
       text-anchor="middle"
       style="font-weight:bold;font-size:10.8px;font-family:Arial"
       textLength="12.01"
       lengthAdjust="spacingAndGlyphs"
       id="text79"
       transform="matrix(0.76003858,0,0,0.76003858,74.854819,116.5325)">16</text>
    <text
       x="328.29001"
       y="489.91"
       text-anchor="middle"
       style="font-weight:bold;font-size:10.8px;font-family:Arial"
       textLength="12.01"
       lengthAdjust="spacingAndGlyphs"
       id="text80"
       transform="matrix(0.77294685,0,0,0.77294685,74.269606,110.25561)">17</text>
    <text
       x="343.66"
       y="489.70001"
       text-anchor="middle"
       style="font-weight:bold;font-size:10.8px;font-family:Arial"
       textLength="12.01"
       lengthAdjust="spacingAndGlyphs"
       id="text81"
       transform="matrix(0.75953121,0,0,0.75953121,82.301348,116.88342)">18</text>
    <text
       x="359.03"
       y="489.84"
       text-anchor="middle"
       style="font-weight:bold;font-size:10.8px;font-family:Arial"
       textLength="12.01"
       lengthAdjust="spacingAndGlyphs"
       id="text82"
       transform="matrix(0.75953121,0,0,0.75953121,85.897364,116.80708)">19</text>
    <text
       x="374.39999"
       y="489.81"
       text-anchor="middle"
       style="font-weight:bold;font-size:10.8px;font-family:Arial"
       textLength="12.01"
       lengthAdjust="spacingAndGlyphs"
       id="text83"
       transform="matrix(0.76003858,0,0,0.76003858,89.864737,116.55525)">20</text>
    <text
       x="389.76999"
       y="489.85999"
       text-anchor="middle"
       style="font-weight:bold;font-size:10.8px;font-family:Arial"
       textLength="12.01"
       lengthAdjust="spacingAndGlyphs"
       id="text84"
       transform="matrix(0.77294685,0,0,0.77294685,88.796105,110.34424)">21</text>
    <text
       x="405.14001"
       y="489.89001"
       text-anchor="middle"
       style="font-weight:bold;font-size:10.8px;font-family:Arial"
       textLength="12.01"
       lengthAdjust="spacingAndGlyphs"
       id="text85"
       transform="matrix(0.77294685,0,0,0.77294685,92.186255,110.35106)">22</text>
    <text
       x="420.51001"
       y="489.73001"
       text-anchor="middle"
       style="font-weight:bold;font-size:10.8px;font-family:Arial"
       textLength="12.01"
       lengthAdjust="spacingAndGlyphs"
       id="text86"
       transform="matrix(0.76003858,0,0,0.76003858,101.1293,116.5361)">23</text>
    <text
       x="435.87"
       y="489.87"
       text-anchor="middle"
       style="font-weight:bold;font-size:10.8px;font-family:Arial"
       textLength="12.01"
       lengthAdjust="spacingAndGlyphs"
       id="text87"
       transform="matrix(0.77294685,0,0,0.77294685,99.06351,110.34652)">24</text>
    <text
       x="451.23999"
       y="402.42001"
       text-anchor="middle"
       style="font-weight:bold;font-size:10.8px;font-family:Arial"
       textLength="12.01"
       lengthAdjust="spacingAndGlyphs"
       id="text88"
       transform="matrix(0.76003858,0,0,0.76003858,108.10424,95.803064)">25</text>
    <text
       x="466.60999"
       y="79.230003"
       text-anchor="middle"
       style="font-weight:bold;font-size:10.8px;font-family:Arial"
       textLength="12.01"
       lengthAdjust="spacingAndGlyphs"
       id="text89"
       transform="matrix(0.76003858,0,0,0.76003858,111.89149,18.24994)">26</text>
    <text
       x="481.98001"
       y="489.73999"
       text-anchor="middle"
       style="font-weight:bold;font-size:10.8px;font-family:Arial"
       textLength="12.01"
       lengthAdjust="spacingAndGlyphs"
       id="text90"
       transform="matrix(0.77294685,0,0,0.77294685,109.73257,110.47201)">27</text>
    <text
       x="497.35001"
       y="489.82999"
       text-anchor="middle"
       style="font-weight:bold;font-size:10.8px;font-family:Arial"
       textLength="12.01"
       lengthAdjust="spacingAndGlyphs"
       id="text91"
       transform="matrix(0.75953121,0,0,0.75953121,119.71824,116.95968)">28</text>
    <text
       x="512.71997"
       y="489.70001"
       text-anchor="middle"
       style="font-weight:bold;font-size:10.8px;font-family:Arial"
       textLength="12.01"
       lengthAdjust="spacingAndGlyphs"
       id="text92"
       transform="matrix(0.75953121,0,0,0.75953121,123.31428,116.92843)">29</text>
    <text
       x="528.08002"
       y="489.84"
       text-anchor="middle"
       style="font-weight:bold;font-size:10.8px;font-family:Arial"
       textLength="12.01"
       lengthAdjust="spacingAndGlyphs"
       id="text93"
       transform="matrix(0.76003858,0,0,0.76003858,126.7749,116.7175)">30</text>
    <text
       x="543.45001"
       y="489.76999"
       text-anchor="middle"
       style="font-weight:bold;font-size:10.8px;font-family:Arial"
       textLength="12.01"
       lengthAdjust="spacingAndGlyphs"
       id="text94"
       transform="matrix(0.76003858,0,0,0.76003858,130.76393,116.7007)">31</text>
    <text
       x="558.82001"
       y="489.79999"
       text-anchor="middle"
       style="font-weight:bold;font-size:10.8px;font-family:Arial"
       textLength="12.01"
       lengthAdjust="spacingAndGlyphs"
       id="text95"
       transform="matrix(0.76003858,0,0,0.76003858,134.25133,116.7079)">32</text>
    <text
       x="574.19"
       y="489.85999"
       text-anchor="middle"
       style="font-weight:bold;font-size:10.8px;font-family:Arial"
       textLength="12.01"
       lengthAdjust="spacingAndGlyphs"
       id="text96"
       transform="matrix(0.76003858,0,0,0.76003858,137.63948,116.7223)">33</text>
    <text
       x="589.56"
       y="489.60999"
       text-anchor="middle"
       style="font-weight:bold;font-size:10.8px;font-family:Arial"
       textLength="12.01"
       lengthAdjust="spacingAndGlyphs"
       id="text97"
       transform="matrix(0.76003858,0,0,0.76003858,141.52855,116.66231)">34</text>
    <text
       x="604.92999"
       y="489.45001"
       text-anchor="middle"
       style="font-weight:bold;font-size:10.8px;font-family:Arial"
       textLength="12.01"
       lengthAdjust="spacingAndGlyphs"
       id="text98"
       transform="matrix(0.76003858,0,0,0.76003858,144.91581,116.62392)">35</text>
    <text
       x="620.28998"
       y="350.91"
       text-anchor="middle"
       style="font-weight:bold;font-size:10.8px;font-family:Arial"
       textLength="12.01"
       lengthAdjust="spacingAndGlyphs"
       id="text99"
       transform="matrix(0.76003858,0,0,0.76003858,148.80167,83.542659)">36</text>
    <text
       x="635.65997"
       y="349.29001"
       text-anchor="middle"
       style="font-weight:bold;font-size:10.8px;font-family:Arial"
       textLength="12.01"
       lengthAdjust="spacingAndGlyphs"
       id="text100"
       transform="matrix(0.76003858,0,0,0.76003858,152.28995,82.953917)">37</text>
    <text
       x="651.03003"
       y="274.59"
       text-anchor="middle"
       style="font-weight:bold;font-size:10.8px;font-family:Arial"
       textLength="12.01"
       lengthAdjust="spacingAndGlyphs"
       id="text101"
       transform="matrix(0.75953121,0,0,0.75953121,156.50641,65.263189)">38</text>
    <text
       x="666.40002"
       y="337.42001"
       text-anchor="middle"
       style="font-weight:bold;font-size:10.8px;font-family:Arial"
       textLength="12.01"
       lengthAdjust="spacingAndGlyphs"
       id="text102"
       transform="matrix(0.75953121,0,0,0.75953121,160.20242,80.37283)">39</text>
  </g>
</svg>
